<svg width="225" height="21" viewBox="0 0 225 21" xmlns="http://www.w3.org/2000/svg">
    <path d="M3.488 20v-8.708h5.628V8.408H3.488V3.284h9.688V.4H.548V20h2.94zm20.196.308c4.984 0 8.4-4.032 8.4-10.136 0-6.104-3.36-10.08-8.344-10.08-4.956 0-8.372 4.032-8.372 10.136 0 6.104 3.36 10.08 8.316 10.08zm.084-2.912c-3.136 0-5.404-2.772-5.404-7.224s2.184-7.168 5.292-7.168c3.136 0 5.432 2.772 5.432 7.224s-2.212 7.168-5.32 7.168zM49.34 20v-2.884h-9.772V.4h-2.94V20H49.34zm17.06 0v-2.884h-9.772V.4h-2.94V20H66.4zm10.872.308c4.984 0 8.4-4.032 8.4-10.136 0-6.104-3.36-10.08-8.344-10.08-4.956 0-8.372 4.032-8.372 10.136 0 6.104 3.36 10.08 8.316 10.08zm.084-2.912c-3.136 0-5.404-2.772-5.404-7.224s2.184-7.168 5.292-7.168c3.136 0 5.432 2.772 5.432 7.224s-2.212 7.168-5.32 7.168zM95.396 20l3.192-12.656c.168-.672.476-2.128.56-2.604.084.476.392 1.932.56 2.604L102.76 20h2.968L109.732.4h-2.856l-2.38 12.656c-.084.476-.252 1.568-.392 2.296a28.85 28.85 0 0 0-.476-2.268L100.436.4h-2.52L94.78 12.804c-.14.588-.42 1.904-.532 2.548-.084-.644-.336-1.988-.448-2.576L91.448.4H88.48L92.484 20h2.912zm29.5 0V9.836c0-.977-.022-3.254-.027-4.244l-.001-.292c.308.504.98 1.68 1.456 2.408L134.136 20h2.8V.4h-2.856v10.505c.006 1.262.028 3.572.028 4.223-.15-.269-.458-.808-.79-1.377l-.251-.427c-.21-.355-.415-.697-.583-.968L125.036.4h-2.996V20h2.856zm24.9.308c4.984 0 8.4-4.032 8.4-10.136 0-6.104-3.36-10.08-8.344-10.08-4.956 0-8.372 4.032-8.372 10.136 0 6.104 3.36 10.08 8.316 10.08zm.084-2.912c-3.136 0-5.404-2.772-5.404-7.224s2.184-7.168 5.292-7.168c3.136 0 5.432 2.772 5.432 7.224s-2.212 7.168-5.32 7.168zm28.184 2.912c4.984 0 8.4-4.032 8.4-10.136 0-6.104-3.36-10.08-8.344-10.08-4.956 0-8.372 4.032-8.372 10.136 0 6.104 3.36 10.08 8.316 10.08zm.084-2.912c-3.136 0-5.404-2.772-5.404-7.224s2.184-7.168 5.292-7.168c3.136 0 5.432 2.772 5.432 7.224s-2.212 7.168-5.32 7.168zM193.864 20V9.836c0-.977-.022-3.254-.027-4.244l-.001-.292c.308.504.98 1.68 1.456 2.408L203.104 20h2.8V.4h-2.856v10.505c.006 1.262.028 3.572.028 4.223-.15-.269-.458-.808-.79-1.377l-.251-.427c-.21-.355-.415-.697-.583-.968L194.004.4h-2.996V20h2.856zm30.584 0v-2.856H214.34v-6.188h5.628V8.1h-5.628V3.256h9.688V.4H211.4V20h13.048z" fill="#000" fill-rule="nonzero"/>
</svg>
