<svg width="254" height="118" viewBox="0 0 254 118" xmlns="http://www.w3.org/2000/svg">
    <defs>
        <filter color-interpolation-filters="auto" id="a">
            <feColorMatrix in="SourceGraphic" values="0 0 0 0 1.000000 0 0 0 0 1.000000 0 0 0 0 1.000000 0 0 0 1.000000 0"/>
        </filter>
    </defs>
    <g transform="translate(-594 -73)" filter="url(#a)" fill="none" fill-rule="evenodd">
        <path d="m702.805 190.145.26.012c.157.009.253.013.287.013h1.098a.685.685 0 0 0 .1-.013.805.805 0 0 1 .124-.012h.1a.36.36 0 0 1 .075.012.31.31 0 0 0 .075.013.124.124 0 0 1 .062.025c.018.014.04.022.063.024a.955.955 0 0 0 .112.088 9.056 9.056 0 0 0 .412.274.969.969 0 0 1 .125.088l.05.05h.075l.1.05c.08.025.164.037.249.037.084 0 .168.013.25.037a.07.07 0 0 0 .05.026l.05.024c.033.017.112.067.237.15.081.06.169.11.261.15.064.058.13.112.2.162.063.05.13.096.2.137l.05.075c.095.079.183.167.261.262.109.125.171.196.188.213a.218.218 0 0 0 .037.087c.025.042.046.062.062.062a.29.29 0 0 0 .025.087.316.316 0 0 1 .026.113c.016 0 .028.03.037.087.006.037.01.075.012.113a.145.145 0 0 0 .025.1.102.102 0 0 0 .025.074c.016.034.05.092.1.175l.125.175c.016 0 .05.029.1.087.05.058.083.096.1.112 0 .02.01.038.025.05 0 .02.01.037.024.05.007.06.024.12.05.175a.731.731 0 0 1 .05.15l.175.374a.1.1 0 0 1 .025.075c0 .05.008.075.025.075.01.047.027.094.05.137.022.043.04.09.05.137a.39.39 0 0 1 .038.175.64.64 0 0 0 .037.2c0 .05.004.187.012.411.008.225.013.362.013.412 0 .083.008.133.025.15a.195.195 0 0 0 .025.125v.174c0 .033-.009.162-.025.387a9.326 9.326 0 0 0-.025.387v.923a.6.6 0 0 1-.038.163c-.017.055-.038.109-.062.162a.472.472 0 0 1-.05.162.55.55 0 0 0-.05.137.752.752 0 0 1-.013.1.717.717 0 0 0-.012.1c0 .042.005.083.012.125.007.033.011.066.013.1a.483.483 0 0 0 .174.124v.05l.026.05v.05c-.037.062-.078.12-.125.175a2.609 2.609 0 0 1-.125.15l-.275.25-.299.324-.274.549a1.195 1.195 0 0 0-.15.224c-.034 0-.083.042-.15.125a2.605 2.605 0 0 1-.125.15.219.219 0 0 0-.037.112c-.007.037-.01.075-.013.112a.591.591 0 0 0-.075.162 1.011 1.011 0 0 1-.1.212.122.122 0 0 1-.024.063.125.125 0 0 0-.025.062l-.25.3a.36.36 0 0 1-.075.162 1.2 1.2 0 0 1-.1.137.144.144 0 0 1-.05.1.1.1 0 0 0-.024.075c-.068.043-.13.093-.188.15a.856.856 0 0 0-.162.174.281.281 0 0 0-.05.113c-.017.058-.033.087-.05.087a.624.624 0 0 1-.137.15l-.05.045c-.046.04-.075.067-.087.08-.066.081-.125.169-.175.262a6.307 6.307 0 0 0-.15.262l-.025.025-.05.025-.224.174a.11.11 0 0 0-.05.013l-.024.009-.026.003a.208.208 0 0 1-.112.038.216.216 0 0 0-.113.037l-.1.112c-.05.059-.091.088-.124.088l-.05.05a.073.073 0 0 0-.05.025.102.102 0 0 1-.075.025.142.142 0 0 1-.1.025 1.403 1.403 0 0 0-.074.087c-.034.042-.06.062-.076.062-.005.05-.013.1-.024.15a1.132 1.132 0 0 0-.025.225v.424c.004.08.012.158.025.237l.018.153a.93.93 0 0 1 .006.084c.024.038.037.08.038.125a.474.474 0 0 0 .038.15c.002.046.01.092.024.137a.58.58 0 0 1 .025.112v.05l.025.05c.033.066.088.158.162.275.053.066.09.143.113.224.058.07.108.145.15.225.036.07.078.136.124.2l.05.05c.033.033.058.05.075.05 0 .016.02.037.063.062.03.017.06.038.087.062a.12.12 0 0 1 .062.025c.018.014.04.023.063.025a.592.592 0 0 1 .15.062.484.484 0 0 0 .174.063.26.26 0 0 0 .15.025.103.103 0 0 1 .075.025c.012.014.03.023.05.025h.075l.1-.025a.102.102 0 0 1 .074-.025.147.147 0 0 0 .1-.025l.025-.025a.147.147 0 0 0 .1-.025.93.93 0 0 0 .087-.05.117.117 0 0 1 .063-.025c.016 0 .087-.009.212-.025.078-.012.157-.02.237-.025a.769.769 0 0 1 .187-.05.368.368 0 0 0 .187-.075.074.074 0 0 0 .05-.025.072.072 0 0 0 .05-.024c.016 0 .046-.022.088-.063a.175.175 0 0 0 .062-.112c.033 0 .066-.03.1-.088a.597.597 0 0 1 .074-.112 2.104 2.104 0 0 0 .174-.274c.018 0 .034-.017.051-.05.016-.034.033-.05.05-.05a.327.327 0 0 1 .112-.075.274.274 0 0 0 .088-.05h.1l.05.05c.033.033.049.058.049.075v.1l.025.024a.342.342 0 0 1-.012.075.332.332 0 0 0-.013.075.102.102 0 0 0-.025.075l-.025.05v.025a.124.124 0 0 1-.025.062.119.119 0 0 0-.024.063.447.447 0 0 1-.05.124.43.43 0 0 0-.05.125l-.1.125-.55.574-.025.075c-.025.06-.046.123-.062.187a.483.483 0 0 1-.062.162l-.025.05a.073.073 0 0 0-.025.05 4.03 4.03 0 0 0-.187.212.925.925 0 0 1-.187.188c0 .016-.042.04-.125.074a.52.52 0 0 0-.175.1.118.118 0 0 0-.062.025l-.03.017-.032.008a.847.847 0 0 1-.2.088.96.96 0 0 1-.225.062c-.047.037-.097.07-.15.1a.437.437 0 0 1-.174.074.248.248 0 0 1-.125.038c-.05.007-.1.01-.15.012-.033 0-.13.009-.287.025l-.088.01c-.11.01-.184.015-.224.015h-.274a.292.292 0 0 1-.088-.025.282.282 0 0 0-.087-.025 1.64 1.64 0 0 0-.125-.1l-.212-.162a14.89 14.89 0 0 0-.212-.162 1.46 1.46 0 0 1-.125-.1l-.05-.05a.072.072 0 0 0-.05-.024.95.95 0 0 0-.137.012 1.36 1.36 0 0 1-.187.012.176.176 0 0 1-.075-.012.104.104 0 0 0-.05-.012 6.754 6.754 0 0 0-.15-.138.723.723 0 0 1-.15-.162.123.123 0 0 1-.062-.025.123.123 0 0 0-.062-.025c-.017 0-.042-.017-.075-.05l-.075-.05a.072.072 0 0 1-.05-.025.073.073 0 0 0-.05-.025.126.126 0 0 0-.025-.062.123.123 0 0 1-.025-.063v-.1l.2-.199v-.225a.437.437 0 0 0-.125-.124 1.507 1.507 0 0 1-.124-.1l-.05-.1a.147.147 0 0 1-.026-.1.072.072 0 0 0-.024-.05.216.216 0 0 1-.075-.15v-.274l.075-.075a.374.374 0 0 1 .1-.075.765.765 0 0 1 .136-.087c.076-.042.113-.071.113-.088v-.224l-.05-.075-.1-.075-.075-.125-.075-.05h-.324a.071.071 0 0 1-.05-.024l-.05-.05h-.175a.235.235 0 0 1-.124.037.496.496 0 0 0-.15.037h-.275a.102.102 0 0 1-.075-.024h-.05l-.049-.05a.071.071 0 0 1-.05-.025.07.07 0 0 1-.05-.025h-.05a1.304 1.304 0 0 1-.162.062c-.075.025-.113.046-.113.062a.887.887 0 0 0-.187.038 1.12 1.12 0 0 1-.162.037.071.071 0 0 1-.05.025h-.1a.071.071 0 0 1-.05-.025.736.736 0 0 1-.174-.037l-.086-.024-.089-.014a2.852 2.852 0 0 1-.174-.1.554.554 0 0 0-.15-.074.545.545 0 0 1-.113-.025.591.591 0 0 0-.112-.025 2.287 2.287 0 0 0-.137-.112c-.075-.059-.112-.096-.112-.113a.237.237 0 0 1-.125-.05.264.264 0 0 0-.1-.05.219.219 0 0 0-.113-.037.208.208 0 0 1-.112-.038.503.503 0 0 1-.15-.087 1.587 1.587 0 0 1-.15-.112.631.631 0 0 0-.174-.075h-.274a.075.075 0 0 0-.05-.025l-.025-.025c-.117 0-.175-.033-.175-.1l-.574-.574a.612.612 0 0 1-.162-.087 1.318 1.318 0 0 1-.162-.112l-.125-.1a.356.356 0 0 1-.075-.125 1.008 1.008 0 0 1-.174-.137 1.047 1.047 0 0 0-.176-.137l-.05-.05a.07.07 0 0 1-.024-.05.07.07 0 0 1-.025-.05.298.298 0 0 0-.025-.088.297.297 0 0 1-.025-.112.575.575 0 0 1-.15-.212 15.184 15.184 0 0 1-.412-.836 8.093 8.093 0 0 0-.112-.25 1.59 1.59 0 0 0-.025-.2 1.57 1.57 0 0 1-.025-.199 3.95 3.95 0 0 0-.025-.275 3.549 3.549 0 0 1-.025-.274c-.017 0-.034-.029-.05-.087a.547.547 0 0 1-.025-.138v-.449c0-.033-.008-.133-.025-.3l-.009-.091a3.072 3.072 0 0 1-.015-.208v-.474a.68.68 0 0 1 .05-.187.583.583 0 0 1 .074-.162.402.402 0 0 1 .025-.125.422.422 0 0 0 .025-.1v-.649c.01-.088.026-.176.05-.262l.03-.13.02-.132c.005-.05.013-.1.025-.15.011-.049.02-.099.025-.15a.498.498 0 0 0 .037-.15c.001-.043.014-.087.038-.124 0-.033.003-.116.012-.25 0-.084.013-.168.037-.25l.05-.099v-.05l.026-.05a.072.072 0 0 1 .024-.05c.036-.04.07-.081.1-.124a.366.366 0 0 0 .075-.125.278.278 0 0 1 .025-.087.29.29 0 0 0 .025-.088.558.558 0 0 0 .1-.162c.033-.075.058-.129.075-.162l.05-.075.025-.075.025-.025c.071-.118.13-.244.175-.374.016-.033.04-.096.074-.188.033-.09.067-.145.1-.162.017-.033.058-.104.125-.212.043-.075.093-.146.15-.212a.796.796 0 0 1 .112-.187c.042-.065.088-.127.137-.187a3.53 3.53 0 0 1 .125-.213c.037-.065.079-.127.125-.187a.189.189 0 0 1 .05-.087.194.194 0 0 0 .05-.088c.016-.016.053-.062.111-.137.059-.075.096-.112.113-.112.053-.061.1-.128.137-.2.058-.1.096-.166.113-.2l.05-.05a.072.072 0 0 0 .024-.05.67.67 0 0 0 .016-.016l.097-.108c.058-.066.116-.137.174-.212.059-.075.113-.145.163-.212.037-.047.07-.097.1-.15l.074-.1.175-.174c.05-.05.083-.075.1-.075a.412.412 0 0 1 .112-.063c.068-.03.135-.063.2-.1.075-.04.145-.078.212-.112a.588.588 0 0 0 .125-.075l.2-.15a.558.558 0 0 1 .112-.087c.041-.025.062-.045.062-.062a.735.735 0 0 0 .163-.063 9.13 9.13 0 0 0 .287-.137l.448-.224.15-.1.325-.275a.303.303 0 0 0 .1-.037c.05-.025.074-.046.074-.063a.12.12 0 0 0 .063-.025.915.915 0 0 1 .087-.05l.075-.05c.033 0 .129-.003.287-.012a7.71 7.71 0 0 1 .387-.012zm73.524-.149.024.025h.078a.155.155 0 0 0 .086.025l.8.218.045.07.013.006c.042 0 .076.034.076.076a.18.18 0 0 1 .02.078v.374a.51.51 0 0 0 .027.128c.011.031.02.064.024.097v.266l-.173.516-.002.016c0 .03-.008.106-.025.231a2.602 2.602 0 0 0-.025.244.962.962 0 0 1-.072.232 3.773 3.773 0 0 1-.095.239c-.02.026-.033.075-.033.202h-.025v.107a8.62 8.62 0 0 1-.012.265c-.009.148-.017.308-.025.48v.014l-.025.48c-.009.15-.013.25-.012.29l-.075.311a.966.966 0 0 1-.072.232c-.035.082-.061.167-.077.255a.984.984 0 0 0-.05.243 2.492 2.492 0 0 0-.026.243 1.07 1.07 0 0 1-.024.165c-.014.06-.023.123-.026.185a.427.427 0 0 1-.023.084.464.464 0 0 0-.027.14.182.182 0 0 1-.03.062.24.24 0 0 0-.045.113c0 .06-.007.193-.025.446a9.76 9.76 0 0 0-.025.428c-.002.115-.01.23-.024.344a3.64 3.64 0 0 0-.025.278.603.603 0 0 1-.046.118.587.587 0 0 1-.064.123l-.015.014v.021a.513.513 0 0 1-.047.156.582.582 0 0 0-.052.182l-.126.536v1.123a2.09 2.09 0 0 1-.048.263 1.49 1.49 0 0 0-.052.286c0 .03-.008.111-.024.243a3.03 3.03 0 0 0-.026.256c0 .001-.001.006-.01.014l-.065.065v.02a.933.933 0 0 1-.047.198.83.83 0 0 0-.053.202.237.237 0 0 1-.02.068.41.41 0 0 0-.029.094.812.812 0 0 0-.048.15.64.64 0 0 0-.027.137v.424c0 .03-.008.11-.025.243-.011.091-.025.209-.025.256 0 .01-.003.019-.007.027a.193.193 0 0 0-.017.08.213.213 0 0 0-.026.118c0 .032-.01.146-.025.307-.017.18-.025.3-.025.367v.225c.008.078.02.156.038.233.026.134.046.243.062.316.002.048.01.095.027.14.011.027.019.056.023.085.008.063.04.12.09.16a.596.596 0 0 1 .085.114c0 .033.015.064.04.085l.039.04h.021a.12.12 0 0 1 .07.028.882.882 0 0 1 .07.058l.015.014h.594a.159.159 0 0 0 .094-.026.142.142 0 0 0 .052-.016.066.066 0 0 1 .029-.007l.213-.002.585.126a.72.72 0 0 1 .19.086l.014.014h.021l.024.002c0 .024.007.048.018.07a.061.061 0 0 1 .007.027v.025l.024.06-.006.017a.163.163 0 0 0-.018.07.144.144 0 0 1-.027.047.652.652 0 0 1-.058.07.396.396 0 0 1-.087.052.23.23 0 0 1-.102.032h-.02l-.016.015a.256.256 0 0 1-.188.06l-.09.002a2.585 2.585 0 0 0-.344-.04.804.804 0 0 1-.242-.031l-.023-.006c-.02 0-.071-.002-.182-.012a3.255 3.255 0 0 0-.167-.013c-.055 0-.142-.004-.246-.012a44.078 44.078 0 0 0-.8-.05 6.097 6.097 0 0 0-.277-.013.343.343 0 0 1-.084-.022.465.465 0 0 0-.14-.027h-.05a.055.055 0 0 1-.03-.008.182.182 0 0 0-.15-.002.135.135 0 0 1-.045.01c-.104.013-.205.039-.303.077-.198.063-.24.072-.246.072h-.02l-.015.015a.063.063 0 0 1-.04.01h-.1a.533.533 0 0 1-.077-.01.53.53 0 0 0-.098-.015.964.964 0 0 1-.105-.011 1.02 1.02 0 0 0-.144-.014h-2.503l-.032-.009-.014-.015h-.076l-.05-.05h-.02a.034.034 0 0 1-.014-.01l-.06-.033a.126.126 0 0 0-.04-.092l-.01-.01v-.017l.02-.04.005-.022c0-.032.004-.046.003-.05a.241.241 0 0 0 .11-.043.706.706 0 0 0 .08-.056c.03 0 .056-.01.075-.026a.147.147 0 0 0 .08-.03c.091-.018.184-.029.277-.031a8.14 8.14 0 0 1 .272-.012h.549l.022-.006c.094-.031.19-.055.287-.07a2.26 2.26 0 0 0 .376-.1.123.123 0 0 0 .075-.04l.19-.16v-.025a.063.063 0 0 1 .01-.04l.014-.014v-.059l.02-.038.005-.023a.796.796 0 0 1 .024-.127.851.851 0 0 0 .026-.148.158.158 0 0 1 .02-.052l.05-.1.005-.02a.554.554 0 0 1 .046-.12.416.416 0 0 0 .054-.157.613.613 0 0 1 .024-.138c.016-.066.022-.098.025-.118a.863.863 0 0 0 .073-.19.932.932 0 0 0 .053-.204.785.785 0 0 1 .023-.126.92.92 0 0 0 .026-.173c0-.052.01-.065.01-.065l.015-.014v-.02a.113.113 0 0 1 .007-.052.16.16 0 0 0 .019-.073c0-.033.003-.107.012-.222l.025-.375v-.022c.009-.124.016-.241.025-.351a4.72 4.72 0 0 0 .012-.228c.004-.064.012-.128.024-.191a.727.727 0 0 1 .046-.186l.005-.023c.005-.051.013-.102.024-.152.018-.1.023-.14.025-.16a.927.927 0 0 0 .05-.163 1.13 1.13 0 0 0 .025-.14l.046-.138.098-.22c.04-.064.074-.13.102-.199l.04-.041-.066-.132-.01-.013a1.437 1.437 0 0 0-.221-.158.893.893 0 0 1-.138-.094l-.015-.023a.247.247 0 0 0-.16-.09h-.29l-.096.065a.064.064 0 0 1-.039.01h-.025a.463.463 0 0 0-.14.028.362.362 0 0 1-.084.022h-.174a.865.865 0 0 1-.146-.047.582.582 0 0 1-.143-.062l-.015-.015h-.196l-.023.005a.876.876 0 0 1-.221.045c-.076.012-.153.02-.23.024h-1.199a.595.595 0 0 0-.208.067.69.69 0 0 0-.202.123l-.1.1-.01.013a49.96 49.96 0 0 0-.187.388l-.183.379c-.048.055-.09.114-.127.178a1.448 1.448 0 0 1-.087.135.776.776 0 0 0-.154.13l-.617.617-.062.042a.13.13 0 0 0-.1.06.46.46 0 0 1-.044.055l-.035.062-.005.048a.404.404 0 0 1-.023.084.705.705 0 0 0-.026.094 1.677 1.677 0 0 0-.172.272 1.381 1.381 0 0 0-.149.25l-.123.249-.122.219a.7.7 0 0 0-.12.264.656.656 0 0 1-.1.23l-.134.288-.005.022a.55.55 0 0 1-.023.098.518.518 0 0 0-.027.126v.225l.053.166.137.194.125.125c.017.019.04.032.064.038a.106.106 0 0 0 .059.026h.002l.884.175c.012.004.024.01.035.017.02.015.041.025.065.03l.06.072a.413.413 0 0 0 .09.086c.003.023.01.044.023.063v.052l.025.025v.126a.27.27 0 0 1-.041.075 1.154 1.154 0 0 0-.078.13l-.021.042c-.034.007-.087.011-.162.017a2.55 2.55 0 0 1-.22.012l-.022.005c-.08.026-.163.041-.247.046a3.483 3.483 0 0 1-.256.024h-.223a.197.197 0 0 1-.063-.03.222.222 0 0 0-.113-.045 7.35 7.35 0 0 1-.234-.012 6.043 6.043 0 0 0-.34-.013h-.1a.512.512 0 0 0-.097.014.417.417 0 0 1-.078.011h-.05v.051c0 .012 0 .024-.05.024l-.02.002-.014.012c0 .001-.013.011-.065.011a.22.22 0 0 0-.117.025h-1.203l-.014.015a.272.272 0 0 1-.09.037.53.53 0 0 1-.11.024 5.261 5.261 0 0 1-.297.062 2.784 2.784 0 0 1-.216.037 6.75 6.75 0 0 0-.605.05 6.729 6.729 0 0 1-.643.05h-.35a.127.127 0 0 1-.094-.04l-.175-.125-.006-.009h-.016a.234.234 0 0 1-.058-.048c-.037-.037-.046-.053-.048-.053v-.049h-.05v-.021l-.016-.015c-.009-.01-.01-.014-.01-.014v-.35c0-.048.014-.048.025-.048l.05.007v-.05a.504.504 0 0 1 .077-.113.455.455 0 0 1 .12-.124l.028-.01v-.03a.36.36 0 0 1 .054-.088c.052-.074.075-.1.074-.1l.074-.05.018-.005v-.028a.105.105 0 0 1 .054-.008h.224a.39.39 0 0 1 .085.023.412.412 0 0 0 .115.027h.1c.066-.003.131-.012.196-.025.05-.011.102-.02.153-.025h.4a.49.49 0 0 0 .126-.027.371.371 0 0 0 .121-.051c.086-.033.169-.07.25-.114.151-.076.264-.129.345-.16l.134-.056a.475.475 0 0 1 .072-.041h.031l.014-.029a.362.362 0 0 1 .11-.106 1 1 0 0 1 .142-.095l.514-.51.448-.498.064-.064v-.022a.063.063 0 0 1 .01-.04l.015-.014v-.12a.114.114 0 0 1 .007-.052.172.172 0 0 0 .018-.06l.07-.14.005-.072s.001-.006.01-.016l.01-.012a.349.349 0 0 1 .065-.087l.088-.087a.378.378 0 0 0 .09-.042.223.223 0 0 0 .075-.064.258.258 0 0 0 .072-.057l.05-.05.186-.517.003-.017a.039.039 0 0 1 .01-.014l.015-.014v-.022c0-.001.002-.006.01-.015.064-.068.124-.14.18-.216a.702.702 0 0 1 .157-.173l.015-.008.007-.015a.625.625 0 0 1 .081-.115.342.342 0 0 0 .07-.11c.072-.105.13-.22.174-.339.04-.115.097-.224.168-.323l.475-.552.395-.495c.065-.072.125-.15.18-.23a2.29 2.29 0 0 1 .176-.226c.06-.082.125-.159.195-.231.099-.108.207-.216.321-.322.117-.108.226-.213.326-.313l.224-.225.124-.219a.157.157 0 0 0 .053-.108.153.153 0 0 1 .023-.071l.015-.015v-.072a.038.038 0 0 1 .01-.014c.018-.017.043-.048.08-.091a.25.25 0 0 0 .059-.107l.168-.408a.216.216 0 0 0 .056-.13c.02-.018.063-.055.158-.134.102-.085.153-.142.165-.19.058-.07.11-.144.157-.22.07-.11.12-.192.14-.23l.047-.094.043-.068a.504.504 0 0 0 .087-.18c.032-.086.054-.144.07-.176l.399-.425.043-.068a.217.217 0 0 0 .063-.09c.048-.065.113-.148.192-.251a2.23 2.23 0 0 0 .15-.212l.643-.644a.939.939 0 0 0 .156-.181.762.762 0 0 0 .09-.157c.045-.086.087-.179.128-.278.04-.099.083-.194.123-.285a.775.775 0 0 1 .078-.148l.01-.012c.043-.069.095-.131.153-.188.063-.062.119-.13.167-.205a.578.578 0 0 0 .077-.13l.124-.223c.051-.085.094-.161.127-.228a.565.565 0 0 1 .065-.112.682.682 0 0 0 .097-.148.517.517 0 0 0 .066-.166c.059-.085.108-.176.146-.271l.146-.269c.021-.023.059-.074.113-.15.04-.06.084-.118.133-.17l.447-.498.26-.259h.183zm-60.774.348.225.125h.424a.197.197 0 0 0 .125-.025l.1-.05h1.048l.225.075a.697.697 0 0 1 .187.05c.06.026.122.043.187.05h.35a.194.194 0 0 0 .124-.025c.03 0 .06-.003.087-.012a.282.282 0 0 1 .088-.013.749.749 0 0 0 .125-.025.69.69 0 0 1 .15-.025h1.098a91.272 91.272 0 0 1 .786-.062c.09-.008.153-.013.187-.013h.549l.1.05c.027.013.052.03.074.05.013.015.031.024.05.025a.194.194 0 0 1 .088.05c.041.034.062.059.062.075a.154.154 0 0 1 .075.037c.033.025.05.047.05.063.033 0 .05.033.05.1v.2a.56.56 0 0 1-.012.087.173.173 0 0 1-.038.087.145.145 0 0 1-.05.1l-.075.075a.072.072 0 0 1-.05.025l-.05.025c-.033 0-.137.008-.312.024a4.596 4.596 0 0 1-.336.026h-.7c-.066.016-.207.058-.423.124a2.056 2.056 0 0 0-.4.15l-.075.075c-.017 0-.033.046-.05.137a.824.824 0 0 1-.05.187.22.22 0 0 0-.037.112.217.217 0 0 1-.037.113c0 .017-.004.075-.013.175-.008.1-.013.166-.013.2a.942.942 0 0 0-.087.236 2.264 2.264 0 0 1-.087.262.758.758 0 0 1-.025.125l-.015.062-.01.063a.299.299 0 0 1-.025.087.297.297 0 0 0-.025.088.306.306 0 0 0-.074.224c0 .017-.005.059-.013.125-.007.05-.012.1-.013.15l-.05.075a.1.1 0 0 0-.024.075.19.19 0 0 1-.05.087.19.19 0 0 0-.05.087l-.05.05a.073.073 0 0 0-.025.05c0 .017-.005.07-.013.162a.34.34 0 0 1-.037.162.072.072 0 0 0-.025.05c0 .03-.004.06-.013.088a.272.272 0 0 0-.012.087.1.1 0 0 0-.025.075.102.102 0 0 1-.025.075.188.188 0 0 1-.05.087c-.034.042-.058.071-.075.087a.214.214 0 0 1-.012.063.188.188 0 0 0-.013.062.407.407 0 0 0-.062.125c-.025.067-.05.137-.075.212a1.584 1.584 0 0 1-.087.212l-.025.075a.335.335 0 0 1-.013.075.328.328 0 0 0-.012.075c-.017 0-.034.02-.05.062a.298.298 0 0 0-.025.088c0 .033-.004.1-.012.2a.39.39 0 0 1-.038.174.192.192 0 0 1-.025.075.193.193 0 0 0-.025.075l-.175.349c.001.05.006.1.013.15a2.256 2.256 0 0 1 0 .462 1.467 1.467 0 0 0-.013.162.744.744 0 0 1-.012.1.194.194 0 0 1-.037.1.677.677 0 0 1-.075.162.682.682 0 0 0-.075.162.306.306 0 0 1-.075.225c0 .033-.004.091-.013.174l-.007.075a1.33 1.33 0 0 0-.005.1v.3l-.075.349a.402.402 0 0 0-.062.125.484.484 0 0 0-.038.15.676.676 0 0 0-.062.224c-.018.082-.03.166-.038.25-.025.06-.046.123-.062.187a.478.478 0 0 1-.063.162.771.771 0 0 1-.024.125.809.809 0 0 1-.05.15c0 .033-.009.128-.025.286a4.22 4.22 0 0 0-.025.287c0 .034-.017.154-.05.362s-.05.33-.05.362v.1c.003.05.011.1.025.15.012.04.02.082.025.124.025.057.046.115.062.175.017.049.03.099.038.15v1.198c.01.052.027.102.05.15.033.083.058.15.075.2l.074.174c.029.053.062.103.1.15a5.6 5.6 0 0 1 .162.174c.046.058.101.109.163.15 0 .017.033.025.1.025a.145.145 0 0 1 .1.025c.066.012.13.038.186.075.092.05.138.083.138.1.035 0 .069.009.1.025a.19.19 0 0 0 .074.025c.017 0 .075.008.175.025.066.012.133.02.2.025.094.02.19.033.287.037.124.009.203.013.237.013h.749c.067-.012.134-.03.2-.05a1.66 1.66 0 0 0 .274-.1c.049-.024.099-.044.15-.063a.476.476 0 0 1 .15-.037l.873-.45.224-.224a3.59 3.59 0 0 0 .3-.324c.016 0 .07-.058.162-.175.091-.116.154-.2.187-.25.07-.086.133-.177.187-.274.055-.097.117-.189.188-.275.1-.1.15-.174.15-.224l.399-.45a.072.072 0 0 1 .025-.05l.025-.05a.381.381 0 0 1 .05-.15.572.572 0 0 1 .074-.124v-.075a.1.1 0 0 1 .025-.075.812.812 0 0 0 .05-.15.69.69 0 0 0 .025-.15c.034-.1.059-.205.075-.311.015-.117.049-.23.1-.337a.897.897 0 0 1 .037-.187c.016-.064.037-.127.063-.187 0-.035.008-.07.025-.1a.196.196 0 0 0 .024-.075.33.33 0 0 1 .05-.112c.033-.058.059-.088.075-.088l.474-1.971.225-.674c0-.016.009-.1.025-.25l.009-.082c.01-.102.016-.165.016-.192a.672.672 0 0 1 .05-.15c.033-.083.058-.125.075-.125a.524.524 0 0 1 .012-.087.171.171 0 0 1 .038-.087c.033-.133.083-.329.15-.587.028-.14.07-.279.124-.412v-.1c0-.07.005-.141.013-.212l.009-.106.003-.106v-.125a.428.428 0 0 1 .05-.124c.033-.067.066-.138.1-.212a5.51 5.51 0 0 1 .1-.213.38.38 0 0 0 .05-.15c-.001-.05-.006-.1-.013-.149a1.572 1.572 0 0 1-.012-.2c-.001-.03.003-.059.012-.087a.201.201 0 0 0 .013-.062c.004-.076.012-.15.025-.225.012-.075.02-.15.025-.225v-1.048l-.013-.225a.874.874 0 0 0-.037-.25.142.142 0 0 1-.025-.099.073.073 0 0 0-.025-.05c0-.033-.025-.058-.075-.075a.263.263 0 0 1-.1-.05.626.626 0 0 1-.062-.075.165.165 0 0 1-.038-.1.103.103 0 0 0-.024-.074c-.017 0-.025-.016-.025-.05l-.4-.4c0-.016-.037-.04-.112-.074a.541.541 0 0 1-.162-.1.072.072 0 0 1-.05-.025.075.075 0 0 0-.05-.025h-.1l-.075.025a.073.073 0 0 1-.05.025 3.984 3.984 0 0 0-.3.137.99.99 0 0 1-.199.087h-.1a.278.278 0 0 1-.087-.024l-.043-.016-.045-.01-.074-.05a.185.185 0 0 1-.025-.074v-.175l.05-.075.05-.125a.658.658 0 0 1 .062-.1.147.147 0 0 0 .037-.074h.075a.072.072 0 0 0 .05-.025h.075a.11.11 0 0 0 .05-.013.111.111 0 0 1 .05-.012c.018 0 .035.005.05.012a.107.107 0 0 0 .05.013h.05a.437.437 0 0 1 .174.075.43.43 0 0 0 .175.074h.125a.4.4 0 0 0 .162-.062.498.498 0 0 1 .137-.062h.6a.94.94 0 0 0 .111-.013c.038-.006.075-.01.113-.012.107-.023.215-.04.324-.05.15-.017.241-.025.275-.025a.104.104 0 0 1 .075.025c.033.033.058.05.075.05l.025.025h.1c.014.012.023.03.024.05l.025.025h.225a.286.286 0 0 1 .112-.05.586.586 0 0 1 .113-.025c.016 0 .103-.004.261-.013.158-.008.254-.012.287-.012a.639.639 0 0 1 .176-.075.811.811 0 0 1 .199-.05.27.27 0 0 0 .087-.012.284.284 0 0 1 .088-.013.072.072 0 0 0 .05-.025h.1l.024.025h.05c.02.018.048.027.075.025l.138.075c.058.033.087.058.087.075.003.03.012.06.025.087a.297.297 0 0 1 .024.087v.1l.025.025a.114.114 0 0 1-.012.05l-.01.024-.003.026v.05a.073.073 0 0 1-.024.05.07.07 0 0 0-.025.05c0 .017-.021.037-.063.062a.485.485 0 0 0-.087.063l-.05.025a.071.071 0 0 1-.05.024.58.58 0 0 0-.175.05.559.559 0 0 1-.174.05l-.025.025-.075.025-.2.1a.193.193 0 0 1-.075.025h-.499a.423.423 0 0 0-.1.025.407.407 0 0 1-.125.025l-.05.05-.024.05a.072.072 0 0 0-.025.05c0 .066-.009.191-.025.374a5.02 5.02 0 0 0-.025.35.292.292 0 0 1-.025.087.278.278 0 0 0-.025.087l-.075.025a.489.489 0 0 1-.175.137 3.79 3.79 0 0 1-.2.113l-.05.05a.566.566 0 0 1-.124.224v.2l.05.05h.075c.029.02.064.03.1.025l.024.025h.15c.022.039.052.073.088.1a.137.137 0 0 1 .062.1v.199a.101.101 0 0 0-.025.075v.1l-.175.424c-.016.05-.046.129-.087.237-.042.108-.08.217-.112.324a3.92 3.92 0 0 1-.1.287.712.712 0 0 0-.05.15 7.558 7.558 0 0 1-.1.5c-.03.092-.051.189-.062.286-.017.095-.03.191-.038.287a6.037 6.037 0 0 0-.124.287 1.25 1.25 0 0 0-.1.287v.525a.343.343 0 0 1-.05.224l-.175.225a.073.073 0 0 0-.025.05l-.025.05c0 .1-.012.291-.037.574a7.985 7.985 0 0 0-.038.574.146.146 0 0 0-.025.1v.124a.103.103 0 0 1-.024.075.07.07 0 0 0-.025.05l-.026.025a.474.474 0 0 1-.037.15.424.424 0 0 1-.062.125 1.124 1.124 0 0 1-.05.224l-.03.111-.02.114-.125.274c-.034.1-.087.267-.162.5l-.043.13a6.577 6.577 0 0 1-.12.344 1.013 1.013 0 0 1-.037.2 1.176 1.176 0 0 1-.062.199l-.075.175a.378.378 0 0 0-.062.137.462.462 0 0 1-.038.112.478.478 0 0 1-.037.15.404.404 0 0 1-.063.125l-.174.374c0 .034-.009.117-.025.25a2.851 2.851 0 0 0-.025.25.415.415 0 0 1-.025.124.394.394 0 0 0-.025.1c0 .016-.017.042-.05.075a.143.143 0 0 0-.05.1.593.593 0 0 0-.15.15 2.617 2.617 0 0 1-.124.15l-.25.249-.075.05-.05.05a.437.437 0 0 0-.125.05.432.432 0 0 1-.124.05l-.075.074a.387.387 0 0 0-.075.1l-.025.05c-.017 0-.034.017-.05.05l-.075.1a.305.305 0 0 1-.087.1c-.03.023-.06.048-.088.074-.033.034-.108.1-.224.2-.07.065-.145.123-.225.175a.276.276 0 0 1-.075.05.38.38 0 0 0-.1.074l-.124.1a.31.31 0 0 1-.125.05 5.767 5.767 0 0 1-.187.088 4.112 4.112 0 0 0-.275.137c-.092.05-.179.096-.262.137a.714.714 0 0 0-.15.087h-.174a.102.102 0 0 1-.075-.025.103.103 0 0 1-.075-.025h-.1l-.025-.025-.075.025h-.05a.544.544 0 0 0-.15.075.99.99 0 0 0-.15.1.496.496 0 0 0-.086.013.538.538 0 0 1-.088.012.856.856 0 0 1-.2.05c-.1.016-.157.025-.174.025h-.924l-.1-.05a.191.191 0 0 0-.074-.025 1.906 1.906 0 0 1-.25-.038 1.24 1.24 0 0 1-.25-.062c0-.017-.033-.037-.1-.062a.541.541 0 0 0-.124-.038c0-.016-.021-.029-.062-.037a.511.511 0 0 0-.087-.013.554.554 0 0 1-.113-.024.595.595 0 0 0-.112-.025.369.369 0 0 0-.187-.075.75.75 0 0 1-.188-.05.24.24 0 0 1-.175-.075.293.293 0 0 1-.124-.038c-.05-.024-.075-.045-.075-.062-.034 0-.096-.041-.187-.125a6.082 6.082 0 0 1-.213-.2l-.548-.498-.275-.275c-.017 0-.042-.041-.075-.125a.539.539 0 0 0-.1-.174.48.48 0 0 0-.037-.15.438.438 0 0 0-.062-.125l-.026-.025-.025-.05-.05-.05-.174-.224-.1-.15v-.225a.54.54 0 0 1 .088-.2c.058-.1.103-.182.137-.25l.05-.024.05-.05a.073.073 0 0 1 .05-.025.217.217 0 0 1 .112-.037 1.11 1.11 0 0 1 .112-.013c.016-.016.046-.04.088-.075a.136.136 0 0 0 .062-.1l.449-.823v-.075a.11.11 0 0 1 .013-.05.115.115 0 0 0 .012-.05.616.616 0 0 0-.012-.112.51.51 0 0 1-.013-.087l-.15-.15a.623.623 0 0 1-.1-.063.696.696 0 0 0-.1-.062c0-.033-.033-.05-.099-.05h-.05l-.05-.025a.112.112 0 0 0-.05.013.105.105 0 0 1-.05.012 2.731 2.731 0 0 1-.112.187 2.366 2.366 0 0 0-.113.188l-.1.2a.146.146 0 0 0-.024.099l-.025.025a.108.108 0 0 1-.013.05.108.108 0 0 0-.012.05v.05l.025.05.1.15c.014.012.023.03.025.05 0 .019.01.037.024.05v.15a.124.124 0 0 1-.024.061.118.118 0 0 0-.025.063.309.309 0 0 0-.1.087c-.033.042-.059.062-.075.062h-.1a.075.075 0 0 0-.025-.05l-.05-.05a.758.758 0 0 0-.012-.1.759.759 0 0 1-.013-.124v-.1a.498.498 0 0 1 .013-.087.565.565 0 0 0 .012-.112v-.026c0-.016-.02-.045-.062-.087-.042-.041-.071-.062-.087-.062a.124.124 0 0 0-.025-.063.12.12 0 0 1-.026-.062v-.324a.406.406 0 0 1 .026-.1.418.418 0 0 0 .025-.125.072.072 0 0 0 .025-.05.07.07 0 0 1 .024-.05c.045-.052.086-.106.125-.162a.584.584 0 0 0 .1-.162.188.188 0 0 1 .025-.075.223.223 0 0 0 .025-.1c.005-.054.014-.109.025-.162a.394.394 0 0 1 .05-.162.34.34 0 0 1 .05-.225.822.822 0 0 1 .062-.212 3 3 0 0 1 .088-.212l.174-.325a.165.165 0 0 1 .013-.075.114.114 0 0 0 .012-.05.073.073 0 0 1 .025-.05v-.449l.05-.1.075-.1c0-.033.004-.066.012-.099a.335.335 0 0 0 .013-.075c.026-.098.038-.198.037-.3a.777.777 0 0 1 .038-.274.563.563 0 0 1 .05-.175.583.583 0 0 0 .05-.174.345.345 0 0 0 .037-.163 3.33 3.33 0 0 0 .012-.162.942.942 0 0 0 .038-.175c.008-.066.02-.1.037-.1a.66.66 0 0 1 .075-.162.51.51 0 0 0 .075-.187c.016 0 .029-.02.038-.062a.51.51 0 0 0 .012-.087.144.144 0 0 1 .025-.1c0-.03.003-.06.012-.088a.203.203 0 0 0 .013-.062.773.773 0 0 0 .05-.175 1.092 1.092 0 0 0 .028-.255l.01-.144a.46.46 0 0 1 .037-.2c.023-.115.056-.228.1-.337.066-.19.107-.303.124-.337.012-.06.028-.118.05-.174a.82.82 0 0 0 .05-.2.173.173 0 0 1 .012-.075.107.107 0 0 0 .013-.05.07.07 0 0 1 .025-.05c.016 0 .054-.045.112-.137.034-.057.071-.11.113-.162a.085.085 0 0 0 .025-.062c-.001-.024.008-.046.024-.063v-.025l.025-.05a.101.101 0 0 1 .026-.075v-.15l.024-.249a2.948 2.948 0 0 0 .05-.374.286.286 0 0 1 .026-.088.29.29 0 0 0 .024-.087.543.543 0 0 1 .025-.112.575.575 0 0 0 .025-.113.448.448 0 0 0 .063-.15.731.731 0 0 0 .037-.174v-.1a.164.164 0 0 1 .013-.075.114.114 0 0 0 .012-.05.22.22 0 0 0-.012-.062.254.254 0 0 1-.013-.087v-.1a.2.2 0 0 0-.025-.075.216.216 0 0 1-.025-.1l-.075-.125a.392.392 0 0 1-.025-.1l-.05-.05-.125-.05a.256.256 0 0 0-.1-.05h-.05c-.083 0-.2.005-.349.013a.99.99 0 0 0-.274.038l-.15.05h-.424a2.244 2.244 0 0 1-.262-.038 2.414 2.414 0 0 1-.287-.062.598.598 0 0 1-.175-.075c-.05 0-.075-.017-.075-.05v-.25a.778.778 0 0 0 .05-.15.805.805 0 0 0 .025-.124v-.025l.05-.1.085-.085a.205.205 0 0 1 .09-.04c.033 0 .095-.004.187-.012a.582.582 0 0 0 .187-.038h.324zm-45.42-.05c.033 0 .107.005.224.013a.757.757 0 0 1 .224.037c.03.02.065.03.1.025.038.022.082.031.125.025.013.015.031.024.05.025h.175a.071.071 0 0 0 .05-.025.804.804 0 0 0 .2-.05.826.826 0 0 1 .2-.05h.099l.032.001.113.007.08.005a.47.47 0 0 1 .2.037h.1a.274.274 0 0 1 .136-.037 2.06 2.06 0 0 1 .138-.013h.574a.82.82 0 0 1 .125.013l.121.022.078.015.05.05h.075l.05.075a.1.1 0 0 0 .025.075v.05l.025.025v.1a.106.106 0 0 1-.013.05.173.173 0 0 0-.012.074.144.144 0 0 0-.025.1.803.803 0 0 1-.025.125c-.018.07-.03.14-.037.212a1.34 1.34 0 0 1-.038.2.542.542 0 0 0-.025.112l-.01.057-.015.055a.59.59 0 0 0-.025.113c0 .033-.009.129-.025.287l-.009.087c-.01.107-.016.173-.016.2a.764.764 0 0 1-.025.124.672.672 0 0 0-.025.15.102.102 0 0 1-.025.075.074.074 0 0 0-.025.05l-.025.025a.929.929 0 0 1-.006.084l-.018.153a3.3 3.3 0 0 0-.026.212.122.122 0 0 1-.025.063.157.157 0 0 0-.024.087.576.576 0 0 1-.05.137.594.594 0 0 1-.075.137.224.224 0 0 1-.025.1.188.188 0 0 0-.025.075c0 .034-.017.162-.05.387l-.015.104c-.023.161-.035.255-.035.283-.017.033-.05.117-.1.25a1.09 1.09 0 0 0-.075.25 2.129 2.129 0 0 0 0 .648 1.149 1.149 0 0 0-.074.087.137.137 0 0 1-.1.063l-.025.025h-.1l-.025-.025c-.017 0-.042-.021-.075-.063a.19.19 0 0 1-.05-.087 3.775 3.775 0 0 1-.1-.6v-.632a9.062 9.062 0 0 0-.012-.216 2.635 2.635 0 0 0-.037-.324c0-.05-.005-.133-.013-.25a5.319 5.319 0 0 1-.013-.2c-.016 0-.046-.058-.087-.174a11.71 11.71 0 0 0-.112-.3.708.708 0 0 0-.038-.137.431.431 0 0 0-.062-.137c-.017 0-.025-.025-.025-.075a.1.1 0 0 0-.025-.075.737.737 0 0 1-.037-.224 4.105 4.105 0 0 1-.013-.225.125.125 0 0 0-.025-.062.117.117 0 0 1-.025-.063.497.497 0 0 1-.137-.137.43.43 0 0 1-.087-.137c-.017 0-.03-.025-.038-.075a.196.196 0 0 0-.038-.1.102.102 0 0 1-.024-.075.227.227 0 0 0-.025-.1l-.05-.1a.468.468 0 0 0-.088-.062.215.215 0 0 1-.087-.087l-.325-.15a1.2 1.2 0 0 0-.311-.037 1.17 1.17 0 0 1-.312-.038.396.396 0 0 1-.1-.025.43.43 0 0 0-.1-.025h-.699a.888.888 0 0 0-.174.063 1.38 1.38 0 0 0-.225.112.122.122 0 0 0-.062.025.122.122 0 0 1-.063.025.516.516 0 0 1-.087.062c-.042.025-.062.046-.062.063l-.125.075a.782.782 0 0 0-.1.124.732.732 0 0 1-.075.1 1.47 1.47 0 0 0-.125.3.845.845 0 0 1-.125.274 1.512 1.512 0 0 1-.037.187.535.535 0 0 1-.063.188.172.172 0 0 0-.037.087c-.008.042-.02.062-.037.062a.584.584 0 0 1-.063.187.764.764 0 0 1-.087.163.768.768 0 0 0-.037.237c0 .08-.014.16-.038.237a.512.512 0 0 1-.013.087.173.173 0 0 1-.037.087l-.025.1a.27.27 0 0 0-.037.138.548.548 0 0 1-.038.162c-.005.05-.013.1-.024.15a1.038 1.038 0 0 0-.026.174.642.642 0 0 0-.037.2c-.009.1-.012.166-.012.2-.017.033-.05.124-.1.274-.035.089-.06.18-.075.275a.366.366 0 0 0-.037.174 3.73 3.73 0 0 0-.013.175 1.304 1.304 0 0 1-.025.187c-.011.054-.02.108-.025.163l-.075.449a.194.194 0 0 1-.025.074.188.188 0 0 0-.025.075l-.024.025-.026.075-.05.075a.356.356 0 0 0-.112.175c-.03.078-.068.153-.112.224l-.05.05a.072.072 0 0 0-.025.05c0 .034-.004.104-.013.212a.7.7 0 0 1-.037.212.896.896 0 0 1-.05.163.827.827 0 0 0-.05.162v.674a.311.311 0 0 1-.025.112 1.752 1.752 0 0 1-.05.112.26.26 0 0 1-.05.1l-.05.125a.194.194 0 0 1-.05.087 1.37 1.37 0 0 1-.074.088l-.025.074a.102.102 0 0 0-.025.075v.974a.196.196 0 0 1-.025.074.227.227 0 0 0-.025.1.218.218 0 0 1-.012.063.187.187 0 0 0-.013.062c-.017 0-.038.017-.062.05-.025.034-.046.05-.063.05a.145.145 0 0 1-.1.025.102.102 0 0 1-.074.025h-.05l-.025.025-.025.05v.15c.004.075.012.15.025.224.016.117.024.183.024.2v.274a.574.574 0 0 1-.024.113.541.541 0 0 0-.025.112c0 .05-.004.191-.013.424 0 .143-.012.285-.038.425a1.576 1.576 0 0 1-.062.274l-.037.136-.025.139a4.172 4.172 0 0 1-.05.45 3.613 3.613 0 0 0-.05.473.2.2 0 0 1-.025.075l-.016.036-.009.039-.025.024-.025.076-.05.074a.346.346 0 0 0-.125.225l-.024.025v.075l.024.075.05.1.075.124.026.05.124.075c.032.012.066.02.1.025.06.028.123.053.187.075a.823.823 0 0 0 .162.05c.04.007.077.02.113.037l.055.023.057.015.025.025h.125a.074.074 0 0 0 .05-.025c.016 0 .062-.004.137-.013l.065-.007a.954.954 0 0 1 .072-.005c.068.008.136 0 .2-.025a.194.194 0 0 0 .124-.025h.525a.425.425 0 0 1 .1.025c.04.014.081.023.124.025l.025.025c.033.033.05.058.05.075l.075.074.05.075a.817.817 0 0 1 0 .4c0 .016-.038.05-.112.1a1.095 1.095 0 0 0-.163.124.2.2 0 0 0-.15.05.823.823 0 0 1-.162.05 1.03 1.03 0 0 1-.137.025h-.274a.561.561 0 0 0-.138-.075.542.542 0 0 0-.137-.05.777.777 0 0 0-.175-.05 1.04 1.04 0 0 0-.174-.025h-2.022c-.066 0-.17.004-.312.013a214.878 214.878 0 0 0-.86.05l-.163.009a2.05 2.05 0 0 1-.087.003c-.101.01-.201.027-.3.05a1.737 1.737 0 0 0-.3.075h-.124l-.15-.075a1.607 1.607 0 0 0-.225-.162 1.59 1.59 0 0 1-.224-.162h-.1a.51.51 0 0 0-.175.1l-.05.05a.073.073 0 0 0-.05.024.481.481 0 0 0-.15.038 1.716 1.716 0 0 0-.149.062.204.204 0 0 1-.15.05c-.075.004-.15.013-.224.025a.9.9 0 0 0-.225.05 1.017 1.017 0 0 0-.112.012 1.178 1.178 0 0 1-.113.013h-.299a.336.336 0 0 1-.112-.05l-.054-.03-.059-.02a.27.27 0 0 0-.137-.038 1.813 1.813 0 0 0-.137-.012l-.125-.075a87.922 87.922 0 0 0-.05-.1v-.224l.05-.1.2-.2c.06-.066.126-.124.2-.174l.1-.05c.065-.017.153-.038.262-.063.107-.025.161-.045.161-.062h.8a.102.102 0 0 1 .074.025c.033.033.058.05.075.05.05.003.1.011.15.025a.75.75 0 0 0 .124.025h.125l.425-.088c.199-.041.324-.07.374-.087a.12.12 0 0 0 .062-.025.122.122 0 0 1 .063-.025c0-.016.016-.037.05-.062.033-.025.05-.046.05-.063l.025-.025a.279.279 0 0 1 .05-.075c.005-.067.018-.134.037-.2.014-.067.035-.134.062-.199.017-.033.041-.087.075-.162a.542.542 0 0 1 .1-.162c0-.067.004-.212.012-.437 0-.146.013-.293.038-.437a.204.204 0 0 1 .05-.15l.075-.174a.432.432 0 0 0 .074-.175.419.419 0 0 0 .038-.187c.012-.103.037-.203.075-.3a.21.21 0 0 1 .087-.112.07.07 0 0 1 .025-.05l.1-.1a.071.071 0 0 0 .05-.024l.075-.05.075-.075v-.1l-.075-.15a.84.84 0 0 0-.088-.237.998.998 0 0 0-.137-.237.436.436 0 0 0-.012-.1.3.3 0 0 1-.013-.075.987.987 0 0 1 .062-.262c.025-.08.054-.16.088-.237l.175-.35a1.09 1.09 0 0 0 .087-.112.313.313 0 0 0 .062-.112c.05-.016.091-.075.125-.175a.072.072 0 0 1 .025-.05l.025-.05v-.623a.125.125 0 0 1 .025-.063.124.124 0 0 0 .025-.062l.125-.175a.307.307 0 0 1 .062-.112c.027-.04.056-.077.087-.112l.05-.1v-.225a.297.297 0 0 0-.025-.087.272.272 0 0 1-.025-.088.1.1 0 0 1-.024-.074v-.175a.1.1 0 0 1 .024-.075.073.073 0 0 0 .025-.05.103.103 0 0 1 .025-.075.508.508 0 0 1 .1-.15c.046-.054.088-.113.125-.174v-.474c.016 0 .025-.017.025-.05a.335.335 0 0 1 .025-.175.1.1 0 0 1 .025-.075v-.05l.025-.05a1.01 1.01 0 0 0 .037-.274c.008-.15.012-.241.012-.275.017-.033.042-.091.076-.174a.686.686 0 0 0 .05-.15 1.89 1.89 0 0 1 .024-.212c.013-.07.021-.141.025-.212a.278.278 0 0 1 .025-.088l.016-.043.01-.044.174-.375c0-.016.004-.07.012-.162.009-.091.013-.187.013-.287 0-.091.004-.183.012-.274.009-.083.013-.141.013-.175.03-.073.055-.148.074-.225.025-.073.042-.148.05-.224 0-.016.004-.066.013-.15a.572.572 0 0 1 .037-.175l.012-.036.032-.112.044-.164c.028-.093.05-.19.063-.286l.199-.375v-.524l-.05-.075-.15-.125a.187.187 0 0 1-.025-.074 1.195 1.195 0 0 1-.225-.15l-.024-.025a.146.146 0 0 1-.1-.025l-.1-.05h-.175a.582.582 0 0 0-.112.025 2.34 2.34 0 0 1-.5.062c-.19.009-.31.013-.361.013a.464.464 0 0 1-.087.062.217.217 0 0 1-.088.038.122.122 0 0 0-.062.024.12.12 0 0 1-.062.026l-.45.174a.071.071 0 0 1-.05.025l-.05.025a.475.475 0 0 1-.087.062c-.042.026-.062.046-.062.063l-.874.898c-.072.083-.138.171-.2.262-.06.092-.127.18-.199.262a.836.836 0 0 1-.112.15 3.876 3.876 0 0 1-.113.125l-.224.374c-.017.034-.046.088-.088.162a.81.81 0 0 1-.087.138c0 .017-.021.05-.062.1a.685.685 0 0 0-.088.124l-.1.1c-.033 0-.05.034-.05.1-.016.033-.05.121-.1.262-.034.084-.06.172-.074.262-.037.047-.07.097-.1.15l-.075.175a.769.769 0 0 1-.1.137c-.05.058-.083.096-.1.112 0 .067-.058.1-.174.1a.57.57 0 0 1-.225.125l-.075.025a.1.1 0 0 1-.074.025h-.3c-.083 0-.133-.058-.15-.175v-.15a.793.793 0 0 1 .025-.125.698.698 0 0 0 .026-.15c0-.016.007-.087.024-.211.017-.125.025-.196.025-.213l.125-.399a.428.428 0 0 0 .062-.137.7.7 0 0 0 .038-.137l.174-.5a.125.125 0 0 1 .025-.062.124.124 0 0 0 .026-.062.505.505 0 0 0 .062-.088c.025-.041.045-.062.062-.062 0-.016.033-.05.1-.1.043-.03.085-.064.125-.1a.286.286 0 0 1 .025-.087l.016-.043.009-.044v-.375a.848.848 0 0 1 .037-.187c.017-.053.03-.107.037-.162a.55.55 0 0 0 .063-.187.57.57 0 0 1 .062-.187.227.227 0 0 1 .038-.113c.025-.041.046-.079.062-.112a.416.416 0 0 0 .062-.1c.025-.05.047-.075.063-.075a.104.104 0 0 1 .025-.075c0-.017.004-.034.012-.05a.11.11 0 0 0 .013-.05.96.96 0 0 1 .05-.212c.02-.072.045-.143.075-.212v-.025a.07.07 0 0 1 .025-.05.101.101 0 0 1 .025-.075c0-.016.016-.04.05-.074l.1-.1.124-.05a.258.258 0 0 1 .1-.05h.5a1.1 1.1 0 0 1 .111.012c.04.003.08.016.113.038h.224c.069-.028.14-.048.212-.062.07-.02.14-.032.212-.038l.45-.075h.2c.101.027.206.04.311.038l.105.003c.07.005.14.017.207.034.084 0 .225.009.425.025.2.017.332.025.399.025h.225c.033 0 .116-.008.25-.025l.09-.01c.08-.01.134-.015.159-.015a3.01 3.01 0 0 1 .374-.05c.183-.016.37-.029.562-.037l.536-.025c.166-.009.275-.013.324-.013.017 0 .059-.004.125-.012.05-.007.1-.011.15-.013.046.002.092.006.137.013.038.006.075.01.113.012a.194.194 0 0 0 .125.025c.033 0 .067.005.099.013a.33.33 0 0 0 .075.012c.04.019.082.031.125.038.036.003.07.016.1.037l.025.025h.075a.1.1 0 0 0 .074.025c.034 0 .117.004.25.012.1.005.2.017.3.038h.274l.325-.175a.176.176 0 0 1 .087-.037.53.53 0 0 1 .087-.013.753.753 0 0 1 .225-.037 6.41 6.41 0 0 1 .2-.013zm80.435-.174c.062.004.125.012.187.025l.093.016.094.008h.474c.017 0 .075.01.175.026a.851.851 0 0 1 .2.05.581.581 0 0 1 .112.024c.036.013.074.02.112.025h.25a.101.101 0 0 0 .074-.025h.05l.05-.024h.05a.106.106 0 0 0 .05-.013l.024-.01.026-.003c.017 0 .035.005.05.013l.024.01.026.003h.05c.033 0 .116.008.25.024.132.017.215.025.25.025a.962.962 0 0 0 .211-.05c.073-.02.143-.045.212-.075h.125l.075.05a.1.1 0 0 0 .075.026h.2c.05 0 .178-.009.386-.026.208-.016.428-.028.661-.037l.228-.01c.148-.007.289-.016.422-.027.199-.017.324-.025.374-.025h.224c.023.002.045.01.063.025.018.013.04.022.062.024l.15.15c.066.067.1.109.1.125v.275a.074.074 0 0 0-.025.05v.05l-.175.224a1.117 1.117 0 0 0-.075.087.135.135 0 0 1-.1.063.072.072 0 0 0-.05.025l-.05.05c-.066.017-.158.041-.274.074a1.445 1.445 0 0 1-.2.05h-.224a.553.553 0 0 1-.113-.024c-.058-.017-.087-.034-.087-.05h-.849c-.016 0-.083.008-.199.024a1.65 1.65 0 0 0-.25.05.144.144 0 0 1-.1.026.071.071 0 0 0-.05.024l-.05.075a.291.291 0 0 1-.024.088c-.017.041-.034.062-.05.062a.964.964 0 0 1-.088.25 8.083 8.083 0 0 1-.112.25c-.017 0-.033.028-.05.086a.561.561 0 0 0-.025.113c0 .033-.004.1-.012.2s-.013.158-.013.174a.483.483 0 0 0-.037.15.244.244 0 0 1-.037.125 1.6 1.6 0 0 0-.075.237c-.024.077-.04.156-.05.237a.208.208 0 0 0-.038.112.217.217 0 0 1-.037.113c0 .033-.004.1-.013.2a.384.384 0 0 1-.037.174l-.275.549-.05.075a.07.07 0 0 0-.024.05l-.025.025a.1.1 0 0 0-.025.074v.285a.142.142 0 0 0 .025.065.535.535 0 0 0 .025.112.59.59 0 0 1 .025.112v.075l-.125.225a.828.828 0 0 0-.075.225.2.2 0 0 0-.025.124.072.072 0 0 1-.025.05.413.413 0 0 0-.037.188c-.004.08-.017.16-.038.237 0 .033-.009.129-.025.286a4.059 4.059 0 0 0-.025.288.579.579 0 0 1-.025.112.54.54 0 0 0-.024.112.437.437 0 0 1-.05.125.56.56 0 0 1-.076.125v.699c0 .016-.004.07-.012.162a.605.605 0 0 1-.037.187.101.101 0 0 0-.025.075.07.07 0 0 0-.025.05v.025l-.017.033-.108.204a.771.771 0 0 0-.1.237l-.1.374a.541.541 0 0 1-.037.125.484.484 0 0 0-.038.15c-.016 0-.041.033-.074.1a.428.428 0 0 0-.05.124.31.31 0 0 0-.05.125.718.718 0 0 0-.025.125c0 .017-.013.087-.038.212a.64.64 0 0 1-.062.212.962.962 0 0 0-.038.275c-.008.15-.012.241-.012.274a.101.101 0 0 0-.025.075.073.073 0 0 0-.025.05v.025a5.146 5.146 0 0 0-.112.274c-.04.088-.07.18-.087.275l-.175.574a1.625 1.625 0 0 1-.025.162c-.012.054-.02.108-.025.162 0 .017-.017.105-.05.262-.023.095-.04.19-.05.287a.201.201 0 0 1-.013.063.272.272 0 0 0-.012.087c0 .075.004.15.012.225.007.05.012.1.013.15-.04.114-.074.23-.1.349a2.662 2.662 0 0 0-.074.35.465.465 0 0 0-.038.149 1.425 1.425 0 0 0-.013.125l.025.025c0 .033.009.05.026.05l.05.05.174.124.05.1c.003.063.012.126.025.187.013.062.02.125.025.188.03.08.094.144.175.174h.199l.175-.174a.302.302 0 0 1 .037-.1.445.445 0 0 1 .062-.1.073.073 0 0 0 .05-.025l.075-.025c.05 0 .17-.008.362-.025l.106-.009c.13-.01.216-.016.256-.016l.425-.075a.281.281 0 0 0 .087-.025.287.287 0 0 1 .087-.025l.4-.224a2.12 2.12 0 0 0 .224-.025l.112-.015.113-.01a.543.543 0 0 0 .112-.013.54.54 0 0 1 .088-.012.072.072 0 0 0 .05-.025l.149-.1c.033-.033.058-.05.075-.05l.025-.025.05-.025c0-.016.037-.037.112-.062a.426.426 0 0 0 .137-.062c.016 0 .05-.034.1-.1.05-.067.091-.1.125-.1 0-.017.029-.038.087-.063.058-.025.104-.045.137-.062a.59.59 0 0 1 .2-.125.385.385 0 0 1 .075-.1l.075-.074a.07.07 0 0 1 .025-.05l.05-.075c0-.017.029-.05.087-.1.058-.05.095-.083.112-.1a1.08 1.08 0 0 1 .113-.087.3.3 0 0 1 .112-.063l.25-.499.024-.025.025-.05c.083-.049.162-.103.238-.162a2.44 2.44 0 0 0 .236-.187l.076-.025.05.025c.014.013.023.03.024.05 0 .033.009.05.026.05.02.04.05.073.087.1.041.033.07.058.087.074l.025.026.025-.026.124-.1v-.174c-.033-.033-.058-.05-.074-.05a.222.222 0 0 0-.113-.037 1.05 1.05 0 0 0-.112-.013v-.125a.262.262 0 0 0 .05-.087.332.332 0 0 1 .075-.112.445.445 0 0 1 .075-.138c.03-.047.063-.093.1-.137a.975.975 0 0 1 .025-.137.328.328 0 0 1 .05-.137c.044-.075.094-.145.15-.212.054-.074.112-.145.174-.213l.324-.324c.051-.008.101-.02.15-.037.06-.017.118-.038.175-.063h.324a.193.193 0 0 1 .088.05c.03.029.07.047.112.05.072.046.147.088.225.125.1.05.15.083.15.1a.719.719 0 0 1 .149.124c.066.067.1.117.1.15.054.065.1.136.137.212a.641.641 0 0 1 .087.212v.025l.025.05-.024.05V202c0 .05-.017.075-.05.075h-.175a.088.088 0 0 1-.075-.075.19.19 0 0 1-.087-.05.194.194 0 0 0-.088-.05.07.07 0 0 1-.05-.025l-.05-.025h-.05a.397.397 0 0 0-.1.075l-.074.075a.574.574 0 0 1-.025.112.59.59 0 0 0-.025.113l-.025.025v.05a.4.4 0 0 0 .012.1.405.405 0 0 1 .013.1.714.714 0 0 0-.075.211 5.781 5.781 0 0 1-.075.262l-.1.2-.174.474c-.042.11-.075.222-.1.337-.033.142-.05.22-.05.237-.027.12-.044.24-.05.362a5.558 5.558 0 0 0-.025.362.188.188 0 0 1-.05.112.192.192 0 0 0-.05.088.599.599 0 0 1-.037.162.426.426 0 0 1-.063.137l-.124.262a1.139 1.139 0 0 1-.15.262.153.153 0 0 1-.038.075.661.661 0 0 0-.062.1c-.033.033-.075.08-.125.137-.05.059-.083.088-.1.088l-1.123.05h-3.868c-.116 0-.241.004-.374.012a6.066 6.066 0 0 1-.375.012h-.25a8.12 8.12 0 0 0-.274.013 1.447 1.447 0 0 0-.3.037.072.072 0 0 1-.049.025h-.05c0 .017-.017.025-.05.025a.199.199 0 0 1-.125.025h-.648a.423.423 0 0 1-.1-.025.282.282 0 0 1-.1-.05h-1.273c-.033 0-.125.008-.274.025a1.75 1.75 0 0 0-.3.05.073.073 0 0 1-.05.025h-.274l-.025-.025a3.11 3.11 0 0 1-.163-.012 2.44 2.44 0 0 0-.211-.013.396.396 0 0 0-.1.013.423.423 0 0 1-.1.012h-.125a.717.717 0 0 0-.175.038.437.437 0 0 0-.15.062c-.033 0-.129.008-.286.025a4.672 4.672 0 0 1-.287.025h-.874a1.309 1.309 0 0 1-.187-.025l-.093-.016-.094-.009a.68.68 0 0 0-.225-.1.272.272 0 0 0-.1-.05.406.406 0 0 0-.1-.025.071.071 0 0 1-.05-.025l-.05-.025c-.016 0-.041-.016-.074-.05a.072.072 0 0 0-.05-.024v-.3a.891.891 0 0 1 .025-.162.877.877 0 0 0 .025-.162l.074-.075a.072.072 0 0 1 .026-.05l.024-.025.1-.05a.452.452 0 0 1 .112-.037.215.215 0 0 0 .113-.063l.15-.075c.042.001.083.005.125.013.049.008.099.012.15.012h.074l.025-.025.075-.05c.033-.033.058-.05.075-.05a.121.121 0 0 0 .062-.024.123.123 0 0 1 .063-.026c0-.016.024-.028.074-.037a.185.185 0 0 0 .1-.037l.025-.025a.142.142 0 0 0 .1-.025l.1-.05h1.347l.05-.025.225-.225a.194.194 0 0 0 .037-.1.441.441 0 0 1 .038-.124c.004-.08.013-.159.025-.237.016-.125.025-.204.025-.238a.102.102 0 0 0 .024-.074.143.143 0 0 1 .026-.1.44.44 0 0 1 .05-.125l.075-.15a1.063 1.063 0 0 0-.013-.112 1.128 1.128 0 0 1-.013-.162c0-.03.004-.06.013-.088a.2.2 0 0 0 .013-.062l.001-.016.012-.072a7.35 7.35 0 0 1 .086-.411c.004-.075.013-.15.025-.225a.428.428 0 0 1 .075-.224v-.075a.104.104 0 0 1 .025-.075c.016-.033.058-.108.125-.225a.673.673 0 0 0 .1-.224.203.203 0 0 0 .05-.15.245.245 0 0 0 .037-.125.504.504 0 0 1 .037-.15c.034-.077.063-.156.087-.237.027-.069.048-.14.063-.212a.603.603 0 0 0 .037-.187.34.34 0 0 1 .038-.162v-.05a.074.074 0 0 1 .025-.05.301.301 0 0 1 .05-.137l.024-.043a.313.313 0 0 0 .026-.095.297.297 0 0 1 .025-.087c.016-.041.033-.062.05-.062a.34.34 0 0 1 .05-.113l.03-.054.02-.058a.406.406 0 0 1 .025-.1.418.418 0 0 0 .024-.1.24.24 0 0 1 .075-.174c.018-.091.047-.18.088-.262a5.54 5.54 0 0 1 .112-.262.29.29 0 0 0 .05-.113.574.574 0 0 0 .025-.112v-.374c0-.017.008-.083.025-.2a.924.924 0 0 1 .05-.225v-.823a1.38 1.38 0 0 1 .037-.175.734.734 0 0 1 .087-.224.483.483 0 0 1 .038-.15.404.404 0 0 1 .062-.125.125.125 0 0 1 .025-.062.908.908 0 0 0 .05-.088l.075-.1a.16.16 0 0 0 .037-.074c.009-.034.02-.05.038-.05a.101.101 0 0 0 .025-.075.147.147 0 0 1 .025-.1.513.513 0 0 0 .062-.175c.017-.057.03-.115.038-.174a.525.525 0 0 1 .012-.088.556.556 0 0 0 .012-.087l.125-1.173a.1.1 0 0 1 .026-.075l.024-.075c.033-.1.088-.237.163-.412a2.16 2.16 0 0 0 .112-.287 1.26 1.26 0 0 1 .125-.174.515.515 0 0 0 .1-.15.497.497 0 0 1 .012-.087c.008-.042.02-.063.037-.063v-.05a3.3 3.3 0 0 1-.037-.436 12.06 12.06 0 0 1-.012-.437 1.996 1.996 0 0 1-.1-.112.462.462 0 0 0-.125-.113 1.857 1.857 0 0 0-.1-.087.712.712 0 0 0-.125-.088.145.145 0 0 1-.1-.024.17.17 0 0 1-.074-.013.116.116 0 0 0-.05-.013l-.025-.024a.145.145 0 0 1-.1-.025.164.164 0 0 1-.075-.013.116.116 0 0 0-.05-.012.072.072 0 0 0-.05-.025.143.143 0 0 1-.1-.025.146.146 0 0 0-.1-.025h-.549l-.1-.05h-.075l-.024-.025-.025-.025a.219.219 0 0 0-.112-.037 1.058 1.058 0 0 0-.138-.013l-.1-.1a.102.102 0 0 1-.025-.075v-.1c0-.1.009-.15.025-.15l.1-.1a.176.176 0 0 1 .087-.037c.042-.008.063-.02.063-.037l.075-.075c.033-.016.05-.033.05-.05l.05-.025h.324a.436.436 0 0 0 .125-.05.556.556 0 0 0 .124-.075.193.193 0 0 0 .076-.024.223.223 0 0 1 .1-.025zm-70.303.125c.038.022.082.03.125.025.016.016.066.024.15.024h.1c.032 0 .128-.008.286-.024.158-.017.254-.025.287-.025h.25c.05.008.1.02.15.037.083.025.174.05.274.075.1.025.2.054.3.087l.224.075a.124.124 0 0 1 .063.025c.018.014.04.023.062.025a.184.184 0 0 0 .025.075l.075.05h.05a.12.12 0 0 0 .062-.025l.03-.017.032-.008c0-.017.025-.041.075-.075a.257.257 0 0 1 .1-.05.752.752 0 0 0 .125-.025l.062-.015.063-.01h.798c.06-.011.118-.028.175-.05a1.72 1.72 0 0 0 .2-.075h.998a.466.466 0 0 0 .162-.05.469.469 0 0 1 .163-.05h.299c.1.003.2.012.3.025.132.017.215.025.25.025.04.01.077.027.111.05.04.021.078.046.112.075h.175c0-.016.021-.033.063-.05a.292.292 0 0 1 .087-.025h.774c.05.006.1.014.15.025l.249.025c.079 0 .158.004.237.013.075.008.12.012.137.012h.225a.287.287 0 0 1 .112-.05.586.586 0 0 1 .113-.025h.674l.099.075h1.298a.2.2 0 0 1 .125.025l.174.075a.242.242 0 0 1 .125.05.805.805 0 0 1 .1.075c.016 0 .041.016.075.05a.1.1 0 0 0 .025.075v.05l.025.024v.076a.196.196 0 0 1-.025.074l-.016.036-.009.04a.959.959 0 0 0-.1.161.508.508 0 0 0-.075.188v.474a1.304 1.304 0 0 1-.025.187c-.011.053-.02.108-.025.162a.965.965 0 0 0-.037.274.986.986 0 0 1-.038.275.29.29 0 0 1-.025.087.277.277 0 0 0-.024.088.419.419 0 0 1-.025.125.402.402 0 0 0-.026.1c0 .033-.004.133-.012.299.001.101-.011.202-.037.3a.217.217 0 0 1-.038.087.223.223 0 0 0-.037.087c0 .034-.009.146-.025.337l-.01.105c-.01.128-.015.205-.015.232a.535.535 0 0 1-.075.15l-.075.174a.239.239 0 0 0-.075.175v.275a.291.291 0 0 1-.037.1.42.42 0 0 1-.063.1l-.05.074-.05.05a.101.101 0 0 1-.074.025h-.125a.317.317 0 0 1-.075-.013.35.35 0 0 0-.075-.012c-.017 0-.046-.029-.087-.087a1.133 1.133 0 0 0-.112-.137l-.05-.05a.07.07 0 0 1-.025-.05v-.125a.482.482 0 0 1 .062-.137.5.5 0 0 0 .063-.138v-.224l-.05-.1c-.034 0-.067-.041-.1-.125l-.075-.1a.24.24 0 0 1-.05-.174.338.338 0 0 1-.037-.163.352.352 0 0 0-.038-.162.196.196 0 0 0-.05-.087.187.187 0 0 1-.05-.088.169.169 0 0 1-.05-.124v-.699l-.125-.125-.074-.05-.1-.05c0-.016-.025-.041-.075-.075l-.075-.1c-.017 0-.042-.016-.075-.05l-.074-.05a.071.071 0 0 1-.05-.024l-.026-.025a.253.253 0 0 1-.05-.088.16.16 0 0 0-.074-.087.503.503 0 0 0-.063-.137.837.837 0 0 0-.087-.138l-.075-.05a.194.194 0 0 1-.025-.074.302.302 0 0 1-.1-.038c-.05-.025-.074-.045-.074-.062a1.589 1.589 0 0 1-.225-.175l-.225-.224a2.52 2.52 0 0 1-.05-.05 2.785 2.785 0 0 0-.224-.088.96.96 0 0 0-.225-.062l-.274-.125h-1.897a1.46 1.46 0 0 0-.162-.062.597.597 0 0 0-.162-.037h-.125a1.25 1.25 0 0 0-.187.05 1.232 1.232 0 0 1-.188.05.333.333 0 0 1-.175.024c-.033 0-.05.009-.05.025a.273.273 0 0 1-.137.038.274.274 0 0 0-.137.037.22.22 0 0 0-.1.025.193.193 0 0 1-.075.025l-.074.05a.073.073 0 0 1-.05.025l-.1.1-.05.1a.144.144 0 0 0-.025.1l-.025.024a.101.101 0 0 0-.025.075.071.071 0 0 0-.025.05v.025a.417.417 0 0 0-.037.187l-.003.064a.428.428 0 0 1-.035.123c-.02.115-.049.227-.087.337-.027.12-.073.233-.137.337a1.066 1.066 0 0 1-.038.2 1.068 1.068 0 0 0-.037.2.336.336 0 0 0-.05.137.933.933 0 0 0-.025.137l-.025.075a.1.1 0 0 0-.025.075.309.309 0 0 0-.05.124.143.143 0 0 0-.025.1v.032a5.325 5.325 0 0 1-.012.18c-.009.109-.013.171-.013.188a.947.947 0 0 0-.037.2c-.009.083-.021.124-.038.124a1.2 1.2 0 0 0-.062.175.742.742 0 0 0-.038.174.42.42 0 0 1-.024.1.4.4 0 0 0-.025.125.329.329 0 0 0-.038.162l-.003.056a.342.342 0 0 1-.034.107l-.025.05v.05a.143.143 0 0 0-.025.1.719.719 0 0 0-.038.224 4.15 4.15 0 0 0-.012.224c-.015.09-.04.178-.075.263-.05.14-.083.228-.1.262a.418.418 0 0 1-.025.1.406.406 0 0 0-.025.1 1.07 1.07 0 0 1-.025.174l-.016.087-.009.088v.224c.007.06.024.12.05.175.022.048.04.098.05.15l.1.075c.03.015.06.031.087.05a.153.153 0 0 0 .088.024c.03.04.075.066.124.075.042.03.089.05.138.063.044.017.09.03.137.037.016 0 .042.017.075.05l.125.125h.075l.274-.175a.072.072 0 0 0 .05-.025.074.074 0 0 0 .05-.025c.033 0 .12-.008.262-.025.141-.016.228-.025.262-.025l.027-.001a.101.101 0 0 0 .048-.024c.033-.033.058-.05.075-.05a.218.218 0 0 0 .087-.037.466.466 0 0 0 .087-.063l.225-.124a1.04 1.04 0 0 0 .113-.013c.058-.008.087-.02.087-.037a.573.573 0 0 0 .174-.05l.175-.1.05-.05c.033-.083.087-.25.162-.499.075-.25.129-.416.163-.5a.276.276 0 0 0 .037-.136.534.534 0 0 1 .037-.163.103.103 0 0 1 .025-.074l.025-.075.05-.125a.253.253 0 0 0 .05-.1.826.826 0 0 1 .075-.062c.033-.025.05-.046.05-.063a.962.962 0 0 0 .1-.212c.05-.125.09-.195.124-.212a.135.135 0 0 1 .063-.1 1.24 1.24 0 0 0 .087-.074h.175l.05.05.075.124c0 .067.008.212.025.437.016.224.025.37.025.437a1.575 1.575 0 0 1-.025.2 1.465 1.465 0 0 0-.025.199.47.47 0 0 0-.063.162.477.477 0 0 1-.062.162.27.27 0 0 0-.038.137 1.735 1.735 0 0 0-.012.138c0 .035-.009.069-.025.1a.198.198 0 0 0-.025.074c-.068.08-.13.163-.187.25a3.139 3.139 0 0 0-.162.25c0 .033-.009.125-.025.274l-.01.083c-.01.101-.015.165-.015.192a.102.102 0 0 0-.025.075.142.142 0 0 0-.025.1l-.125.274-.1.274-.05.175a.51.51 0 0 0-.037.212.516.516 0 0 1-.037.212.962.962 0 0 1-.05.212 1.246 1.246 0 0 0-.05.188c0 .033-.009.162-.025.386a9.888 9.888 0 0 0-.026.387c-.019.108-.031.216-.036.325a.882.882 0 0 1-.038.25.146.146 0 0 1-.025.1l-.075.149a.123.123 0 0 1-.025.062.119.119 0 0 0-.025.063c0 .033-.025.05-.075.05 0 .016-.017.024-.05.024l-.025.026h-.224a.186.186 0 0 1-.075-.026l-.05-.074c-.017 0-.025-.025-.025-.075a.103.103 0 0 0-.025-.075v-.225a1.66 1.66 0 0 1 .05-.262l.03-.13.02-.132c0-.016.004-.087.013-.212.008-.125.012-.22.012-.287 0-.033-.004-.116-.012-.25a4.735 4.735 0 0 1-.013-.25.199.199 0 0 0-.025-.074.216.216 0 0 1-.025-.1l-.175-.374a.073.073 0 0 1-.025-.05.07.07 0 0 1-.024-.05l-.025-.025-.026-.025v-.05l-.05-.075-.124-.05a.262.262 0 0 0-.1-.05l-.4-.074a.806.806 0 0 0-.174-.05.36.36 0 0 1-.15-.05.234.234 0 0 1-.224-.225l-.125.125a.074.074 0 0 1-.05.025l-.05.025h-.873a.377.377 0 0 0-.138.037c-.059.025-.087.046-.087.063a.39.39 0 0 0-.05.162 1.325 1.325 0 0 0-.025.187.693.693 0 0 1-.025.15.713.713 0 0 0-.025.125 1.273 1.273 0 0 1-.05.187 1.238 1.238 0 0 0-.05.187.107.107 0 0 1-.012.05.174.174 0 0 0-.013.075c0 .063.004.125.013.187.007.046.011.091.012.137a.102.102 0 0 1-.025.075.1.1 0 0 0-.024.075l-.026.025a.146.146 0 0 0-.025.1l-.024.025a.196.196 0 0 0-.025.125l-.025.024c0 .017-.013.113-.038.288a1.833 1.833 0 0 1-.087.386c0 .017-.004.088-.013.212a.51.51 0 0 1-.037.213l-.025.05a.07.07 0 0 0-.025.05c0 .016-.017.041-.05.074-.033.034-.058.05-.075.05a.53.53 0 0 1-.075.15l-.074.175a.142.142 0 0 0-.026.1.103.103 0 0 1-.025.074.114.114 0 0 1-.012.05.165.165 0 0 0-.012.075c0 .05.004.1.012.15a.835.835 0 0 1 .012.125l-.05.1a.196.196 0 0 0-.024.124c0 .034-.013.134-.038.3-.01.101-.03.202-.062.3a.469.469 0 0 0-.038.15 1.425 1.425 0 0 0-.012.124.215.215 0 0 0-.037.112.914.914 0 0 0-.013.112c-.01.101-.027.201-.05.3a1.85 1.85 0 0 1-.075.3 1.009 1.009 0 0 1-.025.137.824.824 0 0 0-.024.162v.05c.027.073.048.148.062.224.008.07.03.138.062.2.002.023.011.044.025.062.014.018.023.04.025.063a.268.268 0 0 1 .05.087c.016.042.033.063.05.063l.05.05c.012.014.03.023.05.024h.574c.033 0 .133-.008.3-.024.1-.005.201-.022.299-.05.029.001.058.005.087.012a.686.686 0 0 0 .137.012.169.169 0 0 0 .075-.012.114.114 0 0 1 .05-.012c.076-.007.151-.02.225-.038a1.15 1.15 0 0 0 .224-.062h.225c.068.023.14.036.212.037.108.009.178.013.212.013a.1.1 0 0 0 .075.025c.029.02.065.029.1.025.012.014.03.023.05.024h.174a.071.071 0 0 0 .05-.024l.1-.05a.737.737 0 0 0 .175-.038 1.26 1.26 0 0 0 .175-.062l.449-.125c.016 0 .087-.004.212-.013a6.94 6.94 0 0 1 .212-.012.85.85 0 0 1 .212-.087c.125-.042.22-.07.287-.088l.274-.125a.17.17 0 0 1 .125-.05l.375-.274.324-.175c.017 0 .046-.02.087-.062a.452.452 0 0 1 .113-.087c0-.034.037-.092.112-.175.052-.053.098-.112.138-.175l.449-.499a1.92 1.92 0 0 0 .262-.25c.124-.132.203-.215.237-.249.035-.032.073-.06.112-.087a.305.305 0 0 1 .112-.063l.125-.124.05-.075.025-.075.025-.025a.071.071 0 0 1 .025-.05.072.072 0 0 0 .025-.05.643.643 0 0 0 .075-.175c.006-.076.019-.15.037-.224.014-.077.035-.152.063-.225a.344.344 0 0 1 .125-.225l.099-.1.1-.124.1-.05h.125c.03.004.06.012.087.025l.043.016.045.009.05.075a.07.07 0 0 0 .024.05c.001.019.01.037.025.05 0 .017.005.034.013.05a.12.12 0 0 1 .012.05.1.1 0 0 0 .025.074v.225a1.05 1.05 0 0 1-.075.25c-.035.08-.06.163-.074.249l-.075.449a.562.562 0 0 1-.05.138.55.55 0 0 0-.05.137 1.188 1.188 0 0 0-.063.174.448.448 0 0 1-.062.15c-.01.1-.027.2-.05.3a2.124 2.124 0 0 0-.05.324c-.015.086-.04.17-.075.25-.05.133-.083.216-.1.25a2.26 2.26 0 0 1-.037.261 2.444 2.444 0 0 1-.062.287c0 .017-.005.059-.013.125-.009.07-.013.141-.012.212 0 .067-.004.134-.013.2a.99.99 0 0 0-.012.112.206.206 0 0 1-.075.125c0 .017-.025.05-.075.1l-.075.074-.05.026a.071.071 0 0 1-.05.024 1.9 1.9 0 0 0-.212.026 1.748 1.748 0 0 1-.237.024c-.067 0-.2.009-.4.025a6.28 6.28 0 0 1-.399.025h-.224a.198.198 0 0 1-.125-.025.28.28 0 0 1-.087-.012.2.2 0 0 0-.063-.013h-1.098a.162.162 0 0 0-.1-.074.42.42 0 0 0-.125-.026.888.888 0 0 0-.162.05.838.838 0 0 1-.162.05c-.017 0-.092.009-.224.025a2.805 2.805 0 0 1-.325.025h-.05a.878.878 0 0 1-.162-.025.978.978 0 0 0-.138-.025h-.099a.553.553 0 0 0-.113.025.593.593 0 0 1-.112.025h-.324a.92.92 0 0 0-.225.063.958.958 0 0 1-.224.062h-.375a.2.2 0 0 1-.125-.025.144.144 0 0 1-.1-.025 1.607 1.607 0 0 0-.262-.05 2.483 2.483 0 0 0-.236-.025h-.485a.146.146 0 0 1-.065-.025.102.102 0 0 1-.074-.025.679.679 0 0 1-.15-.024.806.806 0 0 0-.125-.026h-.375c-.033 0-.087.005-.161.013a4.123 4.123 0 0 0-.25.037 4.388 4.388 0 0 1-.387.05h-.05a.102.102 0 0 1-.075-.025.103.103 0 0 1-.075-.025h-.025a.426.426 0 0 1-.125-.05.388.388 0 0 0-.15-.05h-.05l-.049-.024-.075.024h-.05a.143.143 0 0 1-.1.026.1.1 0 0 1-.074.024h-.05c-.067.017-.171.038-.312.063-.142.025-.221.037-.237.037h-.275l-.1-.05a6.47 6.47 0 0 1-.412-.024l-.117-.01a5.037 5.037 0 0 0-.32-.016h-.049a.778.778 0 0 0-.125.026.69.69 0 0 1-.15.024.56.56 0 0 0-.112.025l-.055.015-.057.01c-.017 0-.075.009-.175.025a.802.802 0 0 0-.2.05 2.315 2.315 0 0 0-.262.025 2.63 2.63 0 0 1-.237.025h-.125l-.15-.05h-.024c0-.016-.017-.03-.05-.037-.034-.009-.05-.021-.05-.038a.193.193 0 0 1-.088-.05.196.196 0 0 0-.087-.05.071.071 0 0 1-.05-.024l-.05-.026-.125-.124v-.225l.05-.05c.048-.025.094-.055.138-.087.058-.041.087-.07.087-.087a.103.103 0 0 0 .075-.025.07.07 0 0 0 .05-.025h.674l.1.05c.016.016.062.058.137.124.075.067.12.1.137.1h.175a.46.46 0 0 0 .137-.075 1.18 1.18 0 0 0 .137-.1.074.074 0 0 0 .05-.024.073.073 0 0 0 .05-.025c.033 0 .096-.004.187-.013a.334.334 0 0 0 .162-.037c.017 0 .046-.021.088-.063a.173.173 0 0 0 .062-.112.208.208 0 0 0 .087-.1.29.29 0 0 0 .038-.1.7.7 0 0 1 .025-.15.81.81 0 0 0 .025-.124c0-.035.009-.07.025-.1a.194.194 0 0 0 .025-.075.204.204 0 0 1 .075-.125.37.37 0 0 1 .074-.124.3.3 0 0 0 .076-.15l.024-.025a.074.074 0 0 1 .025-.05.102.102 0 0 0 .025-.075c0-.033-.004-.095-.012-.187a2.832 2.832 0 0 1-.013-.262c0-.034.005-.067.013-.1a.36.36 0 0 0 .012-.075.102.102 0 0 0 .025-.075.144.144 0 0 1 .025-.1l.05-.1.025-.074.025-.025a.607.607 0 0 0 .037-.187c.009-.092.013-.146.013-.163a.598.598 0 0 0 .075-.15.583.583 0 0 0 .05-.174 3.83 3.83 0 0 1 .05-.45 4.565 4.565 0 0 0 .05-.448l.174-.6c.01-.084.026-.167.05-.249.018-.085.043-.169.075-.25a.739.739 0 0 1 .037-.174.441.441 0 0 1 .063-.15c0-.016.003-.062.013-.137l.024-.237c.008-.084.021-.167.038-.25a.746.746 0 0 1 .05-.175.904.904 0 0 1 .037-.15.733.733 0 0 0 .038-.174.842.842 0 0 0 .124-.212c.038-.078.07-.157.1-.237.036-.04.069-.082.1-.125a.298.298 0 0 0 .075-.15v-.025l.025-.05a.104.104 0 0 1 .025-.075c0-.042.005-.083.012-.125a1.341 1.341 0 0 0 0-.374.764.764 0 0 1-.012-.125.487.487 0 0 0 .124-.174l.05-.1v-.55a.339.339 0 0 1 .05-.111.618.618 0 0 1 .075-.113l.075-.25c.035-.08.06-.163.075-.249.026-.102.039-.207.038-.312-.002-.105.01-.21.037-.312 0-.016.004-.062.012-.137.009-.075.02-.112.038-.112.018-.099.048-.195.087-.287.03-.103.076-.2.137-.287a.143.143 0 0 1 .025-.1.164.164 0 0 1 .013-.075.114.114 0 0 0 .012-.05.521.521 0 0 1 .013-.087c.008-.042.02-.063.037-.063l.225-.574a.174.174 0 0 0 .037-.087.51.51 0 0 0 .013-.087v-.075a.11.11 0 0 0-.013-.05.17.17 0 0 1-.012-.075.142.142 0 0 1-.025-.1v-.125l.124-.399a.221.221 0 0 1 .038-.087c.025-.041.045-.063.062-.063l.075-.174a.433.433 0 0 0 .075-.175v-.275c0-.016-.012-.09-.037-.224l-.062-.325c-.017-.016-.026-.075-.026-.174a.073.073 0 0 0-.025-.05.862.862 0 0 0-.112-.15l-.096-.108-.016-.017a.175.175 0 0 0-.088-.037.522.522 0 0 0-.087-.013.704.704 0 0 0-.15.05.567.567 0 0 1-.175.05l-.024.025h-.05a.566.566 0 0 1-.113-.012.546.546 0 0 0-.087-.013c-.102.027-.207.04-.312.038a1.198 1.198 0 0 0-.312.037h-.225a.656.656 0 0 0-.199-.037.377.377 0 0 1-.175-.038c-.067 0-.1-.016-.1-.05a.446.446 0 0 1-.112-.087c-.042-.042-.062-.07-.062-.088a.202.202 0 0 1-.05-.15.505.505 0 0 1 .012-.087.171.171 0 0 1 .038-.087l.1-.1.124-.075a.286.286 0 0 0 .088-.025.296.296 0 0 1 .087-.025h.524a.846.846 0 0 0 .162-.024c.045-.012.091-.02.138-.025zm55.154.1c.056.014.11.035.162.062a.715.715 0 0 0 .163.062h.898a.807.807 0 0 1 .1.012.732.732 0 0 0 .125.013l.124.075.1.05.025.025h.075c.02.018.047.027.075.025a.07.07 0 0 0 .05.025.404.404 0 0 0 .1-.013.354.354 0 0 1 .075-.012.55.55 0 0 0 .15.075.688.688 0 0 0 .149.05h.574c.03.003.06.012.087.025a.283.283 0 0 0 .087.024h.275l.325-.174h.648a2.31 2.31 0 0 0 .263-.025c.124-.017.203-.025.236-.025a.316.316 0 0 0 .113-.062.31.31 0 0 1 .112-.063h.374c.115.02.228.05.337.087.11.039.223.068.338.088a.617.617 0 0 0 .199.037c.06-.001.12.012.175.038a.195.195 0 0 1 .087.05.329.329 0 0 1 .087.1c0 .066.025.1.075.1v.124a.41.41 0 0 0-.062.1.298.298 0 0 0-.037.125c-.017 0-.042.017-.076.05-.033.033-.058.05-.074.05a.073.073 0 0 1-.05.024l-.05.025a.815.815 0 0 1-.2.05c-.066.013-.132.021-.2.025h-.773c-.034 0-.137.009-.312.025a4.582 4.582 0 0 1-.337.025 1.042 1.042 0 0 0-.137.013c-.059.008-.088.02-.088.037a.258.258 0 0 0-.1.05c-.05.034-.074.067-.074.1a.442.442 0 0 1-.075.137c-.036.052-.07.106-.1.162l-.05.1a1.074 1.074 0 0 1-.025.175.798.798 0 0 1-.05.175.84.84 0 0 1-.012.124.76.76 0 0 0-.013.1 1.02 1.02 0 0 0-.1.212.925.925 0 0 0-.074.237c-.028.12-.044.24-.05.362a5.732 5.732 0 0 0-.025.362l-.1.1a.143.143 0 0 0-.05.1.441.441 0 0 0-.063.15.748.748 0 0 0-.037.2 2.25 2.25 0 0 0-.087.249c-.03.08-.05.164-.063.25a.77.77 0 0 1-.012.124.716.716 0 0 0-.012.1.475.475 0 0 0-.05.187c-.017.109-.026.17-.026.187-.01.11-.031.219-.062.325-.03.127-.067.252-.112.374a.293.293 0 0 1-.025.087c-.017.042-.034.063-.05.063a.368.368 0 0 1-.038.137.387.387 0 0 1-.062.112.103.103 0 0 0-.025.075.2.2 0 0 0-.025.125.345.345 0 0 0-.025.15.2.2 0 0 1-.024.125 2.08 2.08 0 0 1-.026.224c-.012.075-.02.15-.025.225 0 .033-.004.087-.012.162a1.973 1.973 0 0 0-.013.237l-.003.119-.01.118c-.008.075-.011.121-.011.137a1.038 1.038 0 0 1-.013.113 1 1 0 0 0-.012.137l-.1.225-.05.15a.514.514 0 0 1-.075.187.654.654 0 0 0-.075.162.466.466 0 0 0-.038.2l-.009.143a1.73 1.73 0 0 0-.003.081.109.109 0 0 1-.012.05.172.172 0 0 0-.013.075.143.143 0 0 0-.025.1.919.919 0 0 0-.05.224c-.012.075-.02.15-.025.225l-.175.574c0 .017-.016.108-.05.275a3.52 3.52 0 0 0-.049.274c-.01.08-.026.16-.05.237-.02.08-.044.16-.075.237-.012.076-.03.15-.05.225a1.664 1.664 0 0 1-.074.25 1.342 1.342 0 0 1-.038.174 1.157 1.157 0 0 1-.062.2.574.574 0 0 1-.025.112.56.56 0 0 0-.026.112 2.107 2.107 0 0 0-.062.15.54.54 0 0 0-.037.125l-.05.1a.1.1 0 0 0-.025.074.552.552 0 0 0-.038.175 1.96 1.96 0 0 0-.012.175.703.703 0 0 1-.025.15.784.784 0 0 0-.025.124c-.017 0-.03.025-.038.075a.194.194 0 0 1-.037.1 1.39 1.39 0 0 1-.087.287l-.06.16a1.875 1.875 0 0 1-.052.127l-.05.075a.1.1 0 0 0-.026.075v.224l.076.15a.088.088 0 0 0 .1.1.265.265 0 0 0 .112.1c.04.02.077.046.112.075h.674c.039.007.076.02.112.037l.055.023.058.015h.224c.062-.01.121-.031.175-.063l.072-.036.077-.026h.075a.164.164 0 0 0 .075-.013.114.114 0 0 1 .05-.012c.018 0 .035.004.05.012.024.01.05.015.075.013h.075l.075.075c.033.016.05.033.05.05l.05.025a.718.718 0 0 0 .012.1c.006.032.01.066.012.1v.149l-.024.075v.05a.8.8 0 0 1-.075.062.152.152 0 0 1-.075.037.545.545 0 0 1-.187.063 2.965 2.965 0 0 0-.238.062h-.05a1.62 1.62 0 0 1-.162-.025 1.506 1.506 0 0 0-.162-.025h-.798a51.392 51.392 0 0 0-.537-.062 1.339 1.339 0 0 1-.362-.063l-.275-.174h-.773a.417.417 0 0 0-.1-.062.291.291 0 0 0-.125-.038h-.025l-.05-.025-.1.025-.024.025-.15.1-.05.024-.025.026-.075.024a.07.07 0 0 1-.05.026.146.146 0 0 1-.1.024.282.282 0 0 0-.124.025l-.674.125c-.034 0-.1.004-.2.013-.1.008-.204.012-.312.012l-.159.003-.153.01c-.1.008-.158.012-.174.012-.034 0-.117.008-.25.025a2.997 2.997 0 0 1-.25.025h-.174a.422.422 0 0 1-.1-.025.4.4 0 0 0-.125-.025l-.225-.125-.05-.05v-.2a.743.743 0 0 1 .038-.174c.016-.06.037-.118.062-.175l.025-.075a.073.073 0 0 1 .025-.05.17.17 0 0 1 .125-.05h1.822c.016 0 .05-.024.1-.074l.15-.15a1.71 1.71 0 0 1 .124-.187c.046-.06.087-.122.125-.187.05-.05.075-.083.075-.1.045-.129.1-.254.162-.375.045-.08.083-.163.113-.25.01-.059.028-.117.05-.174l.074-.224c.001-.046.005-.092.012-.138.009-.058.022-.087.038-.087.016-.083.041-.191.075-.324.024-.082.04-.166.05-.25 0-.033.004-.125.013-.274a.941.941 0 0 1 .037-.275 1.1 1.1 0 0 1 .1-.275c.033-.086.075-.17.124-.25v-.024a.102.102 0 0 0 .026-.075.1.1 0 0 1 .024-.075c.006-.05.014-.1.025-.15.011-.05.02-.099.025-.15a.752.752 0 0 0 .075-.211c.024-.078.04-.157.05-.237v-.5c0-.016.02-.112.062-.287.042-.174.071-.303.088-.387a.17.17 0 0 1 .012-.074.108.108 0 0 0 .013-.05.071.071 0 0 1 .025-.05.336.336 0 0 0 .112-.125.943.943 0 0 1 .087-.125v-.05l.026-.075v-.623c.008-.055.02-.11.036-.163.028-.097.061-.193.1-.287a2.73 2.73 0 0 0 .1-.274.729.729 0 0 0 .038-.175.433.433 0 0 0 .05-.174l.015-.1.01-.1a.503.503 0 0 1 .012-.088.512.512 0 0 0 .013-.087l.025-.025a.144.144 0 0 1 .025-.1.145.145 0 0 0 .024-.1c.005-.07.013-.142.026-.212.012-.07.02-.14.025-.212a.575.575 0 0 1 .05-.175c.033-.083.057-.14.074-.174.006-.055.014-.109.025-.162.011-.054.02-.108.025-.163a.072.072 0 0 0 .025-.05.072.072 0 0 1 .025-.05c.04-.047.078-.097.112-.15.042-.055.079-.113.112-.174a.214.214 0 0 0 .076-.15v-.883a.142.142 0 0 1 .024-.065l.075-.175c0-.066.025-.1.075-.1a.155.155 0 0 1 .038-.074.668.668 0 0 1 .062-.075.17.17 0 0 0 .05-.125.123.123 0 0 0 .025-.087v-.031a.12.12 0 0 1 .025-.057v-.025c0-.066-.004-.182-.013-.349a10.612 10.612 0 0 1-.012-.537c0-.19-.004-.37-.013-.536a7.728 7.728 0 0 1-.012-.35.145.145 0 0 0-.05-.1 2.45 2.45 0 0 1-.125-.137c-.05-.058-.083-.087-.1-.087-.016-.033-.07-.066-.161-.1a1.87 1.87 0 0 1-.188-.075.348.348 0 0 0-.175-.074 1.065 1.065 0 0 0-.174-.026.144.144 0 0 1-.1.026.103.103 0 0 1-.075.024h-.849a.168.168 0 0 1-.125-.05.044.044 0 0 0-.05-.05c-.1-.1-.149-.174-.149-.224-.017 0-.034-.025-.05-.075a.103.103 0 0 1-.025-.075.145.145 0 0 1-.025-.1v-.174a.103.103 0 0 1 .025-.075l.125-.125h.05l.15-.075a.196.196 0 0 1 .074-.025c.034 0 .133-.008.3-.025.166-.016.283-.025.35-.025zm-30.871.648h-1.048a.791.791 0 0 0-.125.013c-.05.008-.117.02-.2.037-.05.017-.17.05-.362.1a1.518 1.518 0 0 0-.362.125l-.225.124a1.56 1.56 0 0 1-.224.163c-.089.058-.18.112-.275.162a.769.769 0 0 1-.125.1.79.79 0 0 0-.099.075l-.824.798a.4.4 0 0 1-.087.175 1.46 1.46 0 0 1-.137.175.124.124 0 0 1-.025.062.118.118 0 0 0-.025.063.1.1 0 0 0-.025.074v.075a.21.21 0 0 0-.037.112.216.216 0 0 1-.038.113l-.025.05c-.017 0-.034.016-.05.05l-.05.1-.224.573a2.45 2.45 0 0 1-.188.337c-.125.209-.229.37-.312.487l-.05.075a.071.071 0 0 0-.024.05v.025a.321.321 0 0 0-.075.162.343.343 0 0 1-.05.137.618.618 0 0 0-.037.2c-.009.1-.013.158-.013.175a.196.196 0 0 0-.025.124.147.147 0 0 1-.025.1c-.017.034-.054.1-.113.2-.032.061-.07.12-.112.175a1.353 1.353 0 0 1-.037.174 1.373 1.373 0 0 0-.038.175.292.292 0 0 1-.025.087.276.276 0 0 0-.024.088 1.018 1.018 0 0 0-.1.15.444.444 0 0 0-.075.174v.31a.141.141 0 0 0 .025.064v.075l.025.025v.175c0 .017-.017.042-.05.075l-.05.075c-.04.098-.086.194-.138.287a.871.871 0 0 0-.087.187l-.012.25c0 .092-.012.185-.037.274a.101.101 0 0 0-.025.075.102.102 0 0 1-.026.075v.025a2.395 2.395 0 0 0-.087.237c-.026.069-.047.14-.062.212l-.075.15v.773c0 .034-.004.109-.013.225a.752.752 0 0 1-.037.225.124.124 0 0 1-.025.062l-.017.03-.008.032-.175.6v.15a.514.514 0 0 1 .063.174c.01.061.031.12.062.174v.1a.115.115 0 0 1-.012.05.17.17 0 0 0-.013.075.146.146 0 0 0-.025.1.1.1 0 0 0-.025.075v.2a.07.07 0 0 0 .025.05c.002.029.006.058.013.087.008.041.02.062.037.062 0 .083.033.125.1.125a.791.791 0 0 1 .1.012l.05.008.05.005h.1a.1.1 0 0 0 .074-.025.072.072 0 0 1 .05-.025c.033 0 .05-.008.05-.025l.075-.075c.042-.055.08-.114.112-.175a.728.728 0 0 0 .087-.174.285.285 0 0 1 .1-.1.765.765 0 0 0 .1-.075.55.55 0 0 1 .163-.1c.074-.033.128-.058.162-.075.03.004.06.012.087.025a.298.298 0 0 0 .112.025v.125a1.41 1.41 0 0 1-.15.45l-.1.199a.317.317 0 0 0-.074.15.745.745 0 0 0-.025.124v.874c.015.013.024.03.025.05a.195.195 0 0 0 .025.125c.016.05.05.133.1.25a.779.779 0 0 0 .125.224l.074.1c.017.066.042.1.075.1 0 .016.017.041.05.074l.1.15a.201.201 0 0 1 .075.025c.03.016.065.025.1.025a.423.423 0 0 1 .1.025c.04.015.082.023.124.025l.5.175h.374c.05.002.1.01.15.024.04.012.082.02.124.025h.275a.19.19 0 0 0 .075-.025.225.225 0 0 1 .1-.024c.066-.034.174-.092.324-.175.097-.049.19-.107.275-.175h.024a.073.073 0 0 0 .05-.025l.05-.05v-.224a.783.783 0 0 0-.024-.125.704.704 0 0 1-.025-.125 1.48 1.48 0 0 1-.038-.324l-.005-.11a1.565 1.565 0 0 0-.032-.215v-.724a.17.17 0 0 0-.05-.124 9.98 9.98 0 0 0-.188-.175 1.088 1.088 0 0 1-.187-.2.55.55 0 0 1-.037-.224 5.558 5.558 0 0 1-.013-.25.2.2 0 0 0-.025-.075l-.05-.1a.156.156 0 0 0-.025-.087.805.805 0 0 1-.05-.087l-.05-.1c0-.066-.058-.108-.174-.125a.143.143 0 0 1-.1-.025.164.164 0 0 1-.074-.012.116.116 0 0 0-.05-.013l-.026-.025h-.1a.24.24 0 0 1-.174.075 1.013 1.013 0 0 0-.137.025l-.068.015-.07.01a.217.217 0 0 1-.112.037.22.22 0 0 0-.112.038c-.017 0-.08.004-.187.012a3.44 3.44 0 0 1-.212.013l-.05.025h-.05a.146.146 0 0 1-.1.025h-.05l-.025-.05a.194.194 0 0 0 .037-.1.438.438 0 0 1 .038-.125.072.072 0 0 0 .025-.05.2.2 0 0 1 .025-.124.298.298 0 0 1 .05-.125.072.072 0 0 0 .05-.025l.05-.025a.459.459 0 0 1 .125-.038.223.223 0 0 0 .124-.062l.15-.075c.054-.005.109-.014.162-.025.078-.015.158-.023.237-.025h.05c.066 0 .203.009.412.025.208.017.345.025.412.025l.124.075a.392.392 0 0 0 .1.025l.275.125a.584.584 0 0 1 .112.025.54.54 0 0 0 .112.025l.125.075c.032.012.066.02.1.024a.739.739 0 0 0 .125.188c.083.108.141.187.174.237.052.058.098.12.138.187.058.092.095.154.112.187.014.013.023.03.025.05.001.02.01.038.025.05v.324c0 .017.017.038.05.063.026.019.051.04.075.062a.2.2 0 0 1 .025.125c0 .083.008.125.025.125.009.036.026.07.05.1l.124.1c0 .033.009.05.026.05l.05.074.1.125.074.075h.324l.05-.05a.342.342 0 0 1 .013-.075.398.398 0 0 0 .012-.1.196.196 0 0 1 .025-.125.285.285 0 0 0 .05-.074.378.378 0 0 1 .075-.1.317.317 0 0 0 .1-.088c.033-.041.058-.07.074-.087a.57.57 0 0 0 .113-.025l.056-.015.056-.01a1.17 1.17 0 0 0 .063-.187.88.88 0 0 0 .037-.187.441.441 0 0 1 .05-.125l.023-.048a.381.381 0 0 0 .027-.102v-.574a.101.101 0 0 1 .025-.075l.05-.075c.016-.033.046-.087.087-.162a.4.4 0 0 0 .062-.162l.05-.05c.034-.033.059-.05.075-.05.05-.005.1-.013.15-.025.058-.013.116-.021.175-.025l.025-.025a.283.283 0 0 0 .075-.05v-.299a.1.1 0 0 1-.025-.075.1.1 0 0 1-.025-.075.142.142 0 0 1-.025-.1v-.174c0-.05.005-.1.012-.15.008-.066.013-.108.013-.125a.072.072 0 0 0 .025-.05.07.07 0 0 1 .025-.05c.016-.016.05-.054.1-.112s.074-.096.074-.112a.75.75 0 0 0 .113-.163.495.495 0 0 0 .062-.137c.033-.1.075-.262.125-.487.05-.224.083-.37.1-.436 0-.017-.005-.063-.013-.137a2.105 2.105 0 0 1-.013-.238c0-.033.005-.067.013-.1a.372.372 0 0 0 .013-.074c.006-.072.018-.143.037-.212.025-.108.046-.187.062-.237a.566.566 0 0 1 .075-.15 1.03 1.03 0 0 1 .1-.15.188.188 0 0 1 .025-.075.223.223 0 0 0 .025-.1c.017-.114.042-.226.075-.337.033-.11.058-.222.075-.336l.075-.1v-1.173a.665.665 0 0 1 .012-.1l.008-.05.004-.05c.004-.067.013-.133.025-.2.013-.065.021-.132.026-.2a.864.864 0 0 0 .05-.136.574.574 0 0 0 .024-.113c.028-.068.049-.14.063-.212.018-.07.03-.14.037-.212v-.599a.502.502 0 0 0-.062-.137.79.79 0 0 0-.112-.162c0-.033-.038-.092-.113-.175a1.007 1.007 0 0 1-.137-.175l-.05-.1a.143.143 0 0 1-.025-.1l-.025-.024a.45.45 0 0 1-.062-.088c-.025-.041-.046-.062-.063-.062 0-.033-.03-.075-.087-.125a.78.78 0 0 0-.137-.1 1.046 1.046 0 0 0-.2-.2 4.445 4.445 0 0 1-.224-.2c-.034 0-.08-.028-.138-.086-.059-.059-.087-.096-.087-.113a.562.562 0 0 1-.225-.125.15.15 0 0 1-.075-.037.69.69 0 0 0-.1-.063.55.55 0 0 0-.125-.137.287.287 0 0 0-.15-.087l-.049-.025-.05-.05a.487.487 0 0 0-.15-.037 1.51 1.51 0 0 0-.124-.013zm69.846 3.573-.022.022h-.05l-.16.16a.836.836 0 0 0-.14.161l-.01.014-.1.1-.07.093-.104.106a.354.354 0 0 0-.065.086l-.014.029h-.031c.004 0-.019.01-.091.074a5.654 5.654 0 0 0-.123.11c-.053.05-.109.098-.168.142a.63.63 0 0 0-.092.081v.006l-.008.013a5.647 5.647 0 0 1-.356.457c-.06.083-.106.174-.138.27a8.89 8.89 0 0 1-.127.29l-.01.015a4.264 4.264 0 0 0-.122.134.534.534 0 0 0-.089.113v.018c-.078.09-.172.227-.28.4a3.062 3.062 0 0 1-.226.326c-.017.035-.05.107-.096.215a.91.91 0 0 1-.125.23.733.733 0 0 1-.133.171l-.023.024c-.07.078-.114.125-.129.14a.041.041 0 0 0-.01.014c0 .025-.01.05-.025.069v.206a.061.061 0 0 0 .01.038l.015.015v.021c.002.006.005.01.01.014l.015.022c.035.027.072.05.11.069.09.05.164.093.217.127a.093.093 0 0 0 .022.017h.25a.432.432 0 0 0 .091-.033.384.384 0 0 0 .098-.052l.021-.013.327-.093a.099.099 0 0 1 .086-.034c.048.005.096 0 .142-.013l.016-.014.017.003h.071l.015.015a.31.31 0 0 0 .106.022c.073.009.116.012.132.012h.3a.358.358 0 0 0 .084-.022l.108-.067.583-.607a.114.114 0 0 1 .025-.048.12.12 0 0 1 .023-.048c0-.04.005-.109.012-.208a.864.864 0 0 1 .037-.232v-.04a.16.16 0 0 1 .026-.093c0-.034.007-.068.024-.098v-.533a.269.269 0 0 1 .03-.097l.047-.19c.007-.086.019-.172.036-.258.012-.09.033-.18.063-.266a.808.808 0 0 1 .026-.124.65.65 0 0 0 .023-.137v-.021l.015-.015c.008-.009.01-.013.01-.015 0-.1.011-.156.039-.184a.209.209 0 0 0 .01-.09v-.867l-.05-.025v-.031a.063.063 0 0 0-.01-.04l-.036-.036a.166.166 0 0 1-.05-.016l-.009-.004zM642.93 150.745l.53.008c1.47.04 2.93.275 4.34.696a9.552 9.552 0 0 1 4.93 3.597c.425.584.725 1.25.882 1.954.25 1.147.297 2.328.14 3.491a2.293 2.293 0 0 1-2.18 2.037c-.597.046-1.199.043-1.799.047-.96.006-1.92.012-2.88-.007a7.028 7.028 0 0 1-1.158-.133 1.595 1.595 0 0 1-.57-.25.854.854 0 0 1-.301-1.11c.096-.187.21-.363.34-.526.427-.58.867-1.15 1.287-1.735a2.616 2.616 0 0 0 .529-1.684c-.023-.509.006-1.022-.053-1.526a2.369 2.369 0 0 0-1.211-1.793 6.31 6.31 0 0 0-3.535-.855 8.915 8.915 0 0 0-1.954.267 4.79 4.79 0 0 0-3.803 4.278 11.75 11.75 0 0 0-.122 1.704c-.014 2.131-.006 4.262-.006 6.394l-.002 6.573c-.012.811.088 1.62.296 2.404a5.865 5.865 0 0 0 3.127 3.851c1.01.53 2.133.812 3.274.823.808.003 1.618.045 2.425.01.477-.032.95-.115 1.41-.249a2.95 2.95 0 0 0 2.123-2.235.91.91 0 0 0-.13-.77c-.272-.432-.56-.853-.824-1.29a21.092 21.092 0 0 1-.799-1.407.744.744 0 0 1 .403-1.104c.246-.11.512-.17.782-.174 1.199.021 2.4.046 3.595.128a1.064 1.064 0 0 1 1.138 1.222c0 .6-.063 1.2-.189 1.787a9.539 9.539 0 0 1-4.298 6.187 7.27 7.27 0 0 1-2.681.995c-2.956.627-6.031.343-8.822-.813a14.466 14.466 0 0 1-5.551-4.474 16.682 16.682 0 0 1-3.467-8.654 20.102 20.102 0 0 1 .569-7.493 14.018 14.018 0 0 1 1.899-4.157 12.8 12.8 0 0 1 8.64-5.648c1.383-.28 2.794-.4 4.206-.358zm117.21 2.97c5.538-.987 10.126.764 13.474 5.386a16.74 16.74 0 0 1 2.309 14.083 13.457 13.457 0 0 1-10.129 9.247c-.318.081-.643.14-.97.175-.508.03-1.02.008-1.529.008-1.44.06-2.88-.114-4.264-.514a12.074 12.074 0 0 1-6.358-4.331 15.992 15.992 0 0 1-3.3-11.912 13.977 13.977 0 0 1 1.02-4.179c1.897-4.297 5.09-7.135 9.746-7.964zm24.676.435a1.903 1.903 0 0 1 1.445.574c1.759 1.636 3.537 3.251 5.314 4.867 3.29 2.987 6.581 5.972 9.874 8.956.173.158.363.296.529.43.262-.126.196-.33.197-.495.008-1.322.004-2.643.008-3.964.005-1.592.02-3.183.014-4.775a5.844 5.844 0 0 0-.117-.975 1.55 1.55 0 0 0-.613-.963c-.564-.448-1.116-.911-1.67-1.372a8.579 8.579 0 0 1-.605-.538 1.148 1.148 0 0 1-.327-.816c-.01-.622.227-.892.846-.914.6-.02 1.2-.006 1.801-.006h4.595c.18.001.36-.006.54.005a.714.714 0 0 1 .705.978 2.488 2.488 0 0 1-.402.693 64.259 64.259 0 0 1-1.402 1.762 2.163 2.163 0 0 0-.516 1.487c.031 1.561.024 3.123.027 4.684l.022 13.063c.006.09.005.18-.002.27-.089.667.169 1.334.684 1.768.386.377.74.788 1.116 1.175.34.352.494.843.417 1.325a.602.602 0 0 1-.55.614c-.237.041-.476.06-.716.057a470.26 470.26 0 0 1-4.774-.004 3.16 3.16 0 0 1-.883-.124.629.629 0 0 1-.412-.864c.096-.252.225-.49.384-.708.282-.388.595-.754.894-1.13a1.443 1.443 0 0 0-.114-2.155c-.384-.38-.796-.73-1.196-1.094l-12.948-11.734c-.088-.08-.185-.15-.415-.332-.023.35-.045.55-.047.749-.049 4.234-.086 8.468-.152 12.7-.049.54.147 1.073.534 1.453.43.417.815.881 1.225 1.32.316.332.458.793.386 1.245a.648.648 0 0 1-.558.619 3.15 3.15 0 0 1-.625.053c-1.652.006-3.303.011-4.955.002a2.908 2.908 0 0 1-.794-.117.592.592 0 0 1-.443-.768c.054-.233.149-.454.28-.654.215-.324.465-.626.71-.929.227-.28.473-.545.7-.824.315-.368.506-.826.546-1.309.025-.359.054-.718.056-1.078.029-5.495.04-10.99.093-16.485a2.64 2.64 0 0 0-1.173-2.376c-.636-.45-1.229-.962-1.836-1.452a1.206 1.206 0 0 1-.48-1.106.758.758 0 0 1 .73-.767c.15-.012.3-.016.45-.011 1.201 0 2.403.026 3.603-.01zm-112.129.033a.78.78 0 0 1 .907.676c.045.173.116.34.174.51a37496.06 37496.06 0 0 0 6.474 19.268c.153.454.32.905.495 1.35a7.83 7.83 0 0 0 1.899 2.812c.52.498 1.026 1.01 1.54 1.515.318.286.485.703.452 1.129a.55.55 0 0 1-.497.55c-.238.034-.477.05-.717.047-3.331.007-6.662.006-9.993-.004a3.51 3.51 0 0 1-.971-.137.677.677 0 0 1-.504-.839 2.28 2.28 0 0 1 .285-.745c.214-.36.471-.695.717-1.035.46-.646.621-1.456.445-2.229-.114-.618-.266-.753-.893-.79-.419-.024-.84-.03-1.26-.031-2.58-.004-5.16-.005-7.741-.004-.236 0-.472.022-.769.037a6.677 6.677 0 0 0-.526 2.167c-.022.36.089.718.311 1.003.196.228.372.472.526.73.168.281.298.584.385.9a.713.713 0 0 1-.612.925 3.243 3.243 0 0 1-.626.048c-1.65.003-3.301.003-4.951 0-.18.005-.36-.006-.539-.031a.65.65 0 0 1-.596-.902c.07-.26.191-.5.359-.71.299-.375.627-.727.98-1.052a8.644 8.644 0 0 0 2.478-4.002c1.252-4.1 2.507-8.199 3.763-12.297.484-1.577.973-3.151 1.459-4.727.062-.2.127-.4.17-.605a1.953 1.953 0 0 0-.411-1.77 4.965 4.965 0 0 1-.575-.8.494.494 0 0 1 .364-.808c.38-.087.767-.135 1.157-.143 2.22-.014 4.44-.007 6.661-.008.06 0 .121.008.18.002zm18.989-.06a1.823 1.823 0 0 1 1.368.532c2.298 2.112 4.602 4.218 6.911 6.318 2.777 2.522 5.556 5.042 8.336 7.561.15.136.313.258.448.368.186-.06.212-.174.215-.283v-.106c.018-.81.03-1.62.033-2.43l.02-5.764.007-.6-.007-.3a2.17 2.17 0 0 0-.875-1.785c-.557-.405-1.074-.866-1.603-1.309a5.029 5.029 0 0 1-.591-.55 1.175 1.175 0 0 1-.227-1.103.602.602 0 0 1 .549-.516c.209-.018.42-.03.629-.03l6.213.003c.15 0 .3-.004.45.01a.611.611 0 0 1 .628.627c.023.303-.073.603-.268.836-.335.424-.675.843-1.011 1.267-.224.282-.438.572-.664.851a1.865 1.865 0 0 0-.42 1.25c.016 1.35.011 2.7.017 4.052l.057 13.866c.002.06.002.12-.002.18a1.947 1.947 0 0 0 .63 1.701c.412.394.783.83 1.177 1.24.362.376.512.907.4 1.416a.534.534 0 0 1-.464.483 5.224 5.224 0 0 1-.716.06c-1.65.005-3.301.004-4.952-.003a3.25 3.25 0 0 1-.714-.07.643.643 0 0 1-.495-.824 1.84 1.84 0 0 1 .254-.57c.218-.322.473-.62.701-.935.21-.291.42-.585.604-.892a1.109 1.109 0 0 0-.13-1.34c-.248-.3-.52-.58-.814-.837a5426.14 5426.14 0 0 0-13.408-12.154c-.148-.134-.304-.26-.592-.505-.025.405-.046.612-.048.82l-.12 12.606c.003.06.002.12-.002.18-.067.482.117.966.488 1.282.404.4.785.828 1.154 1.262.183.195.326.425.419.677.064.258.071.528.022.79a.542.542 0 0 1-.49.463c-.208.027-.418.04-.628.04-1.68.008-3.361.01-5.042.009-.21.001-.42-.018-.626-.058a.642.642 0 0 1-.535-.868c.062-.23.165-.448.304-.643.287-.421.606-.82.954-1.193a3.526 3.526 0 0 0 1.005-2.69c-.028-2.4.018-4.802.036-7.203l.07-9.274c0-.15-.002-.3.002-.45a2.254 2.254 0 0 0-.94-1.944c-.523-.403-1.046-.807-1.562-1.218a7.416 7.416 0 0 1-.677-.593 1.122 1.122 0 0 1-.292-1.08.673.673 0 0 1 .672-.608c.15-.014.3-.02.45-.016 1.23 0 2.462.02 3.692-.006zm47.267.003c2.072 0 4.143.002 6.214.003.12 0 .24-.003.36.005a.647.647 0 0 1 .69.75 1.17 1.17 0 0 1-.286.739c-.394.492-.789.983-1.18 1.477-.186.236-.362.479-.547.716-.24.31-.363.696-.347 1.089.014 1.23.004 2.461.007 3.692.01 4.803.033 9.607.023 14.41a2.278 2.278 0 0 0 .685 1.778c.41.395.784.828 1.173 1.245.317.33.472.784.423 1.24a.647.647 0 0 1-.61.659c-.238.03-.478.043-.718.04-1.561.003-3.122.005-4.683-.003-.3.002-.599-.024-.893-.08a.606.606 0 0 1-.482-.665c.022-.3.136-.588.327-.821.323-.47.665-.927.956-1.416a1.369 1.369 0 0 0-.186-1.95 8.676 8.676 0 0 0-.743-.782c-4.38-3.973-8.76-7.945-13.143-11.915-.153-.138-.317-.265-.621-.518-.02.357-.038.528-.039.7-.031 4.322-.056 8.645-.097 12.968-.037.42.11.836.403 1.14.444.446.847.933 1.282 1.389.324.323.484.775.438 1.23a.66.66 0 0 1-.675.694c-.21.02-.42.03-.63.028-1.62.004-3.242.004-4.863-.002-.24.004-.48-.02-.715-.069a.65.65 0 0 1-.48-.9c.108-.279.253-.542.431-.783.301-.411.626-.806.971-1.181a3.163 3.163 0 0 0 .861-2.29c-.009-3.451.017-6.904.042-10.356.015-2.132.05-4.263.074-6.394.013-.27.005-.54-.024-.808a2.252 2.252 0 0 0-.887-1.513c-.571-.44-1.139-.883-1.702-1.332a5.076 5.076 0 0 1-.602-.54 1.113 1.113 0 0 1-.289-.999.724.724 0 0 1 .736-.657c.419-.026.84-.016 1.26-.016l1.982.006.99-.007c.422-.018.832.14 1.131.438 1.272 1.188 2.562 2.357 3.85 3.528 3.867 3.512 7.734 7.023 11.602 10.532.125.113.27.204.389.294.239-.157.178-.352.18-.517.005-1.711 0-3.422.005-5.134.002-1.14.016-2.281.022-3.422.002-.24.005-.481-.015-.72a1.839 1.839 0 0 0-.717-1.392c-.572-.437-1.119-.907-1.672-1.369-.21-.17-.41-.35-.6-.542a1.244 1.244 0 0 1-.229-1.267.506.506 0 0 1 .45-.388c.239-.027.478-.041.718-.042zm26.27 2.273h-.198c-.9.015-1.8.046-2.699.067-.57.013-1.142-.007-1.71.035a3.273 3.273 0 0 0-3.117 2.749 6.61 6.61 0 0 0-.111 1.25c-.01 2.55-.005 5.101-.005 7.652 0 2.43.001 4.86.004 7.291.001.39.006.781.04 1.169.07.85.495 1.632 1.17 2.153.62.534 1.407.833 2.225.845.87.006 1.74.037 2.61.053.63.012 1.26.024 1.89.024a3.017 3.017 0 0 0 2.911-1.883c.394-.847.59-1.771.574-2.705-.003-4.68-.009-9.362-.016-14.043a6.96 6.96 0 0 0-.316-2.128c-.623-1.941-1.706-2.556-3.45-2.528zm-97.012 3.088-.073.004a.38.38 0 0 0-.284.201c-.096.186-.173.38-.232.58-1.351 4.415-2.7 8.829-4.048 13.244-.042.137-.06.282-.107.514.15.03.301.051.454.064 2.61.007 5.222.013 7.833.017.09.002.18 0 .27-.008.536-.053.7-.249.585-.767-.135-.615-.304-1.222-.453-1.834-.839-3.439-1.761-6.854-2.898-10.208a15.75 15.75 0 0 0-.436-1.181 1.707 1.707 0 0 0-.355-.509.38.38 0 0 0-.33-.113zm145.362-5.29a.188.188 0 0 1 .187.125l.785 1.87c.057.135.163.135.22 0l.784-1.87a.188.188 0 0 1 .188-.126h.178a.146.146 0 0 1 .163.163v2.521a.146.146 0 0 1-.163.163h-.13a.146.146 0 0 1-.162-.163v-1.065c0-.163-.126-.188-.187-.037l-.48 1.138a.188.188 0 0 1-.187.127h-.228a.188.188 0 0 1-.187-.127l-.48-1.138c-.06-.15-.187-.126-.187.037v1.065a.146.146 0 0 1-.162.163h-.13a.146.146 0 0 1-.163-.163v-2.521a.146.146 0 0 1 .163-.163zm-1.115 0a.146.146 0 0 1 .163.162v.142a.146.146 0 0 1-.163.163h-.455a.146.146 0 0 0-.163.163v2.053a.146.146 0 0 1-.163.163h-.142a.146.146 0 0 1-.162-.163v-2.053a.146.146 0 0 0-.163-.163h-.46a.146.146 0 0 1-.162-.163v-.142a.146.146 0 0 1 .162-.163zm-181.9-37.616 4.774.005c.3.002.598.04.888.113a.624.624 0 0 1 .47.68 1.56 1.56 0 0 1-.423.971c-.381.464-.754.937-1.167 1.371a3.918 3.918 0 0 0-1.057 2.87c.012 5.044-.013 10.088-.02 15.131 0 .48.019.96.054 1.44.06.822.49 1.573 1.17 2.04.738.58 1.65.893 2.588.89 1.02-.011 2.042 0 3.062-.006a4.459 4.459 0 0 0 2.066-.546 2.516 2.516 0 0 0 1.256-1.465 5.634 5.634 0 0 0 .3-1.767l.095-8.555.082-4.052c.028-1.351.064-2.701.12-4.05a2.589 2.589 0 0 0-.936-2.303c-.093-.076-.163-.18-.258-.251a1.904 1.904 0 0 1-.614-1.955.466.466 0 0 1 .47-.452c.09-.01.18-.01.27-.01 1.71-.028 3.421-.057 5.132-.078.27-.007.54.013.805.06a.635.635 0 0 1 .547.79 2.49 2.49 0 0 1-.348.814c-.23.315-.477.618-.738.908-.323.394-.648.788-.965 1.188a2.564 2.564 0 0 0-.566 1.67c.01 1.02.003 2.04.002 3.061-.007 3.363.013 6.726-.035 10.087a27.416 27.416 0 0 1-.318 3.674 7.112 7.112 0 0 1-2.035 4.126 6.988 6.988 0 0 1-2.92 1.718 13.595 13.595 0 0 1-11.042-1.105 7.472 7.472 0 0 1-3.796-5.507 16.778 16.778 0 0 1-.203-2.96v-12.25c0-.21-.002-.42 0-.63a2.794 2.794 0 0 0-.738-1.975 39.624 39.624 0 0 0-1.487-1.565 1.621 1.621 0 0 1-.527-1.46c.055-.381.19-.544.553-.607.237-.038.477-.055.717-.052 3.182-.007 6.364-.007 9.546 0zm123.27.025a13.14 13.14 0 0 1 3.563.428c1.57.429 3.016 1.22 4.224 2.31a8.409 8.409 0 0 1-1.154 13.329c-.48.302-.987.564-1.605.915.126.128.26.248.4.359a5.545 5.545 0 0 1 1.867 2.152c.491.928.951 1.874 1.472 2.784.356.623.793 1.199 1.195 1.795.4.615 1.08.992 1.813 1.006.794.051.887.228.605.956a4.033 4.033 0 0 1-1.66 1.955 5.704 5.704 0 0 1-6.876-.908 9.29 9.29 0 0 1-1.923-3.018c-.2-.5-.367-1.014-.54-1.525a15.688 15.688 0 0 0-1.92-3.855 4.776 4.776 0 0 0-2.289-1.82c-.63-.237-.88-.188-.873.588.017 1.68.01 3.361-.001 5.042-.016.85.29 1.674.857 2.307.413.476.838.942 1.235 1.431.211.252.39.53.53.828a.694.694 0 0 1-.467.995 2.42 2.42 0 0 1-.707.083l-9.094-.008c-.3 0-.6.018-.9.017a.845.845 0 0 1-.843-.407 1.082 1.082 0 0 1 .034-1.192c.174-.243.387-.458.58-.686.447-.527.887-1.058 1.339-1.58.451-.53.684-1.21.65-1.905-.019-3.482-.008-6.964-.008-10.446 0-2.011-.023-4.023.01-6.033a3.11 3.11 0 0 0-.862-2.287c-.531-.57-1.032-1.17-1.546-1.758a1.295 1.295 0 0 1-.309-1.171.662.662 0 0 1 .6-.581c.268-.024.538-.033.808-.027 2.521-.01 5.043-.023 7.564-.039 1.41-.008 2.82-.037 4.231-.034zm-22.823-.006c.27-.008.54.003.808.032.663.024 1.2.548 1.238 1.21.132.982.225 1.968.326 2.953.1.986.148 1.978.295 2.956.153 1.011-.45 1.177-1.145 1.113a1.408 1.408 0 0 1-.99-.565c-.54-.682-1.076-1.368-1.607-2.057a1.56 1.56 0 0 1-.312-1.012c.008-.45.005-.9 0-1.35a2.89 2.89 0 0 0-.038-.538.631.631 0 0 0-.565-.497c-.15-.013-.3-.017-.45-.013-2.04 0-4.082-.004-6.124.001-.97.003-1.08.121-1.123 1.077-.125 2.731-.098 5.462.002 8.194.004.09 0 .18.008.27a1.07 1.07 0 0 0 .996 1.091 3.873 3.873 0 0 0 3.549-1.106c.56-.584 1.098-1.192 1.634-1.8a1.816 1.816 0 0 1 1.165-.616c.119-.016.24-.017.358-.003a.75.75 0 0 1 .77.817c.015.21.009.42.008.63l-.006 6.666v.18c-.012.387.06.834-.35 1.05a1.45 1.45 0 0 1-1.46-.068 2.91 2.91 0 0 1-.61-.527 74.638 74.638 0 0 1-1.452-1.6 3.745 3.745 0 0 0-3.223-1.275c-.934.06-1.374.483-1.38 1.417-.014 2.792-.006 5.584-.005 8.377 0 .12.007.24.02.359a.611.611 0 0 0 .502.563c.204.046.413.068.623.066 2.431.002 4.863.003 7.295.003.375.027.749-.068 1.067-.268a2.8 2.8 0 0 0 .09-1.385 2.378 2.378 0 0 1 .531-1.76c.333-.424.612-.89.934-1.323.234-.312.483-.612.748-.899a1.492 1.492 0 0 1 1.397-.446.67.67 0 0 1 .629.65c.007.15.001.3-.018.45-.17 1.762-.345 3.524-.522 5.285a6.726 6.726 0 0 1-.114.711 1.207 1.207 0 0 1-1.134 1.098c-.327.04-.658.054-.988.044a12222.54 12222.54 0 0 1-18.914.002c-.3.016-.6.003-.897-.04a.971.971 0 0 1-.665-1.521c.114-.176.245-.34.39-.492.417-.473.825-.955 1.26-1.411a3.432 3.432 0 0 0 .962-2.532c-.029-2.521-.019-5.044-.018-7.566 0-2.762.011-5.524.01-8.286.011-.39-.014-.78-.077-1.165a3.42 3.42 0 0 0-.86-1.659c-.465-.51-.925-1.025-1.393-1.533a1.363 1.363 0 0 1-.391-1.234.7.7 0 0 1 .664-.622c.268-.026.54-.016.81-.017 3.992-.012 7.985-.026 11.978-.042 1.921-.008 3.842-.027 5.764-.037zm75.96.003c.3-.005.6.024.892.088a.626.626 0 0 1 .497.818c-.08.287-.214.557-.395.793a41.7 41.7 0 0 1-1.436 1.733c-.459.521-.75 1.17-.837 1.859-.023.239-.031.479-.024.719l.002 3.152c.003 4.653.008 9.305.013 13.958.001.6.005 1.2.022 1.8.023.825.248 1.04 1.093 1.076.03.002.06.001.09.001h3.287l3.287-.006c.268-.005.536-.043.796-.112a.61.61 0 0 0 .56-.694c.025-.6.038-1.201.02-1.8a1.75 1.75 0 0 1 .367-1.176c.463-.59.933-1.173 1.411-1.75a1.597 1.597 0 0 1 1.625-.53.579.579 0 0 1 .521.535c.021.24.02.48-.005.719a775.685 775.685 0 0 1-.544 5.192 5.475 5.475 0 0 1-.16.885.986.986 0 0 1-.79.775 6.33 6.33 0 0 1-1.068.112c-3.092.009-6.183.005-9.275.005-3.062.004-6.123.004-9.185.003-.24.008-.48.004-.72-.011a.963.963 0 0 1-.795-1.383 3.05 3.05 0 0 1 .474-.65c.506-.593 1.022-1.178 1.534-1.766a2.881 2.881 0 0 0 .694-1.993c-.01-1.17-.007-2.341-.006-3.512l.007-12.067c0-.24-.009-.48.003-.72a3.454 3.454 0 0 0-.999-2.614c-.45-.484-.882-.983-1.327-1.47a1.442 1.442 0 0 1-.454-.953c-.008-.581.243-.949.831-.936.09.002.18-.004.27-.004 3.242-.03 6.483-.056 9.725-.076zm-17.514-.002c.33-.006.66.011.988.052.599.018 1.091.478 1.15 1.075.078.381.116.771.157 1.16.167 1.611.296 3.228.504 4.835.13 1.002-.404 1.23-1.215 1.13a1.165 1.165 0 0 1-.834-.478c-.71-.967-1.418-1.937-2.123-2.908a1.58 1.58 0 0 1-.27-1.025c.021-.33.023-.66.006-.99a.592.592 0 0 0-.641-.61c-.39-.02-.78-.014-1.17-.014-1.862 0-3.724.001-5.585.004-.21-.006-.42.003-.629.026a.661.661 0 0 0-.594.586c-.029.208-.041.419-.036.629a22271.736 22271.736 0 0 0 .016 8.737c.036 1.056.427 1.479 1.472 1.522a3.667 3.667 0 0 0 2.996-1.18c.549-.596 1.1-1.191 1.642-1.793a1.792 1.792 0 0 1 1.613-.614.673.673 0 0 1 .708.666c.016.18.022.36.016.54v7.026c.004.18 0 .36-.014.54a.69.69 0 0 1-.674.71 1.523 1.523 0 0 1-1.474-.47c-.467-.508-.936-1.015-1.405-1.522a45.3 45.3 0 0 0-.555-.591 3.504 3.504 0 0 0-3.305-.983 1.124 1.124 0 0 0-1.007 1.095c-.014.18-.019.36-.013.54 0 1.591.02 3.183-.009 4.774-.03.849.275 1.675.848 2.303.416.473.827.951 1.226 1.44.195.227.364.476.504.741a.774.774 0 0 1-.639 1.187c-.24.02-.48.026-.72.017H771.187c-.24.008-.48.003-.72-.016a.936.936 0 0 1-.747-1.395 3 3 0 0 1 .431-.572c.433-.498.868-.996 1.315-1.482a3.286 3.286 0 0 0 .895-2.469c-.006-.12 0-.24 0-.36V123.06c0-.06-.004-.12.001-.18a3.616 3.616 0 0 0-1.129-3.012c-.47-.462-.883-.982-1.317-1.48a1.135 1.135 0 0 1-.263-1.089.732.732 0 0 1 .694-.6c.179-.017.36-.023.54-.02 6.184-.029 12.368-.055 18.553-.078zm-84.083-.02c1.167 0 1.728.353 1.855 1.692.128 1.344.267 2.687.402 4.03.043.417.092.834.132 1.252.029.208.039.418.03.627a.685.685 0 0 1-.717.658 1.053 1.053 0 0 1-.826-.28c-.637-.635-1.27-1.275-1.91-1.908a2.205 2.205 0 0 1-.668-1.706c.012-.42.007-.84-.02-1.26a.76.76 0 0 0-.756-.837 2.166 2.166 0 0 0-.36-.021c-1.08 0-2.16.002-3.24.006-.12 0-.24.008-.358.025a.549.549 0 0 0-.5.45 5.82 5.82 0 0 0-.087.983l.005 13.955c0 1.41.011 2.821-.022 4.23a4.575 4.575 0 0 0 1.232 3.371c.367.395.703.82 1.041 1.241.22.25.351.566.374.899a.598.598 0 0 1-.457.681c-.232.059-.47.087-.71.086-3.301.008-6.602.01-9.903.002-.917-.002-1.212-.375-.976-1.245a2.14 2.14 0 0 1 .427-.773c.441-.53.91-1.039 1.384-1.54.502-.525.77-1.231.744-1.957.01-6.332.044-12.664.065-18.997.002-.299-.024-.597-.077-.892a.59.59 0 0 0-.557-.504 3.253 3.253 0 0 0-.359-.022l-3.24.005c-.06-.002-.12 0-.18.005a.852.852 0 0 0-.872.85 9.967 9.967 0 0 0-.043 1.438 1.935 1.935 0 0 1-.608 1.535c-.61.62-1.204 1.257-1.821 1.87-.29.367-.786.5-1.22.325a.73.73 0 0 1-.506-.674c-.011-.21-.006-.42.016-.629.184-1.76.374-3.52.57-5.279.027-.268.079-.534.153-.794.092-.426.442-.748.874-.803a8.642 8.642 0 0 1 1.163-.088l9.633.012h.45v-.018zm137.957 0c.75-.002 1.502-.012 2.25.018.357.023.71.083 1.055.178a.8.8 0 0 1 .218 1.433c-.135.12-.297.205-.473.247-.403.121-.77.338-1.071.634-.592.508-1.188 1.01-1.788 1.509a5.958 5.958 0 0 0-1.068 1.205 48.152 48.152 0 0 0-3.302 6.184c-.78 1.554-1.514 3.132-2.307 4.68a4.45 4.45 0 0 0-.48 2.166c.021 1.32.029 2.641-.013 3.96a3.826 3.826 0 0 0 1.134 3.015c.403.403.785.827 1.142 1.271.17.207.297.446.372.703.143.53-.105.86-.66.948a2.303 2.303 0 0 1-.36.018c-3.21.004-6.42.006-9.63.007-.24.01-.48-.001-.719-.034a.893.893 0 0 1-.637-1.427c.154-.222.33-.428.523-.615.452-.481.912-.955 1.366-1.434.5-.53.766-1.24.734-1.969-.013-1.26-.018-2.52 0-3.78a3.191 3.191 0 0 0-.438-1.627c-.871-1.575-1.728-3.157-2.59-4.737-1.177-2.16-2.366-4.312-3.524-6.482a9.736 9.736 0 0 0-2.035-2.613c-.464-.426-.92-.862-1.39-1.281a1.437 1.437 0 0 1-.479-1.292c.05-.537.233-.732.79-.776.21-.017.42-.011.63-.011h9.363c.21-.008.42-.003.63.013a.753.753 0 0 1 .59 1.279c-.28.39-.597.752-.889 1.133-.129.164-.245.34-.346.522-.187.318-.19.712-.007 1.032.115.21.224.424.339.635 1.544 2.848 3.092 5.692 4.646 8.535.138.251.2.58.587.684.1-.136.193-.279.276-.426 1.23-2.47 2.453-4.943 3.67-7.42.142-.296.256-.606.341-.924.21-.611.05-1.29-.41-1.743-.396-.408-.747-.86-1.118-1.291-.059-.068-.12-.134-.177-.204a1.057 1.057 0 0 1 .582-1.797 4.2 4.2 0 0 1 .983-.1c1.23-.018 2.46-.022 3.69-.025zm-171.961.002 5.178.002c.21.001.42.013.629.036a1.278 1.278 0 0 1 1.185 1.059 3.8 3.8 0 0 1 .092.53c.177 1.702.353 3.404.52 5.106.043.327.05.658.022.987a.806.806 0 0 1-1.229.586c-.104-.06-.2-.134-.286-.218-.63-.6-1.263-1.196-1.88-1.808a1.973 1.973 0 0 1-.61-1.63c.036-.447.006-.9.032-1.35a.91.91 0 0 0-.964-1.042c-.359-.021-.72-.02-1.08-.02-.78.001-1.561 0-2.342.013-.82.013-.968.158-1.034 1.008-.032.42-.057.84-.056 1.26.021 5.854.056 11.708.064 17.562a2.97 2.97 0 0 0 .705 1.978c.532.65 1.013 1.34 1.512 2.016.277.36.436.796.456 1.25a.702.702 0 0 1-.657.812c-.239.03-.479.042-.719.036-3.242.004-6.484.004-9.727 0-.93 0-1.303-.51-.989-1.394.13-.334.31-.647.53-.929.413-.553.845-1.092 1.296-1.614a3.201 3.201 0 0 0 .755-2.16c.01-1.08.02-2.16.022-3.241.012-4.774.02-9.548.027-14.321 0-.48-.003-.962-.038-1.44-.043-.594-.257-.81-.848-.818a123.93 123.93 0 0 0-3.512.001c-.59.009-.794.222-.835.823-.031.449-.044.9-.037 1.35a2.278 2.278 0 0 1-.566 1.573c-.61.702-1.243 1.384-1.871 2.07-.103.11-.218.206-.344.288a.92.92 0 0 1-1.454-.597 1.452 1.452 0 0 1-.016-.447c.203-1.91.407-3.82.613-5.728.012-.18.037-.359.075-.535a1.18 1.18 0 0 1 1.04-.98 9.306 9.306 0 0 1 1.075-.07c3.242.004 6.485.007 9.727.012h.36v-.016c3.452 0 6.905 0 10.357.002zm-75.306-3.13c4.564.003 9.129-.017 13.692.023a10.89 10.89 0 0 1 7.15 2.537 6.502 6.502 0 0 1 2.2 6.892 5.735 5.735 0 0 1-2.802 3.704c-.412.246-.846.454-1.264.689-.139.091-.27.191-.396.3l.745.251.912.298.448.169a7.556 7.556 0 0 1 4.744 5.903 9.965 9.965 0 0 1 .084 3.315 6.707 6.707 0 0 1-2.896 4.682 12.998 12.998 0 0 1-4.68 2.019c-1.495.339-3.022.508-4.555.504-4.354.017-8.708.007-13.062.002a4.72 4.72 0 0 1-.894-.065.768.768 0 0 1-.638-.672 1.334 1.334 0 0 1 .312-1.253c.438-.453.859-.923 1.281-1.391.221-.245.43-.5.643-.753.564-.675.86-1.532.831-2.41a3987.12 3987.12 0 0 1 0-18.108 4.208 4.208 0 0 0-1.124-2.95c-.524-.58-1.039-1.167-1.575-1.733a1.417 1.417 0 0 1-.387-1.239.705.705 0 0 1 .691-.695c.18-.018.36-.025.54-.02zm13.992 15.828a10.95 10.95 0 0 0-4.205.827c-1.22.46-1.415.745-1.404 2.074.03 3.027.063 6.055.1 9.082.003.233.044.466.073.759.223.026.34.052.457.052 2.399.003 4.797 0 7.196.005a1.963 1.963 0 0 0 1.933-1.338 4.017 4.017 0 0 0 .278-1.582c.008-2.039.027-4.078.025-6.117a6.943 6.943 0 0 0-.119-1.158 2.498 2.498 0 0 0-1.554-1.95 7.33 7.33 0 0 0-2.78-.654zm144.811-10.056c-1.287-.024-2.576-.015-3.864-.008-.855.004-.92.075-.932.917-.003.18.006.36.006.54v4.223h.076l.001 4.584c0 .209.009.419.019.628.01.185.13.345.305.406.14.053.283.097.429.132 1.237.359 2.426.867 3.54 1.514a6.2 6.2 0 0 0 .805.393 1.357 1.357 0 0 0 1.96-.82c.155-.391.223-.811.2-1.231l-.001-8.988c0-.15-.005-.3-.014-.449a1.737 1.737 0 0 0-1.295-1.652 4.34 4.34 0 0 0-1.235-.189zm-147.948-3.636-1.679.002c-.195.01-.39.029-.584.059-.199.322-.272.705-.206 1.078.029 3.448.06 6.897.096 10.345.002.237.034.473.053.711.148.03.18.046.206.04.115-.031.229-.068.34-.113a12.578 12.578 0 0 1 4.544-.97c.418-.015.836-.072 1.252-.128a1.656 1.656 0 0 0 1.347-1.058 4.042 4.042 0 0 0 .3-1.669c.003-1.92.01-3.838.008-5.758.004-.3-.017-.6-.065-.895a1.757 1.757 0 0 0-1.201-1.445 3.414 3.414 0 0 0-1.052-.184c-1.68-.02-3.359-.015-5.038-.013zM724.088 92.72c.09-.002.18.001.27.01a.42.42 0 0 1 .352.65c-.1.219-.234.42-.396.596a3.303 3.303 0 0 0-.869 2.472c.023 2.46.024 4.92.002 7.38-.046.849.261 1.679.85 2.291.18.199.328.425.437.67a.382.382 0 0 1-.292.55 3.11 3.11 0 0 1-.623.069c-1.38.013-2.76.017-4.14.014a3.42 3.42 0 0 1-.8-.087.48.48 0 0 1-.283-.777c.146-.266.4-.457.695-.526.376-.054.64-.4.593-.777-.004-1.14.011-2.28-.003-3.42-.007-.564-.177-.749-.764-.77a86.785 86.785 0 0 0-3.24-.046c-.45 0-.618.174-.722.639a1.564 1.564 0 0 0-.061.354c.015 1.11.035 2.218.062 3.328a.731.731 0 0 0 .505.681c.336.138.615.384.796.698a.392.392 0 0 1-.264.622c-.235.046-.473.069-.712.07-1.26.022-2.52.047-3.779.046a5.225 5.225 0 0 1-1.154-.132.45.45 0 0 1-.287-.707 3.64 3.64 0 0 1 .554-.703 2.672 2.672 0 0 0 .81-2.106c-.033-2.49-.033-4.981.001-7.471a2.793 2.793 0 0 0-.848-2.184 2.878 2.878 0 0 1-.538-.815.425.425 0 0 1 .356-.596c.12-.015.24-.02.36-.018 1.65-.004 3.3-.006 4.95-.005.146 0 .292.027.49.046.179.43.02.926-.375 1.171a1.227 1.227 0 0 1-.402.193.626.626 0 0 0-.453.688c-.006.63-.029 1.26-.029 1.89 0 .6.008 1.2.034 1.8.019.457.143.573.61.582.329.007.659-.03.988-.032.63-.002 1.26.01 1.89.009.24 0 .48-.01.719-.03a.516.516 0 0 0 .48-.46c.03-.177.043-.356.038-.536 0-.9-.016-1.8-.003-2.7a1.223 1.223 0 0 0-.758-1.295 1.34 1.34 0 0 1-.517-.47.515.515 0 0 1 .342-.825c.118-.02.238-.027.358-.023 1.59-.004 3.18-.006 4.77-.008zm-17.366-.004.18.01a.677.677 0 0 1 .722.652c.136.828.253 1.659.374 2.489.07.474.148.948.193 1.424a.513.513 0 0 1-.136.394.385.385 0 0 1-.493-.064c-.299-.25-.597-.501-.887-.76-.224-.2-.43-.418-.654-.619a1.15 1.15 0 0 1-.426-.858 1.933 1.933 0 0 0-.081-.441c-.078-.297-.202-.424-.492-.433-.45-.013-.9-.01-1.348.021a.571.571 0 0 0-.539.518c-.027.208-.039.418-.034.628.006 2.85.019 5.7.019 8.549a2.391 2.391 0 0 0 .566 1.571c.219.246.423.505.612.775.283.441.129.764-.373.831a3.59 3.59 0 0 1-.449.018c-1.41.01-2.819.026-4.228.026-.268 0-.534-.037-.792-.108a.415.415 0 0 1-.26-.58c.125-.235.273-.458.442-.665.182-.237.408-.442.575-.687.226-.358.337-.775.32-1.198l.07-8.638c0-.06.002-.12 0-.18-.033-.79-.121-.881-.884-.901a9.86 9.86 0 0 0-.81.002c-.425.024-.579.175-.63.605-.018.148-.005.3-.01.45.005.365-.14.716-.4.972-.48.451-.966.899-1.461 1.333-.177.155-.383.318-.646.17-.256-.143-.254-.384-.211-.631.144-.827.285-1.654.435-2.48.1-.56.21-1.119.327-1.676.051-.166.116-.328.192-.485.335-.013.602-.032.869-.032l9.988-.001c.18 0 .36-.007.54.008zm30.76.004c.993 0 1.14.13 1.262 1.105.089.715.16 1.432.225 2.15.024.238.024.479 0 .718a.467.467 0 0 1-.788.338c-.395-.322-.765-.675-1.14-1.021a1.345 1.345 0 0 1-.388-.883c-.061-.5-.163-.607-.597-.617a66.334 66.334 0 0 0-2.792-.01c-.436.007-.65.157-.658.58a85.674 85.674 0 0 0 .031 3.864.506.506 0 0 0 .488.457 1.781 1.781 0 0 0 1.592-.419l.895-.888c.165-.173.353-.323.558-.446a.548.548 0 0 1 .81.423c.013.089.02.179.02.269v3.423l-.002.09c-.011.247-.04.493-.313.593a.73.73 0 0 1-.761-.126c-.204-.176-.387-.377-.575-.57-.21-.215-.404-.445-.624-.649a1.768 1.768 0 0 0-1.501-.445.645.645 0 0 0-.608.566c-.027.148-.04.297-.041.447-.012 1.051-.01 2.102-.032 3.153-.015.74.278.936.815.96 1.164.052 2.334-.004 3.501-.037a.447.447 0 0 0 .434-.491c.008-.55.284-1.061.74-1.37.3-.29.623-.557.964-.798a.509.509 0 0 1 .801.485c-.025.63-.105 1.256-.167 1.883-.026.269-.07.535-.1.804-.096.849-.284 1.052-1.116 1.076-.9.026-1.801.01-2.702.011h-2.342c-1.441.001-2.883.004-4.324 0a9.54 9.54 0 0 1-.989-.046.454.454 0 0 1-.395-.651c.08-.194.2-.368.352-.512a3.17 3.17 0 0 0 1.01-2.666c-.051-2.281-.014-4.564-.014-6.847 0-.24.004-.48-.003-.72a2.187 2.187 0 0 0-.58-1.474 7.627 7.627 0 0 1-.587-.683 1.213 1.213 0 0 1-.203-.483.454.454 0 0 1 .386-.518c.15-.016.3-.021.45-.017 3.003-.007 6.005-.01 9.008-.008z" fill="#000"/>
    </g>
</svg>
