<svg width="21" height="21" viewBox="0 0 21 21" xmlns="http://www.w3.org/2000/svg">
    <defs>
        <filter color-interpolation-filters="auto" id="a">
            <feColorMatrix in="SourceGraphic" values="0 0 0 0 1.000000 0 0 0 0 1.000000 0 0 0 0 1.000000 0 0 0 1.000000 0"/>
        </filter>
        <filter color-interpolation-filters="auto" id="b">
            <feColorMatrix in="SourceGraphic" values="0 0 0 0 1.000000 0 0 0 0 1.000000 0 0 0 0 1.000000 0 0 0 1.000000 0"/>
        </filter>
    </defs>
    <g transform="translate(-656 -216)" filter="url(#a)" fill="none" fill-rule="evenodd">
        <g transform="translate(486 78.278)" filter="url(#b)">
            <path d="M190.938 143.895c-.049-1.116-.23-1.883-.488-2.547a5.124 5.124 0 0 0-1.214-1.863 5.167 5.167 0 0 0-1.858-1.21c-.668-.258-1.431-.438-2.547-.488-1.124-.053-1.48-.065-4.331-.065-2.85 0-3.207.012-4.327.061-1.116.05-1.883.23-2.547.488a5.123 5.123 0 0 0-1.862 1.214 5.17 5.17 0 0 0-1.21 1.859c-.259.668-.44 1.43-.488 2.546-.054 1.124-.066 1.481-.066 4.332 0 2.85.012 3.207.062 4.327.049 1.116.23 1.883.488 2.547.266.706.68 1.337 1.214 1.862.525.533 1.16.948 1.858 1.21.668.259 1.431.439 2.547.488 1.12.05 1.476.062 4.327.062 2.85 0 3.207-.013 4.327-.062 1.116-.05 1.883-.23 2.547-.488a5.37 5.37 0 0 0 3.072-3.072c.259-.668.44-1.431.488-2.547.05-1.12.062-1.477.062-4.327 0-2.85-.004-3.208-.054-4.327zm-7.021-4.238.197.007c.198.007.399.016.635.027 1.026.045 1.58.217 1.949.36.455.169.869.435 1.205.784.349.34.616.75.784 1.206.143.369.316.927.36 1.948.046 1.028.06 1.388.062 3.677v1.128c-.001 1.672-.009 2.313-.03 2.938l-.008.198-.023.537c-.045 1.025-.218 1.579-.361 1.948a3.483 3.483 0 0 1-1.994 1.994c-.369.143-.926.315-1.948.36-.198.01-.37.017-.537.023l-.199.008c-.56.02-1.133.028-2.446.03h-2.118a71.311 71.311 0 0 1-2.448-.03l-.198-.008c-.166-.006-.339-.014-.536-.023-1.025-.045-1.579-.217-1.948-.36a3.23 3.23 0 0 1-1.206-.784 3.264 3.264 0 0 1-.783-1.206c-.144-.369-.316-.927-.361-1.948-.044-.989-.059-1.36-.061-3.422v-1.639c.002-2.062.017-2.436.06-3.421.046-1.025.218-1.58.362-1.948.168-.456.434-.87.787-1.206a3.26 3.26 0 0 1 1.206-.783c.37-.144.927-.316 1.948-.361.238-.011.44-.02.637-.027l.198-.007a82.697 82.697 0 0 1 2.587-.028h1.64c1.404.002 2.025.01 2.588.028zm-3.417 3.171a5.395 5.395 0 0 0-5.394 5.394 5.395 5.395 0 0 0 5.394 5.393 5.395 5.395 0 0 0 5.394-5.393 5.395 5.395 0 0 0-5.394-5.394zm0 1.895a3.5 3.5 0 1 1 0 6.998 3.5 3.5 0 0 1 0-6.998zm5.607-3.367a1.26 1.26 0 1 0 0 2.518 1.26 1.26 0 0 0 0-2.518z" fill="#48378E"/>
        </g>
    </g>
</svg>
