<svg width="169" height="79" viewBox="0 0 169 79" xmlns="http://www.w3.org/2000/svg">
    <defs>
        <filter color-interpolation-filters="auto" id="a">
            <feColorMatrix in="SourceGraphic" values="0 0 0 0 1.000000 0 0 0 0 1.000000 0 0 0 0 1.000000 0 0 0 1.000000 0"/>
        </filter>
    </defs>
    <g transform="translate(-636 -23)" filter="url(#a)" fill="none" fill-rule="evenodd">
        <path d="m708.07 101.307.166.008.071.004.12.004h.732a.457.457 0 0 0 .067-.008.537.537 0 0 1 .083-.009h.067a.24.24 0 0 1 .05.009.207.207 0 0 0 .05.008c.015.002.029.008.041.017l.02.011.022.005c.023.022.048.041.075.059a6.035 6.035 0 0 0 .274.183c.03.017.057.036.084.058l.016.017.017.016h.05l.066.033a.56.56 0 0 0 .166.025c.057 0 .113.009.167.025.008.01.02.016.033.017l.033.017c.023.01.076.044.159.1.054.04.113.073.174.1.042.038.087.074.133.108.043.033.087.064.133.091l.034.05a1.3 1.3 0 0 1 .174.174l.125.142c.004.021.013.04.025.058.017.028.03.042.042.042.002.02.008.04.016.058a.21.21 0 0 1 .017.075c.011 0 .02.02.025.058.004.025.007.05.008.075a.097.097 0 0 0 .017.067.068.068 0 0 0 .016.05c.011.022.034.06.067.116l.083.116c.011 0 .034.02.067.059.033.039.055.064.066.074.001.013.007.025.017.034 0 .013.007.025.017.033a.37.37 0 0 0 .033.117.488.488 0 0 1 .033.1l.117.249a.067.067 0 0 1 .016.05c0 .033.006.05.017.05a.364.364 0 0 0 .033.091c.015.03.026.06.034.092a.26.26 0 0 1 .025.116c0 .046.01.09.024.133 0 .034.003.125.009.275l.003.083.005.191c0 .056.006.09.017.1a.13.13 0 0 0 .016.083v.138a12.36 12.36 0 0 1-.016.237l-.006.082c-.007.1-.01.158-.01.176v.615a.912.912 0 0 1-.067.216.315.315 0 0 1-.034.109.366.366 0 0 0-.033.091.501.501 0 0 1-.008.067.478.478 0 0 0-.009.066c0 .028.004.056.009.083a.506.506 0 0 1 .008.067.322.322 0 0 0 .116.083v.034l.017.033v.033a1.74 1.74 0 0 1-.167.216l-.182.167-.2.216-.183.366a.797.797 0 0 0-.1.15c-.022 0-.055.028-.1.083a1.736 1.736 0 0 1-.083.1.146.146 0 0 0-.025.075.672.672 0 0 0-.008.074.394.394 0 0 0-.05.109.674.674 0 0 1-.067.141.081.081 0 0 1-.016.042.083.083 0 0 0-.017.041l-.166.2a.24.24 0 0 1-.05.108.8.8 0 0 1-.067.092.096.096 0 0 1-.033.066.067.067 0 0 0-.017.05.763.763 0 0 0-.124.1.57.57 0 0 0-.109.116.187.187 0 0 0-.033.075l-.011.033c-.008.017-.015.025-.022.025a.416.416 0 0 1-.092.1l-.091.084a1.114 1.114 0 0 0-.116.174 4.205 4.205 0 0 0-.1.175l-.017.017-.033.016-.15.117a.073.073 0 0 0-.033.008.074.074 0 0 1-.034.008.139.139 0 0 1-.074.025.144.144 0 0 0-.076.025l-.066.075c-.033.039-.061.058-.083.058l-.034.034a.048.048 0 0 0-.033.016.068.068 0 0 1-.05.017.095.095 0 0 1-.066.016.936.936 0 0 0-.05.059c-.023.027-.04.041-.05.041a.858.858 0 0 1-.017.1c-.01.05-.016.1-.016.15v.283c.003.053.008.105.016.158.011.083.017.136.017.158a.164.164 0 0 1 .025.083.316.316 0 0 0 .025.1.343.343 0 0 0 .017.091c.008.025.013.05.016.075v.033l.017.034c.022.044.058.105.108.183.035.044.06.095.075.15a.845.845 0 0 1 .1.15.994.994 0 0 0 .083.132l.033.034c.022.022.039.033.05.033 0 .01.014.025.042.041.02.012.04.026.058.042a.08.08 0 0 1 .041.017c.013.01.027.015.042.016.035.01.069.024.1.042a.323.323 0 0 0 .116.042c.031.015.066.02.1.016a.068.068 0 0 1 .05.017c.009.01.02.016.033.016h.05l.067-.016a.068.068 0 0 1 .05-.017.098.098 0 0 0 .066-.016l.017-.017a.098.098 0 0 0 .067-.017.62.62 0 0 0 .058-.033.078.078 0 0 1 .041-.017c.011 0 .058-.005.142-.016a1.59 1.59 0 0 1 .158-.017.512.512 0 0 1 .125-.033.246.246 0 0 0 .125-.05.05.05 0 0 0 .033-.017.048.048 0 0 0 .033-.016c.01 0 .03-.014.058-.042a.117.117 0 0 0 .042-.075c.022 0 .044-.02.066-.058a.398.398 0 0 1 .05-.075 1.402 1.402 0 0 0 .116-.183c.012 0 .023-.011.034-.033.01-.022.022-.034.033-.034a.218.218 0 0 1 .075-.05.183.183 0 0 0 .058-.033h.067l.033.034c.022.022.033.038.033.05v.066l.017.017a.228.228 0 0 1-.008.05.222.222 0 0 0-.009.05.068.068 0 0 0-.016.05l-.017.033v.016a.083.083 0 0 1-.016.042.08.08 0 0 0-.017.041.298.298 0 0 1-.033.084.286.286 0 0 0-.034.083l-.066.083-.366.383-.017.05a.824.824 0 0 0-.042.124.322.322 0 0 1-.041.108l-.017.034a.048.048 0 0 0-.016.033c-.023.022-.064.07-.125.142a.617.617 0 0 1-.125.124c0 .011-.028.028-.083.05a.346.346 0 0 0-.116.067.079.079 0 0 0-.042.016.084.084 0 0 1-.042.017.565.565 0 0 1-.133.058.64.64 0 0 1-.15.042.758.758 0 0 1-.1.066.291.291 0 0 1-.116.05.165.165 0 0 1-.083.025.918.918 0 0 1-.1.009c-.022 0-.086.005-.191.016-.106.011-.175.017-.208.017h-.183a.195.195 0 0 1-.058-.017.188.188 0 0 0-.059-.016 1.093 1.093 0 0 0-.083-.067 9.132 9.132 0 0 1-.141-.108 9.927 9.927 0 0 0-.142-.108.973.973 0 0 1-.083-.067l-.033-.033a.048.048 0 0 0-.033-.017.633.633 0 0 0-.092.009.907.907 0 0 1-.125.008.118.118 0 0 1-.05-.008.07.07 0 0 0-.033-.009 4.503 4.503 0 0 0-.1-.091.482.482 0 0 1-.1-.108.082.082 0 0 1-.041-.017.082.082 0 0 0-.042-.017c-.01 0-.027-.01-.05-.033l-.05-.033a.048.048 0 0 1-.033-.017.049.049 0 0 0-.033-.017.084.084 0 0 0-.017-.041l-.011-.02-.006-.022v-.066l.134-.133v-.15a.291.291 0 0 0-.083-.083 1.005 1.005 0 0 1-.084-.067l-.033-.066a.098.098 0 0 1-.017-.067.048.048 0 0 0-.016-.033.144.144 0 0 1-.05-.1v-.183l.05-.05a.25.25 0 0 1 .066-.05.51.51 0 0 1 .092-.058c.05-.028.075-.047.075-.058v-.15l-.034-.05-.066-.05-.05-.083-.05-.033h-.216a.047.047 0 0 1-.034-.017l-.033-.033h-.117a.156.156 0 0 1-.083.025.33.33 0 0 0-.1.025h-.182a.068.068 0 0 1-.05-.017h-.034l-.033-.033a.047.047 0 0 1-.033-.017.047.047 0 0 1-.033-.017h-.034a.87.87 0 0 1-.108.042c-.05.017-.075.03-.075.042a.592.592 0 0 0-.125.025.747.747 0 0 1-.108.025.048.048 0 0 1-.033.016h-.066a.047.047 0 0 1-.034-.016.49.49 0 0 1-.116-.025.488.488 0 0 0-.117-.025 1.902 1.902 0 0 1-.116-.067.37.37 0 0 0-.1-.05.363.363 0 0 1-.075-.016l-.037-.01-.037-.007a1.524 1.524 0 0 0-.092-.075c-.05-.039-.075-.064-.075-.075a.158.158 0 0 1-.083-.033.176.176 0 0 0-.067-.033.146.146 0 0 0-.075-.025l-.039-.007-.035-.018a.335.335 0 0 1-.1-.058 1.058 1.058 0 0 1-.1-.075.42.42 0 0 0-.117-.05h-.183a.05.05 0 0 0-.033-.017l-.017-.017c-.077 0-.116-.022-.116-.066l-.383-.383a.408.408 0 0 1-.108-.058.879.879 0 0 1-.108-.075l-.083-.066a.237.237 0 0 1-.05-.084.672.672 0 0 1-.116-.091.698.698 0 0 0-.117-.092l-.033-.033a.046.046 0 0 1-.017-.033.047.047 0 0 1-.017-.034.198.198 0 0 0-.016-.058.198.198 0 0 1-.017-.075.384.384 0 0 1-.1-.14 10.123 10.123 0 0 1-.35-.725 1.06 1.06 0 0 0-.016-.133 1.046 1.046 0 0 1-.016-.133c0-.022-.006-.083-.017-.183-.011-.1-.016-.16-.016-.183-.012 0-.023-.02-.034-.058a.364.364 0 0 1-.016-.092v-.3c0-.021-.006-.088-.017-.199a2.987 2.987 0 0 1-.017-.2v-.316a.453.453 0 0 1 .034-.124.388.388 0 0 1 .05-.109.268.268 0 0 1 .016-.083.281.281 0 0 0 .017-.066v-.433c.006-.059.017-.117.033-.175a1.15 1.15 0 0 0 .033-.174.785.785 0 0 1 .017-.1.864.864 0 0 0 .016-.1.332.332 0 0 0 .025-.1c.001-.03.01-.058.025-.083 0-.022.003-.077.009-.166 0-.057.008-.113.025-.167l.033-.066v-.033l.017-.034c0-.013.006-.025.016-.033a.958.958 0 0 0 .067-.083.244.244 0 0 0 .05-.083.186.186 0 0 1 .017-.059.194.194 0 0 0 .016-.058.372.372 0 0 0 .067-.108l.036-.081.013-.027.034-.05.016-.05.017-.017c.048-.078.087-.162.117-.25.01-.021.027-.063.05-.124.022-.06.044-.097.066-.108a2.46 2.46 0 0 1 .083-.142.877.877 0 0 1 .1-.14.53.53 0 0 1 .075-.126c.028-.043.059-.084.091-.124a2.353 2.353 0 0 1 .167-.267.126.126 0 0 1 .033-.058.13.13 0 0 0 .033-.058c.011-.011.036-.042.075-.092.039-.05.064-.075.075-.075a.716.716 0 0 0 .091-.133c.04-.066.064-.11.075-.133l.034-.033a.048.048 0 0 0 .016-.033 2.623 2.623 0 0 0 .192-.225l.108-.141a.754.754 0 0 0 .066-.1l.05-.067.117-.116c.033-.033.055-.05.066-.05a.274.274 0 0 1 .075-.042c.046-.02.09-.042.133-.066a3.89 3.89 0 0 1 .142-.075.392.392 0 0 0 .083-.05l.133-.1a.372.372 0 0 1 .075-.058c.027-.017.041-.03.041-.042a.49.49 0 0 0 .109-.041c.06-.028.124-.058.191-.092l.3-.15.099-.066.216-.183a.202.202 0 0 0 .067-.025c.033-.017.05-.03.05-.042a.08.08 0 0 0 .041-.016.61.61 0 0 1 .059-.034l.05-.033c.022 0 .086-.002.191-.008a5.14 5.14 0 0 1 .258-.009zm49.009-.1.016.017h.052a.103.103 0 0 0 .057.017l.533.145.031.046c.036.005.059.027.06.055a.12.12 0 0 1 .013.052v.25a.34.34 0 0 0 .017.085.314.314 0 0 1 .016.065v.177l-.115.344-.002.011c0 .02-.005.07-.016.154-.007.056-.017.13-.017.162a.642.642 0 0 1-.048.155 2.516 2.516 0 0 1-.063.16c-.013.017-.022.05-.022.134h-.016v.034c0 .043-.003.115-.009.214-.006.099-.01.205-.016.32v.01l-.017.32a3.29 3.29 0 0 0-.008.193l-.05.207a.644.644 0 0 1-.048.155.808.808 0 0 0-.052.17.656.656 0 0 0-.033.162 1.661 1.661 0 0 0-.017.162.713.713 0 0 1-.016.11.677.677 0 0 0-.017.123.285.285 0 0 1-.016.056.31.31 0 0 0-.018.093.122.122 0 0 1-.02.042.16.16 0 0 0-.03.075c0 .04-.005.129-.016.297a6.506 6.506 0 0 0-.017.285 2.265 2.265 0 0 1-.016.23c-.01.095-.017.161-.017.185a.402.402 0 0 1-.03.08.391.391 0 0 1-.043.08l-.01.01v.015a.342.342 0 0 1-.031.103.388.388 0 0 0-.035.122l-.084.357v.749a1.393 1.393 0 0 1-.032.175.993.993 0 0 0-.035.19c0 .02-.005.075-.016.162a2.02 2.02 0 0 0-.017.171c0 .001-.001.004-.006.01l-.044.043v.014a.622.622 0 0 1-.031.131.554.554 0 0 0-.035.135.158.158 0 0 1-.015.045.273.273 0 0 0-.018.063.541.541 0 0 0-.032.1.426.426 0 0 0-.019.092v.282c0 .02-.005.073-.016.162-.007.06-.017.14-.017.171a.035.035 0 0 1-.005.018.128.128 0 0 0-.01.054.142.142 0 0 0-.018.078c0 .02-.007.097-.017.205-.01.12-.016.2-.016.244v.15c.005.052.013.104.025.156.017.089.03.161.041.21a.302.302 0 0 0 .018.094.238.238 0 0 1 .015.056c.006.042.027.08.06.107a.397.397 0 0 1 .057.076c0 .022.01.042.027.057l.026.026h.014a.08.08 0 0 1 .047.018.588.588 0 0 1 .046.04l.01.009h.396a.106.106 0 0 0 .063-.017.095.095 0 0 0 .035-.011.044.044 0 0 1 .019-.005l.142-.001.39.084a.48.48 0 0 1 .127.057l.01.01h.02c.01.017.013.033.02.047a.04.04 0 0 1 .006.018v.017l.016.04-.005.011a.108.108 0 0 0-.011.048.435.435 0 0 1-.057.077.264.264 0 0 1-.058.035.153.153 0 0 1-.068.021h-.014l-.01.01a.17.17 0 0 1-.126.04l-.06.001a1.723 1.723 0 0 0-.229-.026.536.536 0 0 1-.16-.021l-.016-.004c-.014 0-.048-.001-.122-.008a2.17 2.17 0 0 0-.111-.008c-.037 0-.095-.003-.164-.009a29.387 29.387 0 0 0-.718-.041.229.229 0 0 1-.056-.015.31.31 0 0 0-.094-.018h-.033a.037.037 0 0 1-.02-.006.122.122 0 0 0-.1 0 .09.09 0 0 1-.03.006.843.843 0 0 0-.201.051c-.133.042-.16.048-.165.048h-.013l-.01.01a.042.042 0 0 1-.027.007h-.066a.355.355 0 0 1-.052-.007.354.354 0 0 0-.065-.01.642.642 0 0 1-.07-.007.68.68 0 0 0-.096-.01h-1.647a.087.087 0 0 1-.043-.005l-.01-.01h-.05l-.033-.034h-.014a.023.023 0 0 1-.009-.006l-.04-.023a.084.084 0 0 0-.027-.061l-.007-.007v-.01l.013-.027.004-.015c0-.021.003-.031.002-.033a.16.16 0 0 0 .073-.03.47.47 0 0 0 .054-.036c.02 0 .037-.007.05-.018a.098.098 0 0 0 .054-.02c.06-.012.122-.019.184-.02.1-.006.16-.009.181-.009h.366l.015-.004c.063-.02.126-.036.191-.047.086-.015.17-.037.251-.066a.082.082 0 0 0 .05-.026l.126-.108v-.016c0-.01.002-.019.007-.027l.01-.01v-.038l.013-.026.004-.015a.53.53 0 0 1 .015-.085.568.568 0 0 0 .018-.099.105.105 0 0 1 .013-.034l.033-.066.004-.015a.369.369 0 0 1 .03-.079.277.277 0 0 0 .036-.105.408.408 0 0 1 .016-.091.873.873 0 0 0 .017-.08.575.575 0 0 0 .049-.126.621.621 0 0 0 .035-.136.524.524 0 0 1 .015-.084.613.613 0 0 0 .018-.115c0-.035.007-.043.007-.043l.01-.01v-.014a.076.076 0 0 1 .004-.034.107.107 0 0 0 .012-.049c0-.021.003-.07.008-.147l.017-.25v-.015l.017-.234c.005-.079.008-.13.008-.152.003-.043.008-.086.016-.128a.485.485 0 0 1 .03-.123l.004-.016a.791.791 0 0 1 .016-.102c.012-.065.016-.092.017-.105a.618.618 0 0 0 .033-.11.753.753 0 0 0 .017-.093l.03-.092.066-.147a.908.908 0 0 0 .068-.132l.026-.028-.044-.088-.006-.009a.958.958 0 0 0-.148-.105.595.595 0 0 1-.091-.063l-.01-.015a.164.164 0 0 0-.108-.06h-.193l-.063.044a.043.043 0 0 1-.027.006h-.016a.309.309 0 0 0-.094.019.241.241 0 0 1-.056.015h-.116a.576.576 0 0 1-.097-.032.388.388 0 0 1-.096-.04l-.01-.011h-.13l-.015.003a.584.584 0 0 1-.148.03c-.05.008-.102.014-.153.016h-.799a.396.396 0 0 0-.139.045.46.46 0 0 0-.134.082l-.067.067-.006.008a33.28 33.28 0 0 0-.248.512.703.703 0 0 0-.084.118.966.966 0 0 1-.058.09.517.517 0 0 0-.103.087l-.411.412-.042.027a.087.087 0 0 0-.067.04.307.307 0 0 1-.029.037l-.023.041-.004.032a.27.27 0 0 1-.015.056.47.47 0 0 0-.017.063 1.118 1.118 0 0 0-.115.181.921.921 0 0 0-.099.168l-.082.165-.081.146a.466.466 0 0 0-.08.176.437.437 0 0 1-.067.153l-.09.193-.003.014a.366.366 0 0 1-.015.066.346.346 0 0 0-.018.084v.15l.035.11.092.13.083.083a.084.084 0 0 0 .042.025.07.07 0 0 0 .04.018h.002l.589.116a.076.076 0 0 1 .023.012c.013.01.028.016.043.02l.04.047a.276.276 0 0 0 .06.058c.002.015.008.029.016.041v.036l.016.016v.084a.18.18 0 0 1-.027.05.77.77 0 0 0-.052.087l-.014.028a1.151 1.151 0 0 1-.108.011 1.7 1.7 0 0 1-.147.008l-.015.003a.671.671 0 0 1-.164.031c-.095.011-.151.016-.17.016h-.15a.131.131 0 0 1-.041-.02l-.036-.02-.04-.01a4.9 4.9 0 0 1-.156-.008 4.028 4.028 0 0 0-.226-.008h-.067a.341.341 0 0 0-.065.009.278.278 0 0 1-.052.007h-.034v.034c0 .008 0 .016-.032.016l-.014.001-.01.009s-.008.007-.043.007a.147.147 0 0 0-.077.016h-.802l-.01.01a.181.181 0 0 1-.06.025.353.353 0 0 1-.073.016 3.507 3.507 0 0 1-.342.066 4.5 4.5 0 0 0-.403.033 4.486 4.486 0 0 1-.429.033h-.233a.085.085 0 0 1-.063-.026l-.117-.083-.004-.006h-.01a.156.156 0 0 1-.04-.032c-.024-.025-.03-.036-.031-.036v-.032h-.034v-.014l-.01-.01c-.006-.007-.006-.01-.006-.01v-.232c0-.033.009-.033.016-.033l.033.005v-.034a.336.336 0 0 1 .052-.075.303.303 0 0 1 .08-.083l.018-.006v-.02a.24.24 0 0 1 .036-.059c.035-.05.05-.066.05-.066l.05-.034.011-.004v-.018a.07.07 0 0 1 .036-.005h.15a.26.26 0 0 1 .056.015c.024.01.05.016.077.018h.066a.874.874 0 0 0 .13-.017 1.01 1.01 0 0 1 .103-.016h.266a.327.327 0 0 0 .085-.018.248.248 0 0 0 .08-.035c.057-.021.113-.046.167-.075a3.17 3.17 0 0 1 .23-.107l.09-.037a.317.317 0 0 1 .047-.028h.021l.01-.019a.241.241 0 0 1 .073-.07.666.666 0 0 1 .094-.064l.343-.34.298-.332.044-.043v-.014c-.001-.01.001-.019.006-.027l.01-.01v-.097l.005-.017a.115.115 0 0 0 .012-.04l.046-.094.004-.047s0-.004.007-.01l.006-.009a.232.232 0 0 1 .043-.058l.06-.058a.252.252 0 0 0 .059-.028.148.148 0 0 0 .05-.043.172.172 0 0 0 .048-.037l.033-.034.124-.345.002-.01a.026.026 0 0 1 .007-.01l.01-.01v-.014a1.678 1.678 0 0 0 .126-.154.468.468 0 0 1 .105-.116l.01-.005.005-.01a.416.416 0 0 1 .054-.076.228.228 0 0 0 .047-.073c.048-.071.087-.147.116-.227a.852.852 0 0 1 .111-.216l.317-.367.264-.33c.043-.048.083-.1.12-.154.036-.052.075-.103.117-.15.04-.055.083-.106.13-.154a3.96 3.96 0 0 1 .214-.215c.078-.072.15-.142.217-.208l.15-.15.083-.146a.105.105 0 0 0 .035-.072.102.102 0 0 1 .015-.048l.01-.01v-.048a.026.026 0 0 1 .007-.01c.011-.01.028-.031.053-.06a.166.166 0 0 0 .04-.072l.111-.271a.144.144 0 0 0 .038-.087c.013-.012.042-.037.105-.089.068-.057.102-.095.11-.127.038-.047.073-.096.104-.147.048-.073.081-.127.094-.153l.031-.063.03-.045a.336.336 0 0 0 .057-.12c.021-.057.036-.096.046-.117l.267-.284.029-.045a.145.145 0 0 0 .041-.06l.128-.168c.036-.045.07-.092.1-.14l.43-.43a.626.626 0 0 0 .103-.12.508.508 0 0 0 .06-.105c.03-.057.058-.12.085-.185.027-.067.055-.13.082-.19a.517.517 0 0 1 .052-.1l.007-.008a.73.73 0 0 1 .102-.125.823.823 0 0 0 .111-.136.385.385 0 0 0 .052-.087l.083-.149c.034-.056.062-.107.084-.151a.377.377 0 0 1 .044-.075.454.454 0 0 0 .064-.1.344.344 0 0 0 .044-.11.912.912 0 0 0 .097-.18l.098-.18a1.45 1.45 0 0 0 .075-.1.882.882 0 0 1 .088-.113l.299-.332.173-.173h.122zm-40.516.233.15.083h.283a.131.131 0 0 0 .083-.017l.067-.033h.699l.149.05a.465.465 0 0 1 .125.033c.04.017.082.028.125.033h.233a.13.13 0 0 0 .083-.016c.02 0 .04-.003.058-.009a.188.188 0 0 1 .058-.008.5.5 0 0 0 .084-.016.46.46 0 0 1 .1-.017h.731l.117-.008a60.961 60.961 0 0 1 .532-.042h.366l.067.033c.018.009.035.02.05.034.008.01.02.015.033.016a.13.13 0 0 1 .058.033c.028.023.042.04.042.05a.103.103 0 0 1 .05.025c.022.017.033.031.033.042.022 0 .033.022.033.066v.134a.374.374 0 0 1-.008.058.115.115 0 0 1-.025.058.097.097 0 0 1-.033.067l-.05.05a.048.048 0 0 1-.033.016l-.034.017c-.022 0-.091.005-.208.016a3.064 3.064 0 0 1-.224.017h-.466a7.82 7.82 0 0 0-.283.083 1.37 1.37 0 0 0-.266.1l-.05.05c-.011 0-.022.03-.033.092a.55.55 0 0 1-.034.124.146.146 0 0 0-.025.075l-.007.04-.017.035-.009.116a1.982 1.982 0 0 0-.008.133.628.628 0 0 0-.059.159 1.51 1.51 0 0 1-.058.174.506.506 0 0 1-.016.083.48.48 0 0 0-.017.084.2.2 0 0 1-.017.058.198.198 0 0 0-.016.058.204.204 0 0 0-.05.15.937.937 0 0 1-.008.083.869.869 0 0 0-.009.1l-.033.05a.067.067 0 0 0-.017.05.127.127 0 0 1-.033.058.127.127 0 0 0-.033.058l-.033.033a.049.049 0 0 0-.017.034l-.008.108a.227.227 0 0 1-.025.108.048.048 0 0 0-.017.033c0 .02-.002.04-.008.059a.181.181 0 0 0-.009.058.067.067 0 0 0-.017.05.068.068 0 0 1-.016.05.125.125 0 0 1-.033.058.857.857 0 0 1-.05.058.143.143 0 0 1-.008.042.125.125 0 0 0-.009.041.271.271 0 0 0-.041.083 5.277 5.277 0 0 0-.05.142 1.056 1.056 0 0 1-.059.141l-.016.05a.223.223 0 0 1-.009.05.219.219 0 0 0-.008.05c-.011 0-.022.014-.033.042a.198.198 0 0 0-.017.058c0 .022-.003.066-.008.133a.26.26 0 0 1-.025.116.128.128 0 0 1-.016.05l-.012.024-.005.026-.117.233a.78.78 0 0 0 .009.1 1.279 1.279 0 0 1 0 .308.978.978 0 0 0-.009.108.496.496 0 0 1-.008.066.13.13 0 0 1-.025.067.451.451 0 0 1-.05.108.455.455 0 0 0-.05.108.204.204 0 0 1-.05.15c0 .022-.003.061-.008.117a1.3 1.3 0 0 0-.008.116v.2l-.05.233a.268.268 0 0 0-.042.083.323.323 0 0 0-.025.1.45.45 0 0 0-.042.15c-.011.054-.02.11-.025.166a.865.865 0 0 0-.041.124.318.318 0 0 1-.042.109.514.514 0 0 1-.016.083.54.54 0 0 1-.033.1c0 .022-.006.086-.017.191-.011.106-.017.17-.017.191 0 .023-.01.103-.033.241-.022.14-.033.22-.033.242v.066a.439.439 0 0 0 .016.1.525.525 0 0 1 .017.083c.017.038.03.077.042.117.01.032.02.066.025.1v.798a.455.455 0 0 0 .033.1l.05.133.05.117c.019.035.041.068.066.1.022.022.058.06.108.116.03.039.067.072.108.1 0 .01.022.016.067.016a.096.096 0 0 1 .066.017.341.341 0 0 1 .125.05c.061.033.092.055.092.067.023 0 .046.006.066.016a.127.127 0 0 0 .05.017c.011 0 .05.006.117.016.044.009.088.014.133.017.063.014.127.022.191.025.083.006.136.008.158.008h.5a.968.968 0 0 0 .132-.033c.063-.017.125-.039.184-.066.032-.016.066-.03.1-.042a.317.317 0 0 1 .1-.025l.581-.3.15-.15c.071-.067.138-.14.2-.216.01 0 .047-.038.108-.116a3.11 3.11 0 0 0 .125-.166c.047-.058.088-.119.125-.184.036-.064.078-.125.124-.182.067-.067.1-.117.1-.15l.267-.3c0-.013.006-.025.016-.033l.017-.033a.254.254 0 0 1 .033-.1.381.381 0 0 1 .05-.083v-.05a.067.067 0 0 1 .016-.05.541.541 0 0 0 .034-.1.46.46 0 0 0 .017-.1c.022-.067.039-.137.05-.208a.729.729 0 0 1 .066-.224.598.598 0 0 1 .025-.125.77.77 0 0 1 .042-.125c0-.023.005-.046.016-.066a.13.13 0 0 0 .017-.05.22.22 0 0 1 .033-.075c.022-.039.039-.058.05-.058l.316-1.315.15-.449c0-.01.005-.067.016-.166.011-.1.017-.161.017-.183a.448.448 0 0 1 .033-.1c.023-.056.04-.083.05-.083a.35.35 0 0 1 .009-.059.114.114 0 0 1 .025-.058l.1-.391c.018-.094.046-.186.083-.274v-.067c0-.047.002-.094.008-.141.005-.047.008-.095.008-.142v-.083a.285.285 0 0 1 .034-.083c.021-.044.044-.092.066-.142.022-.05.044-.096.066-.141a.253.253 0 0 0 .034-.1.869.869 0 0 0-.008-.1 1.048 1.048 0 0 1-.009-.133c0-.02.003-.04.009-.058a.134.134 0 0 0 .008-.042c.003-.05.008-.1.017-.15.008-.049.013-.099.016-.149v-.699l-.008-.15a.583.583 0 0 0-.025-.166.095.095 0 0 1-.017-.067.049.049 0 0 0-.016-.033c0-.022-.017-.039-.05-.05a.175.175 0 0 1-.067-.033.418.418 0 0 1-.041-.05.11.11 0 0 1-.025-.066.069.069 0 0 0-.017-.05c-.011 0-.017-.011-.017-.034l-.266-.266c0-.01-.025-.027-.075-.05a.361.361 0 0 1-.108-.066.048.048 0 0 1-.033-.017.05.05 0 0 0-.034-.017h-.066l-.05.017a.049.049 0 0 1-.033.017 2.656 2.656 0 0 0-.2.091.66.66 0 0 1-.133.058h-.066a.186.186 0 0 1-.059-.016.201.201 0 0 0-.058-.017l-.05-.033a.123.123 0 0 1-.016-.05v-.116l.033-.05.033-.084a.439.439 0 0 1 .041-.066.098.098 0 0 0 .026-.05h.05a.048.048 0 0 0 .033-.017h.05a.073.073 0 0 0 .033-.008l.016-.006.017-.002c.012 0 .023.003.034.008.01.005.021.008.033.008h.033a.291.291 0 0 1 .117.05.286.286 0 0 0 .116.05h.083a.267.267 0 0 0 .108-.042.332.332 0 0 1 .092-.041h.4a.626.626 0 0 0 .074-.008l.037-.006.038-.003c.071-.015.144-.026.216-.033.1-.011.16-.017.183-.017a.07.07 0 0 1 .05.017c.022.022.039.033.05.033l.017.017h.066a.05.05 0 0 1 .017.033l.016.017h.15a.19.19 0 0 1 .075-.033.39.39 0 0 1 .075-.017l.175-.008a5.7 5.7 0 0 1 .191-.009.426.426 0 0 1 .117-.05.54.54 0 0 1 .132-.033.18.18 0 0 0 .059-.008.19.19 0 0 1 .058-.009.048.048 0 0 0 .033-.016h.067l.017.016h.033a.068.068 0 0 0 .05.017l.091.05c.04.022.059.039.059.05.002.02.007.04.016.058a.198.198 0 0 1 .017.058v.067l.016.016a.076.076 0 0 1-.008.034l-.006.016-.002.017v.033a.049.049 0 0 1-.017.034.047.047 0 0 0-.017.033c0 .011-.014.025-.041.041a.324.324 0 0 0-.058.042l-.034.017a.047.047 0 0 1-.033.016.387.387 0 0 0-.117.034l-.056.021-.06.012-.016.017-.05.016-.133.067a.129.129 0 0 1-.05.016h-.333a.282.282 0 0 0-.067.017.271.271 0 0 1-.083.017l-.033.033-.017.033a.048.048 0 0 0-.017.034c0 .044-.005.127-.016.25-.012.121-.017.199-.017.232a.194.194 0 0 1-.016.058.185.185 0 0 0-.017.058l-.05.017a.326.326 0 0 1-.117.092c-.066.039-.11.064-.132.075l-.034.033a.377.377 0 0 1-.083.15v.133l.017.016.016.017h.05c.02.013.043.02.067.017l.016.016h.1a.203.203 0 0 0 .058.067c.024.015.039.039.042.066v.133a.068.068 0 0 0-.016.05v.067l-.117.283c-.011.033-.03.086-.058.158a3.062 3.062 0 0 0-.075.216 2.613 2.613 0 0 1-.067.191.475.475 0 0 0-.033.1 5.039 5.039 0 0 1-.066.333.929.929 0 0 0-.042.191c-.012.064-.02.127-.025.192-.011.022-.04.086-.083.19a.833.833 0 0 0-.067.192v.35a.228.228 0 0 1-.033.15l-.117.15a.049.049 0 0 0-.016.032l-.017.034c0 .067-.008.194-.025.382a5.323 5.323 0 0 0-.025.383.097.097 0 0 0-.016.067v.083a.068.068 0 0 1-.017.05.047.047 0 0 0-.016.033l-.017.017a.316.316 0 0 1-.025.1.283.283 0 0 1-.042.083.75.75 0 0 1-.033.15.744.744 0 0 0-.033.15l-.084.182-.108.333c-.05.155-.086.26-.108.316a.675.675 0 0 1-.025.133.784.784 0 0 1-.042.133l-.05.117a.252.252 0 0 0-.04.091.308.308 0 0 1-.026.075.319.319 0 0 1-.025.1.27.27 0 0 1-.042.083l-.116.25c0 .022-.005.077-.016.166a1.9 1.9 0 0 0-.017.166.276.276 0 0 1-.017.084.263.263 0 0 0-.016.066c0 .011-.012.028-.034.05a.095.095 0 0 0-.033.067.396.396 0 0 0-.1.1 1.745 1.745 0 0 1-.083.1l-.166.166-.05.033-.034.033a.291.291 0 0 0-.083.034l-.04.02-.043.013-.05.05a.258.258 0 0 0-.05.066l-.017.034c-.01 0-.022.01-.033.033l-.05.066a.203.203 0 0 1-.058.067.764.764 0 0 0-.058.05 3.363 3.363 0 0 1-.3.25.184.184 0 0 1-.05.033.253.253 0 0 0-.066.05l-.083.066a.206.206 0 0 1-.083.033c-.023.012-.064.031-.125.059a2.741 2.741 0 0 0-.183.091l-.175.092a.476.476 0 0 0-.1.058h-.116a.068.068 0 0 1-.05-.017.069.069 0 0 1-.05-.016h-.066l-.017-.017-.05.017h-.034a.363.363 0 0 0-.1.05.66.66 0 0 0-.1.066.33.33 0 0 0-.057.008.359.359 0 0 1-.059.009 1.341 1.341 0 0 1-.25.05h-.615l-.066-.034a.128.128 0 0 0-.05-.016 1.27 1.27 0 0 1-.166-.025.827.827 0 0 1-.167-.042c0-.011-.022-.025-.066-.041a.36.36 0 0 0-.084-.025c0-.012-.014-.02-.041-.025a.34.34 0 0 0-.058-.009.37.37 0 0 1-.075-.016.397.397 0 0 0-.075-.017.246.246 0 0 0-.125-.05.5.5 0 0 1-.125-.033.16.16 0 0 1-.116-.05.195.195 0 0 1-.084-.025c-.033-.017-.05-.03-.05-.042-.022 0-.063-.027-.124-.083a4.055 4.055 0 0 1-.142-.133l-.366-.333-.183-.183c-.01 0-.027-.027-.05-.083a.36.36 0 0 0-.066-.116.32.32 0 0 0-.025-.1.292.292 0 0 0-.042-.083l-.016-.017-.017-.033-.033-.034-.117-.15-.066-.1v-.149a.36.36 0 0 1 .058-.133c.039-.066.07-.122.091-.166l.034-.017.033-.033a.048.048 0 0 1 .034-.017.144.144 0 0 1 .074-.025.74.74 0 0 1 .075-.008c.01-.011.03-.028.058-.05a.09.09 0 0 0 .042-.067l.3-.549v-.05c0-.011.002-.023.008-.033a.077.077 0 0 0 .008-.033.41.41 0 0 0-.008-.075.34.34 0 0 1-.009-.058l-.1-.1a.415.415 0 0 1-.066-.042.464.464 0 0 0-.067-.041c0-.022-.022-.033-.066-.033h-.033l-.034-.017a.074.074 0 0 0-.033.008.07.07 0 0 1-.033.009 1.82 1.82 0 0 1-.075.124c-.04.061-.064.103-.075.125l-.067.133a.097.097 0 0 0-.016.067l-.017.016a.072.072 0 0 1-.008.034l-.006.016-.002.017v.033l.016.033.067.1c.01.009.015.02.016.033.001.013.007.025.017.034v.1a.083.083 0 0 1-.017.041.079.079 0 0 0-.016.042.206.206 0 0 0-.067.058c-.022.028-.039.042-.05.042h-.066a.05.05 0 0 0-.017-.034l-.033-.033a.505.505 0 0 0-.009-.066.506.506 0 0 1-.008-.084v-.066a.332.332 0 0 1 .008-.058.377.377 0 0 0 .009-.075v-.017c0-.01-.014-.03-.042-.058-.028-.028-.047-.042-.058-.042a.083.083 0 0 0-.016-.041.08.08 0 0 1-.017-.042v-.216a.27.27 0 0 1 .017-.067.279.279 0 0 0 .016-.083.048.048 0 0 0 .017-.033c0-.013.006-.025.016-.033.03-.035.057-.071.083-.109a.389.389 0 0 0 .067-.108.125.125 0 0 1 .017-.05.149.149 0 0 0 .016-.066 1.02 1.02 0 0 1 .017-.108.263.263 0 0 1 .033-.109.227.227 0 0 1 .033-.15.548.548 0 0 1 .042-.14 2 2 0 0 1 .058-.142l.117-.216a.11.11 0 0 1 .008-.05.076.076 0 0 0 .008-.034c.001-.012.007-.024.017-.033v-.3l.033-.066.05-.067c0-.022.003-.044.009-.066a.223.223 0 0 0 .008-.05.75.75 0 0 0 .025-.2.518.518 0 0 1 .025-.183.375.375 0 0 1 .033-.116l.021-.057.012-.06a.23.23 0 0 0 .025-.108 2.22 2.22 0 0 0 .008-.108.628.628 0 0 0 .026-.116c.005-.044.013-.067.025-.067a.44.44 0 0 1 .05-.108.34.34 0 0 0 .05-.125c.01 0 .019-.014.024-.041a.34.34 0 0 0 .009-.059.096.096 0 0 1 .016-.066c0-.02.003-.04.008-.058a.135.135 0 0 0 .009-.042.515.515 0 0 0 .033-.116.728.728 0 0 0 .017-.117c0-.022.002-.072.008-.15l.005-.068.02-.065c.015-.077.038-.152.067-.224.044-.128.072-.203.083-.225a.684.684 0 0 1 .033-.116.546.546 0 0 0 .034-.134.116.116 0 0 1 .008-.05.072.072 0 0 0 .008-.033c0-.013.007-.025.017-.033.01 0 .036-.03.074-.092a.889.889 0 0 1 .075-.108.057.057 0 0 0 .017-.041c0-.016.006-.03.017-.042v-.017l.016-.033a.067.067 0 0 1 .017-.05v-.1l.017-.166a1.966 1.966 0 0 0 .033-.25.19.19 0 0 1 .017-.058.194.194 0 0 0 .016-.058.362.362 0 0 1 .017-.075.384.384 0 0 0 .016-.075.299.299 0 0 0 .042-.1.488.488 0 0 0 .025-.116v-.067a.11.11 0 0 1 .009-.05.076.076 0 0 0 .008-.033.146.146 0 0 0-.008-.041.17.17 0 0 1-.009-.059v-.066a.133.133 0 0 0-.017-.05.144.144 0 0 1-.016-.066l-.05-.084a.261.261 0 0 1-.017-.066l-.033-.034-.083-.033a.17.17 0 0 0-.067-.033h-.033c-.056 0-.133.003-.233.008a.66.66 0 0 0-.183.025l-.1.033h-.283a1.496 1.496 0 0 1-.174-.024 1.61 1.61 0 0 1-.192-.042.399.399 0 0 1-.116-.05c-.034 0-.05-.011-.05-.033v-.167a.519.519 0 0 0 .033-.1.537.537 0 0 0 .017-.083v-.016l.033-.067.057-.056a.137.137 0 0 1 .06-.027c.022 0 .063-.003.124-.008a.388.388 0 0 0 .125-.025h.216zm23.343-.15a.871.871 0 0 1 .125.016.847.847 0 0 0 .125.017h.316a1.398 1.398 0 0 1 .25.05c.025.003.05.009.074.017l.037.01.038.006h.167a.067.067 0 0 0 .05-.016h.033l.033-.017h.033a.07.07 0 0 0 .034-.008l.016-.006.017-.003c.011 0 .023.003.033.009l.016.006.017.002h.034c.022 0 .077.006.166.017.089.01.144.016.166.016a.641.641 0 0 0 .142-.033c.048-.013.095-.03.141-.05h.083l.05.033a.066.066 0 0 0 .05.017h.133c.033 0 .12-.005.258-.017.139-.01.285-.019.441-.024.155-.006.3-.014.433-.026.133-.01.216-.016.25-.016h.149c.015.001.03.007.041.016.012.01.027.015.042.017l.1.1c.044.044.066.072.066.083v.183a.05.05 0 0 0-.016.033v.034l-.116.15a.745.745 0 0 0-.05.058.09.09 0 0 1-.067.041.048.048 0 0 0-.033.017l-.033.033a6.681 6.681 0 0 0-.184.05.964.964 0 0 1-.133.033h-.15a.368.368 0 0 1-.075-.016c-.038-.011-.058-.022-.058-.034h-.565a1.98 1.98 0 0 0-.3.05.096.096 0 0 1-.066.017.048.048 0 0 0-.033.017l-.034.05a.194.194 0 0 1-.016.058c-.012.028-.023.041-.034.041a.643.643 0 0 1-.058.167 5.39 5.39 0 0 1-.075.166c-.011 0-.022.02-.033.058a.374.374 0 0 0-.017.075c0 .023-.003.067-.008.133a2.492 2.492 0 0 0-.008.117.322.322 0 0 0-.026.1c0 .029-.009.058-.024.083-.02.051-.038.104-.05.158a.861.861 0 0 0-.033.158.139.139 0 0 0-.025.075.144.144 0 0 1-.025.075c0 .022-.003.066-.009.133a.256.256 0 0 1-.024.116l-.184.366-.033.05a.047.047 0 0 0-.016.034l-.017.016a.067.067 0 0 0-.017.05v.166a.095.095 0 0 0 .017.067c.003.026.008.05.017.075l.01.037.006.038v.05l-.083.15a.552.552 0 0 0-.05.15.133.133 0 0 0-.017.082.048.048 0 0 1-.016.034.275.275 0 0 0-.025.124.735.735 0 0 1-.025.159c0 .022-.006.085-.017.19l-.007.072a1.67 1.67 0 0 0-.01.12.386.386 0 0 1-.016.075l-.01.037-.007.038a.291.291 0 0 1-.033.083.373.373 0 0 1-.05.083v.466l-.008.108a.403.403 0 0 1-.025.125.068.068 0 0 0-.017.05.047.047 0 0 0-.016.033v.017l-.084.158-.04.076-.026.082-.067.25a.361.361 0 0 1-.025.083.322.322 0 0 0-.025.1c-.01 0-.027.022-.05.066a.286.286 0 0 0-.033.083.206.206 0 0 0-.033.084.479.479 0 0 0-.017.083c0 .01-.008.058-.025.141a.427.427 0 0 1-.041.142.641.641 0 0 0-.025.183c-.006.1-.009.16-.009.182a.068.068 0 0 0-.017.05.049.049 0 0 0-.016.034v.016a3.43 3.43 0 0 0-.075.183.793.793 0 0 0-.058.183l-.117.383c-.003.036-.009.072-.016.108a.97.97 0 0 0-.017.108c0 .012-.011.07-.033.175a1.47 1.47 0 0 0-.033.191.134.134 0 0 1-.009.042.182.182 0 0 0-.008.058c0 .05.002.1.008.15a.87.87 0 0 1 .009.1 1.88 1.88 0 0 0-.067.233 1.775 1.775 0 0 0-.05.233.31.31 0 0 0-.025.1.95.95 0 0 0-.008.083l.016.016c0 .023.006.033.017.033l.033.034.117.083.033.067a.81.81 0 0 0 .017.124.872.872 0 0 1 .016.125.2.2 0 0 0 .117.117h.133l.117-.117a.201.201 0 0 1 .024-.067.297.297 0 0 1 .042-.066.048.048 0 0 0 .033-.017l.05-.016c.034 0 .114-.006.242-.017a4.01 4.01 0 0 1 .24-.017l.284-.05a.187.187 0 0 0 .058-.016.191.191 0 0 1 .058-.017l.266-.15c.05-.002.1-.008.15-.016.05-.008.1-.014.15-.017.025 0 .05-.003.074-.008a.36.36 0 0 1 .059-.008.048.048 0 0 0 .033-.017l.1-.067c.022-.022.039-.033.05-.033l.016-.016.034-.017c0-.01.025-.025.075-.042a.284.284 0 0 0 .091-.041c.01 0 .033-.022.067-.067.033-.044.06-.066.083-.066 0-.011.02-.025.058-.042.039-.017.07-.03.092-.042a.393.393 0 0 1 .133-.083.257.257 0 0 1 .05-.066l.05-.05c0-.013.006-.025.016-.033l.033-.05c0-.011.02-.034.059-.067.039-.033.063-.055.075-.067a.72.72 0 0 1 .15-.1l.166-.332.016-.017.017-.033a1.61 1.61 0 0 0 .158-.108c.055-.038.108-.08.158-.125l.05-.017.033.017c.01.009.016.02.017.033 0 .023.005.034.017.034a.202.202 0 0 0 .058.066l.058.05.017.017.016-.017.083-.066v-.117c-.022-.022-.038-.033-.05-.033a.148.148 0 0 0-.074-.025.7.7 0 0 0-.075-.009v-.083a.174.174 0 0 0 .033-.058.221.221 0 0 1 .05-.075.297.297 0 0 1 .05-.091.828.828 0 0 1 .066-.092.65.65 0 0 1 .017-.091.219.219 0 0 1 .033-.092c.03-.05.063-.097.1-.141.036-.05.075-.097.117-.142l.216-.216a.585.585 0 0 0 .1-.025.831.831 0 0 0 .116-.041h.216a.128.128 0 0 1 .059.033c.02.019.047.03.075.033.048.03.098.059.15.083.066.034.1.056.1.067a.48.48 0 0 1 .099.083c.044.044.066.078.066.1.037.043.067.09.092.141a.428.428 0 0 1 .058.142v.016l.017.033-.017.034v.016c0 .034-.011.05-.033.05h-.116a.059.059 0 0 1-.05-.05.126.126 0 0 1-.059-.033.13.13 0 0 0-.058-.033.046.046 0 0 1-.033-.017l-.033-.016h-.034a.265.265 0 0 0-.066.05l-.05.05a.382.382 0 0 1-.017.074l-.01.037-.006.038-.017.017v.033c0 .022.003.045.008.067l.006.033.003.033a.476.476 0 0 0-.05.142 3.855 3.855 0 0 1-.05.174l-.067.133-.116.317a1.6 1.6 0 0 0-.067.224 1.67 1.67 0 0 0-.033.158c-.018.08-.03.16-.033.241a3.706 3.706 0 0 0-.017.242.125.125 0 0 1-.033.075.128.128 0 0 0-.033.058.4.4 0 0 1-.026.108.284.284 0 0 1-.041.091l-.083.175a.76.76 0 0 1-.1.175.102.102 0 0 1-.025.05.44.44 0 0 0-.042.066c-.022.023-.05.053-.083.092s-.056.058-.066.058l-.75.033h-2.578c-.077 0-.16.003-.25.009l-.129.006-.12.002h-.166c-.023 0-.084.003-.183.008a.965.965 0 0 0-.2.025.048.048 0 0 1-.033.017h-.033c0 .01-.012.017-.034.017a.133.133 0 0 1-.083.016h-.433a.282.282 0 0 1-.066-.016.188.188 0 0 1-.067-.034h-.848a2.44 2.44 0 0 0-.183.017 1.166 1.166 0 0 0-.2.033.049.049 0 0 1-.033.017h-.183l-.017-.017-.108-.008a1.627 1.627 0 0 0-.141-.008.264.264 0 0 0-.067.008l-.033.006-.034.002h-.083a.478.478 0 0 0-.116.025.292.292 0 0 0-.1.042c-.022 0-.086.005-.191.016-.106.011-.17.017-.192.017h-.582a.873.873 0 0 1-.125-.017.856.856 0 0 0-.125-.016.453.453 0 0 0-.15-.067.182.182 0 0 0-.066-.033.27.27 0 0 0-.067-.017.047.047 0 0 1-.033-.016l-.033-.017c-.011 0-.028-.011-.05-.033a.048.048 0 0 0-.033-.017v-.2a.594.594 0 0 1 .017-.108.585.585 0 0 0 .016-.108l.05-.05c0-.013.007-.025.017-.033l.016-.017.067-.033a.302.302 0 0 1 .075-.025.144.144 0 0 0 .074-.042l.1-.05c.028.001.056.004.084.009a.59.59 0 0 0 .1.008h.05l.016-.016.05-.034c.022-.022.038-.033.05-.033a.08.08 0 0 0 .041-.017.082.082 0 0 1 .042-.016c0-.011.017-.02.05-.025a.123.123 0 0 0 .066-.025l.017-.017a.095.095 0 0 0 .066-.017l.067-.033h.899l.033-.016.15-.15a.13.13 0 0 0 .025-.067.294.294 0 0 1 .025-.083c.002-.053.008-.106.016-.158.011-.083.017-.136.017-.158a.068.068 0 0 0 .016-.05.096.096 0 0 1 .017-.067.293.293 0 0 1 .033-.083l.05-.1a.709.709 0 0 0-.008-.074.752.752 0 0 1-.009-.108c0-.02.003-.04.009-.059a.133.133 0 0 0 .008-.041 5.368 5.368 0 0 1 .066-.333c.004-.05.01-.1.018-.15a.286.286 0 0 1 .05-.15v-.05a.07.07 0 0 1 .016-.05 4.03 4.03 0 0 1 .083-.149.449.449 0 0 0 .067-.15.135.135 0 0 0 .033-.1.163.163 0 0 0 .025-.083.336.336 0 0 1 .025-.1c.022-.051.041-.104.058-.158a.956.956 0 0 0 .042-.141.402.402 0 0 0 .025-.125c-.001-.038.007-.075.025-.108v-.033a.05.05 0 0 1 .016-.034.2.2 0 0 1 .034-.091.208.208 0 0 0 .033-.092.198.198 0 0 1 .016-.058c.011-.027.023-.041.034-.041a.227.227 0 0 1 .033-.075l.02-.036.013-.04a.27.27 0 0 1 .017-.066.278.278 0 0 0 .017-.066.16.16 0 0 1 .05-.117.715.715 0 0 1 .058-.174c.039-.095.063-.153.075-.175a.194.194 0 0 0 .033-.075.382.382 0 0 0 .017-.075v-.264l.016-.119a.616.616 0 0 1 .033-.15v-.548a.92.92 0 0 1 .025-.117.49.49 0 0 1 .058-.15.322.322 0 0 1 .026-.1.27.27 0 0 1 .041-.083.083.083 0 0 1 .017-.041.605.605 0 0 0 .033-.058l.05-.067a.106.106 0 0 0 .025-.05l.006-.018c.005-.01.011-.015.019-.015a.068.068 0 0 0 .016-.05.098.098 0 0 1 .017-.067.342.342 0 0 0 .042-.116.83.83 0 0 0 .033-.175l.005-.029.003-.029.083-.782a.067.067 0 0 1 .017-.05l.017-.05c.022-.066.058-.158.108-.274a1.44 1.44 0 0 0 .075-.192.84.84 0 0 1 .083-.116.343.343 0 0 0 .067-.1.331.331 0 0 1 .008-.058c.005-.028.014-.042.025-.042v-.033a2.2 2.2 0 0 1-.025-.291 8.042 8.042 0 0 1-.008-.291 1.33 1.33 0 0 1-.067-.075.308.308 0 0 0-.083-.075 1.238 1.238 0 0 0-.067-.058.475.475 0 0 0-.083-.059.097.097 0 0 1-.067-.016.113.113 0 0 1-.05-.008.077.077 0 0 0-.033-.009l-.016-.017a.096.096 0 0 1-.067-.016.11.11 0 0 1-.05-.009.077.077 0 0 0-.033-.008.048.048 0 0 0-.033-.016.095.095 0 0 1-.067-.017.098.098 0 0 0-.067-.017h-.365l-.067-.033h-.05l-.017-.017-.016-.016a.146.146 0 0 0-.075-.025.705.705 0 0 0-.092-.008l-.066-.067a.068.068 0 0 1-.017-.05v-.067c0-.066.006-.1.017-.1l.066-.066a.117.117 0 0 1 .059-.025c.027-.005.041-.014.041-.025l.05-.05c.022-.01.033-.022.033-.033l.034-.017h.216a.29.29 0 0 0 .083-.033.37.37 0 0 0 .083-.05.129.129 0 0 0 .05-.017.149.149 0 0 1 .067-.016zm-53.623.116c.022 0 .072.003.15.009.05 0 .1.009.149.025.02.013.043.02.067.016.025.015.054.02.083.017.008.01.02.016.033.016h.117a.047.047 0 0 0 .033-.016.536.536 0 0 0 .133-.033.55.55 0 0 1 .133-.034h.066c.023 0 .073.003.15.009l.068.005.066.02h.066a.183.183 0 0 1 .091-.025c.05-.006.08-.009.092-.009h.383c.028 0 .056.004.083.009.033.005.077.014.133.025l.033.033h.05l.034.05a.066.066 0 0 0 .016.05v.033l.017.017v.066a.07.07 0 0 1-.009.033.115.115 0 0 0-.008.05.096.096 0 0 0-.016.067.535.535 0 0 1-.017.083 1.05 1.05 0 0 0-.025.141.894.894 0 0 1-.025.134.361.361 0 0 0-.017.074.396.396 0 0 1-.017.075.393.393 0 0 0-.016.075c0 .023-.006.086-.017.192l-.007.07c-.006.064-.01.104-.01.12a.51.51 0 0 1-.016.084.448.448 0 0 0-.017.1.068.068 0 0 1-.016.05.05.05 0 0 0-.017.033l-.016.017c0 .022-.006.075-.017.158a2.2 2.2 0 0 0-.017.141.081.081 0 0 1-.016.042.104.104 0 0 0-.017.058.384.384 0 0 1-.033.092.396.396 0 0 1-.05.091.15.15 0 0 1-.017.067.125.125 0 0 0-.016.05c0 .022-.012.108-.034.257a3.44 3.44 0 0 0-.033.258 2.196 2.196 0 0 0-.067.167.727.727 0 0 0-.05.166 1.42 1.42 0 0 0 0 .433.766.766 0 0 0-.05.058.091.091 0 0 1-.066.042l-.016.016h-.067l-.017-.016c-.011 0-.028-.014-.05-.042a.126.126 0 0 1-.033-.058 2.517 2.517 0 0 1-.066-.4l-.001-.422a6.041 6.041 0 0 0-.008-.143 1.756 1.756 0 0 0-.025-.217c0-.033-.003-.088-.008-.166l-.006-.091a.926.926 0 0 1-.003-.042c-.01 0-.03-.039-.058-.117a7.806 7.806 0 0 0-.074-.2.472.472 0 0 0-.025-.09.288.288 0 0 0-.042-.092c-.011 0-.017-.017-.017-.05a.067.067 0 0 0-.017-.05.491.491 0 0 1-.024-.15 2.737 2.737 0 0 1-.009-.15.083.083 0 0 0-.016-.041.078.078 0 0 1-.017-.042.331.331 0 0 1-.091-.091.287.287 0 0 1-.059-.092c-.01 0-.019-.016-.025-.05a.13.13 0 0 0-.025-.066.068.068 0 0 1-.016-.05.151.151 0 0 0-.017-.067l-.033-.066a.312.312 0 0 0-.058-.042.144.144 0 0 1-.059-.058l-.216-.1a.8.8 0 0 0-.208-.025.78.78 0 0 1-.208-.025.264.264 0 0 1-.066-.017.286.286 0 0 0-.067-.016h-.466a.592.592 0 0 0-.116.042.92.92 0 0 0-.15.074.081.081 0 0 0-.042.017.082.082 0 0 1-.041.017.344.344 0 0 1-.058.041c-.028.017-.042.03-.042.042l-.083.05a.521.521 0 0 0-.067.083.488.488 0 0 1-.05.066.98.98 0 0 0-.083.2.564.564 0 0 1-.083.183 1.008 1.008 0 0 1-.025.125.357.357 0 0 1-.042.125.115.115 0 0 0-.024.058c-.006.028-.015.042-.026.042a.39.39 0 0 1-.041.124.51.51 0 0 1-.058.109.512.512 0 0 0-.025.158.535.535 0 0 1-.025.158.341.341 0 0 1-.009.058.115.115 0 0 1-.024.058l-.017.067a.18.18 0 0 0-.025.091.366.366 0 0 1-.025.108.863.863 0 0 1-.017.1.692.692 0 0 0-.017.117.428.428 0 0 0-.024.133 1.735 1.735 0 0 0-.009.133 2.028 2.028 0 0 0-.066.183.921.921 0 0 0-.05.183.244.244 0 0 0-.025.116 2.487 2.487 0 0 0-.008.117.87.87 0 0 1-.017.125.969.969 0 0 0-.017.108l-.05.3a.13.13 0 0 1-.016.049.126.126 0 0 0-.017.05l-.016.017-.017.05-.033.05a.237.237 0 0 0-.075.116.922.922 0 0 1-.075.15l-.033.033a.048.048 0 0 0-.017.033c0 .023-.003.07-.008.142a.466.466 0 0 1-.025.141.597.597 0 0 1-.034.108l-.02.053-.013.055v.45a.207.207 0 0 1-.017.074 1.168 1.168 0 0 1-.033.075.173.173 0 0 1-.033.067l-.033.083a.13.13 0 0 1-.033.058.913.913 0 0 1-.05.058l-.017.05a.068.068 0 0 0-.017.05v.65a.13.13 0 0 1-.017.049.152.152 0 0 0-.016.067.145.145 0 0 1-.008.041.125.125 0 0 0-.009.042c-.011 0-.025.01-.041.033-.017.022-.031.033-.042.033a.097.097 0 0 1-.067.017.068.068 0 0 1-.05.017h-.033l-.016.016-.017.034v.1c.003.05.008.1.017.15.01.077.016.121.016.132v.183a.382.382 0 0 1-.016.075.36.36 0 0 0-.017.075l-.008.283c0 .095-.008.19-.025.283a1.05 1.05 0 0 1-.042.183 1.055 1.055 0 0 0-.05.29 2.781 2.781 0 0 1-.025.192 2.409 2.409 0 0 0-.033.316.133.133 0 0 1-.017.05l-.01.024-.006.026-.017.017-.016.05-.034.05a.23.23 0 0 0-.083.15l-.017.016v.05l.017.05.033.066.05.084.017.033.083.05a.268.268 0 0 0 .066.016 1.284 1.284 0 0 0 .233.083.274.274 0 0 1 .076.026c.023.011.048.02.074.025l.017.016h.083a.049.049 0 0 0 .034-.016c.01 0 .041-.003.09-.009.05-.005.081-.008.093-.008.044.005.09 0 .132-.017a.13.13 0 0 0 .084-.017h.35a.283.283 0 0 1 .065.017c.027.01.055.016.084.017l.017.017c.021.022.033.038.033.05l.05.05.033.05a.544.544 0 0 1 0 .265c0 .012-.025.034-.075.067a.73.73 0 0 0-.108.083.134.134 0 0 0-.1.033.548.548 0 0 1-.108.034.687.687 0 0 1-.092.016h-.183a.374.374 0 0 0-.091-.05.361.361 0 0 0-.092-.033.518.518 0 0 0-.116-.033.694.694 0 0 0-.117-.017h-1.347c-.044 0-.114.003-.208.008a143.112 143.112 0 0 0-.74.042 1.609 1.609 0 0 0-.2.033c-.068.011-.135.028-.2.05h-.083l-.1-.05a1.072 1.072 0 0 0-.15-.108 1.06 1.06 0 0 1-.15-.108h-.066a.34.34 0 0 0-.117.066l-.033.034a.049.049 0 0 0-.033.017.32.32 0 0 0-.1.024c-.044.017-.077.03-.1.042a.136.136 0 0 1-.1.033c-.05.003-.1.009-.15.017a.6.6 0 0 0-.149.033.678.678 0 0 0-.075.009.785.785 0 0 1-.075.008h-.2a.224.224 0 0 1-.074-.033l-.036-.02-.04-.014a.18.18 0 0 0-.09-.025 1.209 1.209 0 0 0-.092-.008l-.083-.05a58.614 58.614 0 0 0-.033-.066v-.15l.033-.067.133-.133a.75.75 0 0 1 .133-.116l.067-.034.174-.041c.072-.017.108-.03.108-.042h.533a.068.068 0 0 1 .05.017c.022.022.038.033.05.033a.468.468 0 0 1 .1.017.5.5 0 0 0 .082.016h.084a28 28 0 0 0 .283-.058c.133-.027.216-.047.25-.058a.08.08 0 0 0 .04-.017.082.082 0 0 1 .042-.016c0-.011.011-.025.034-.042.022-.017.033-.03.033-.041l.017-.017a.186.186 0 0 1 .033-.05.708.708 0 0 1 .025-.133.74.74 0 0 1 .041-.133c.011-.022.028-.058.05-.108a.361.361 0 0 1 .067-.109c0-.044.003-.14.008-.29 0-.098.009-.196.025-.292a.136.136 0 0 1 .033-.1l.05-.116a.288.288 0 0 0 .05-.117.28.28 0 0 0 .025-.124.83.83 0 0 1 .05-.2.14.14 0 0 1 .058-.075c.001-.013.007-.025.017-.033l.067-.067a.047.047 0 0 0 .033-.016l.05-.034.05-.05v-.066l-.05-.1a.56.56 0 0 0-.058-.158.665.665 0 0 0-.092-.158.29.29 0 0 0-.008-.067.2.2 0 0 1-.009-.05.658.658 0 0 1 .042-.174c.016-.054.036-.107.058-.158l.117-.233a.727.727 0 0 0 .058-.075.209.209 0 0 0 .042-.075c.033-.01.06-.05.083-.116 0-.013.006-.025.016-.034l.017-.033v-.416a.083.083 0 0 1 .016-.042.083.083 0 0 0 .017-.041l.084-.117a.668.668 0 0 1 .1-.15l.032-.066v-.15a.198.198 0 0 0-.016-.058.181.181 0 0 1-.017-.058.066.066 0 0 1-.016-.05v-.116a.067.067 0 0 1 .016-.05.049.049 0 0 0 .017-.034.068.068 0 0 1 .016-.05.339.339 0 0 1 .067-.1.86.86 0 0 0 .083-.116v-.316c.011 0 .017-.01.017-.033-.005-.04 0-.08.016-.117a.067.067 0 0 1 .017-.05v-.033l.017-.033a.674.674 0 0 0 .025-.183c.005-.1.008-.16.008-.183l.05-.117a.457.457 0 0 0 .033-.1 1.26 1.26 0 0 1 .017-.14c.008-.048.014-.095.017-.142a.185.185 0 0 1 .016-.058.194.194 0 0 0 .017-.059l.116-.25.009-.107c.005-.061.008-.125.008-.192 0-.06.002-.122.008-.183.006-.055.009-.094.009-.116.02-.049.036-.1.05-.15a.75.75 0 0 0 .033-.15c0-.01.002-.044.008-.1.002-.04.01-.079.025-.116a4.026 4.026 0 0 0 .1-.4l.133-.249v-.35l-.033-.05-.1-.082a.125.125 0 0 1-.017-.05.797.797 0 0 1-.15-.1l-.016-.017a.097.097 0 0 1-.067-.016l-.066-.034h-.117a.388.388 0 0 0-.075.017l-.037.01-.038.007a1.56 1.56 0 0 1-.257.025 7.31 7.31 0 0 1-.242.008.31.31 0 0 1-.058.041.145.145 0 0 1-.058.025.081.081 0 0 0-.042.017.08.08 0 0 1-.041.017l-.3.116a.047.047 0 0 1-.033.017l-.033.016a.316.316 0 0 1-.059.042c-.028.017-.041.03-.041.042l-.583.599a1.77 1.77 0 0 0-.132.174c-.041.061-.086.12-.134.175a.558.558 0 0 1-.074.1l-.075.083-.15.25a.885.885 0 0 1-.014.026l-.044.082a.54.54 0 0 1-.059.091c0 .011-.014.033-.041.067a.457.457 0 0 0-.058.083l-.067.067c-.022 0-.033.022-.033.066-.011.022-.034.08-.067.175a.804.804 0 0 0-.05.174.758.758 0 0 0-.066.1l-.05.117a1.389 1.389 0 0 1-.133.166c0 .044-.04.067-.117.067a.38.38 0 0 1-.15.083l-.05.016a.067.067 0 0 1-.05.017h-.2c-.054 0-.088-.039-.099-.116v-.1a.529.529 0 0 1 .017-.083.466.466 0 0 0 .017-.1c0-.011.005-.058.016-.141.011-.084.017-.13.017-.142l.083-.266a.285.285 0 0 0 .042-.092c.011-.03.02-.06.025-.091l.116-.333a.083.083 0 0 1 .016-.042.082.082 0 0 0 .017-.041.337.337 0 0 0 .042-.058c.017-.028.03-.042.042-.042 0-.01.021-.033.066-.067a.977.977 0 0 0 .083-.066.19.19 0 0 1 .017-.058.193.193 0 0 0 .017-.058v-.25a.565.565 0 0 1 .025-.125.707.707 0 0 0 .024-.108.366.366 0 0 0 .042-.125.38.38 0 0 1 .041-.125.151.151 0 0 1 .025-.075.992.992 0 0 0 .042-.074.277.277 0 0 0 .042-.067c.016-.033.03-.05.041-.05a.07.07 0 0 1 .017-.05c0-.011.003-.023.008-.033l.006-.016.003-.017a.64.64 0 0 1 .033-.142c.013-.048.03-.095.05-.141v-.017c0-.013.007-.025.016-.033a.068.068 0 0 1 .017-.05c0-.01.01-.027.033-.05l.067-.066.083-.034a.172.172 0 0 1 .067-.033h.332c.025.002.05.004.075.008a.15.15 0 0 1 .075.025h.15a.772.772 0 0 1 .141-.041.814.814 0 0 1 .142-.025l.3-.05h.132a.777.777 0 0 0 .208.025c.07-.001.14.007.208.025.056 0 .15.006.283.016.133.012.222.017.266.017h.15c.022 0 .078-.005.166-.017.089-.01.145-.016.167-.016.082-.017.166-.028.25-.034.121-.01.246-.019.374-.024l.358-.017c.11-.006.182-.008.216-.008.01 0 .038-.003.083-.009a.896.896 0 0 1 .1-.008.7.7 0 0 1 .091.008l.075.009a.13.13 0 0 0 .083.016c.023 0 .045.003.067.009a.22.22 0 0 0 .05.008c.026.012.054.02.083.025.024.002.047.01.067.025l.016.016h.05a.067.067 0 0 0 .05.017c.022 0 .077.003.166.008.067.003.134.012.2.025h.183l.216-.116a.117.117 0 0 1 .059-.025.353.353 0 0 1 .058-.008.502.502 0 0 1 .15-.025l.132-.009zm6.755-.033a.13.13 0 0 0 .083.017c.01.01.044.016.1.016h.066c.022 0 .086-.005.191-.016l.072-.007c.063-.007.103-.01.12-.01h.166a.584.584 0 0 1 .1.025c.056.017.117.033.183.05.067.017.133.036.2.058l.15.05c.015.002.029.007.041.017.012.01.026.015.042.016a.122.122 0 0 0 .016.05l.05.034h.033a.08.08 0 0 0 .042-.017.082.082 0 0 1 .042-.017c0-.01.016-.027.05-.05a.172.172 0 0 1 .066-.033.502.502 0 0 0 .084-.016.514.514 0 0 1 .083-.017h.532a.671.671 0 0 0 .116-.034c.046-.013.09-.03.133-.05h.666a.31.31 0 0 0 .108-.033.313.313 0 0 1 .108-.033h.2c.067.002.133.007.2.017.088.01.144.016.166.016a.235.235 0 0 1 .075.034c.026.014.051.03.075.05h.116c0-.011.014-.023.042-.034a.194.194 0 0 1 .058-.016h.516c.033.003.067.009.1.016l.166.017c.053 0 .106.003.158.008.05.006.08.008.091.008h.15a.191.191 0 0 1 .075-.033.39.39 0 0 1 .075-.016h.45l.066.05h.865a.134.134 0 0 1 .083.016l.117.05c.03.003.059.015.083.033a.537.537 0 0 1 .066.05c.011 0 .028.011.05.034a.066.066 0 0 0 .017.05v.033l.017.016v.05a.13.13 0 0 1-.017.05l-.011.024-.006.026a.64.64 0 0 0-.066.108.339.339 0 0 0-.05.125v.316a.87.87 0 0 1-.017.125.981.981 0 0 0-.016.108.643.643 0 0 0-.025.183.657.657 0 0 1-.025.183.193.193 0 0 1-.017.058.185.185 0 0 0-.017.059.279.279 0 0 1-.016.083.268.268 0 0 0-.017.066l-.008.2a.745.745 0 0 1-.025.2.145.145 0 0 1-.025.058.149.149 0 0 0-.025.058 4.9 4.9 0 0 1-.017.225l-.007.086c-.006.075-.01.122-.01.138a.357.357 0 0 1-.05.1l-.05.117a.16.16 0 0 0-.05.116v.183a.194.194 0 0 1-.024.067.28.28 0 0 1-.042.066l-.033.05-.033.033a.068.068 0 0 1-.05.017h-.083a.211.211 0 0 1-.05-.008.233.233 0 0 0-.05-.009c-.011 0-.03-.019-.058-.058a.756.756 0 0 0-.075-.091l-.033-.034a.047.047 0 0 1-.017-.033v-.083a.321.321 0 0 1 .042-.092.333.333 0 0 0 .041-.091v-.15l-.033-.066c-.023 0-.045-.028-.067-.084l-.05-.066a.16.16 0 0 1-.033-.117.225.225 0 0 1-.025-.108.235.235 0 0 0-.025-.108.13.13 0 0 0-.033-.058.125.125 0 0 1-.033-.058.113.113 0 0 1-.034-.084v-.465l-.083-.084-.05-.033-.066-.033c0-.011-.017-.028-.05-.05l-.05-.067c-.012 0-.028-.01-.05-.033l-.05-.033a.048.048 0 0 1-.033-.017l-.017-.016a.169.169 0 0 1-.033-.059.107.107 0 0 0-.05-.058.336.336 0 0 0-.042-.091.558.558 0 0 0-.058-.092l-.05-.033a.13.13 0 0 1-.017-.05.202.202 0 0 1-.066-.025c-.033-.017-.05-.03-.05-.042a1.06 1.06 0 0 1-.15-.116l-.183-.183a1.857 1.857 0 0 0-.3-.1l-.182-.083h-1.265a.974.974 0 0 0-.108-.042.398.398 0 0 0-.108-.025h-.083a.834.834 0 0 0-.125.034l-.062.019-.063.014a.222.222 0 0 1-.116.017c-.023 0-.034.005-.034.016a.182.182 0 0 1-.091.025.183.183 0 0 0-.091.025.147.147 0 0 0-.067.017.129.129 0 0 1-.05.016l-.05.034a.049.049 0 0 1-.033.016l-.067.067-.033.066a.096.096 0 0 0-.017.067l-.016.016a.068.068 0 0 0-.017.05.048.048 0 0 0-.017.034v.016a.278.278 0 0 0-.024.125.285.285 0 0 1-.025.125 1.443 1.443 0 0 1-.059.224.735.735 0 0 1-.091.225.71.71 0 0 1-.025.133.712.712 0 0 0-.025.133.224.224 0 0 0-.033.092.622.622 0 0 0-.017.091l-.017.05a.067.067 0 0 0-.016.05.206.206 0 0 0-.034.083.095.095 0 0 0-.016.067c0 .022-.003.07-.009.141a3.043 3.043 0 0 0-.008.125.631.631 0 0 0-.025.133c-.005.056-.014.083-.025.083a.8.8 0 0 0-.041.117.494.494 0 0 0-.025.116.28.28 0 0 1-.017.067.267.267 0 0 0-.017.083.22.22 0 0 0-.025.108.228.228 0 0 1-.025.108l-.016.034v.033a.096.096 0 0 0-.017.066.48.48 0 0 0-.025.15 2.767 2.767 0 0 0-.008.15.812.812 0 0 1-.05.175 2.317 2.317 0 0 1-.067.174.279.279 0 0 1-.016.067.27.27 0 0 0-.017.066.714.714 0 0 1-.017.117.72.72 0 0 0-.016.116v.15c.005.04.016.08.033.117a.475.475 0 0 1 .033.1l.067.05c.02.01.04.02.058.033a.102.102 0 0 0 .058.016c.021.027.05.044.084.05.027.02.058.034.091.042.03.011.06.02.092.025.01 0 .027.01.05.033l.083.083h.05l.183-.116a.048.048 0 0 0 .033-.017.05.05 0 0 0 .033-.017c.022 0 .08-.005.175-.016l.064-.007c.057-.007.094-.01.11-.01a.067.067 0 0 0 .05-.016c.023-.023.04-.034.05-.034a.145.145 0 0 0 .059-.025.31.31 0 0 0 .058-.041l.15-.084a.693.693 0 0 0 .075-.008c.038-.005.058-.014.058-.025a.382.382 0 0 0 .116-.033l.117-.067.033-.033c.022-.055.058-.166.108-.333.05-.166.086-.277.108-.332a.184.184 0 0 0 .025-.092.356.356 0 0 1 .025-.108.069.069 0 0 1 .017-.05l.017-.05.033-.083a.169.169 0 0 0 .033-.067.55.55 0 0 1 .05-.041c.022-.017.033-.03.033-.042a.641.641 0 0 0 .067-.141c.033-.083.06-.13.083-.142a.09.09 0 0 1 .041-.066.827.827 0 0 0 .059-.05h.116l.033.033.05.083c0 .045.006.142.017.291.011.15.017.248.017.292a1.05 1.05 0 0 1-.017.133.976.976 0 0 0-.016.133.314.314 0 0 0-.042.108l-.016.056-.026.052a.18.18 0 0 0-.025.092l-.008.091a.15.15 0 0 1-.017.067.132.132 0 0 0-.016.05 1.52 1.52 0 0 0-.125.166 2.093 2.093 0 0 0-.108.167c0 .022-.006.083-.017.182-.011.1-.016.161-.016.183a.068.068 0 0 0-.017.05.095.095 0 0 0-.017.067l-.083.183-.066.183-.034.116a.34.34 0 0 0-.025.142l-.005.072-.02.07a.642.642 0 0 1-.033.14.83.83 0 0 0-.033.125c0 .023-.006.109-.017.258-.011.15-.017.236-.017.258a1.673 1.673 0 0 0-.024.217.588.588 0 0 1-.025.166.097.097 0 0 1-.017.067l-.05.1a.082.082 0 0 1-.017.04.08.08 0 0 0-.016.042c0 .023-.017.034-.05.034 0 .01-.011.016-.033.016l-.017.017h-.15a.124.124 0 0 1-.05-.017l-.033-.05c-.011 0-.017-.016-.017-.05a.068.068 0 0 0-.016-.05v-.15c.006-.058.017-.116.033-.174a1.184 1.184 0 0 0 .035-.218l.007-.098c.005-.083.008-.147.008-.191 0-.022-.003-.078-.008-.167a3.157 3.157 0 0 1-.009-.166.132.132 0 0 0-.016-.05.144.144 0 0 1-.017-.066l-.117-.25a.049.049 0 0 1-.016-.033.047.047 0 0 1-.017-.034l-.016-.016-.017-.017v-.033l-.033-.05-.083-.033a.174.174 0 0 0-.067-.034l-.266-.05a.537.537 0 0 0-.116-.033.24.24 0 0 1-.1-.033.156.156 0 0 1-.15-.15l-.083.083a.05.05 0 0 1-.034.017l-.033.017h-.582a.251.251 0 0 0-.092.025c-.039.016-.058.03-.058.041a.26.26 0 0 0-.034.108.884.884 0 0 0-.016.125.462.462 0 0 1-.017.1.475.475 0 0 0-.016.083.849.849 0 0 1-.034.125l-.019.062-.014.063a.071.071 0 0 1-.008.033.116.116 0 0 0-.008.05c0 .042.002.083.008.125.005.03.007.06.008.091a.068.068 0 0 1-.016.05.067.067 0 0 0-.017.05l-.017.017a.097.097 0 0 0-.016.066l-.017.017a.13.13 0 0 0-.017.083l-.016.017c0 .01-.009.075-.025.191-.01.088-.03.174-.058.258l-.009.141a.34.34 0 0 1-.025.142l-.016.033a.047.047 0 0 0-.017.033c0 .012-.011.028-.033.05-.023.023-.04.033-.05.033a.354.354 0 0 1-.05.1l-.05.117a.095.095 0 0 0-.017.066.069.069 0 0 1-.016.05.076.076 0 0 1-.008.033.11.11 0 0 0-.009.05c0 .034.003.067.009.1a.556.556 0 0 1 .008.083l-.033.067a.13.13 0 0 0-.017.083c0 .023-.009.09-.025.2a.983.983 0 0 1-.042.2.312.312 0 0 0-.025.1.95.95 0 0 0-.008.083.143.143 0 0 0-.025.074 1.233 1.233 0 0 1-.092.474.673.673 0 0 1-.016.092.55.55 0 0 0-.017.108v.034a.842.842 0 0 1 .042.15c.006.046.02.09.042.132 0 .015.007.03.016.042l.011.02.006.022a.178.178 0 0 1 .033.058c.01.028.022.041.033.041l.033.034c.009.01.021.016.034.016h.382c.023 0 .09-.005.2-.016a.831.831 0 0 0 .2-.034c.02.002.039.004.058.009.03.006.06.008.092.008a.113.113 0 0 0 .05-.008.076.076 0 0 1 .033-.009c.05-.004.1-.012.15-.025a.766.766 0 0 0 .149-.041h.15a.45.45 0 0 0 .142.025c.071.005.118.008.14.008a.067.067 0 0 0 .05.017c.02.013.044.02.067.016.009.01.02.016.034.017h.116a.047.047 0 0 0 .033-.017l.067-.033a.84.84 0 0 0 .233-.066l.3-.084c.01 0 .057-.002.14-.008l.142-.008a.566.566 0 0 1 .141-.058 3.06 3.06 0 0 1 .192-.059l.183-.083a.114.114 0 0 1 .083-.033l.25-.183.216-.117c.01 0 .03-.013.058-.041a.301.301 0 0 1 .075-.058c0-.023.025-.061.075-.117a.681.681 0 0 0 .091-.116l.3-.333a1.28 1.28 0 0 0 .175-.167l.157-.166a.697.697 0 0 1 .15-.1l.083-.083.034-.05.017-.05.016-.016c0-.013.007-.025.017-.034a.048.048 0 0 0 .016-.033.429.429 0 0 0 .05-.117c.005-.05.013-.1.025-.15a.777.777 0 0 1 .042-.149.23.23 0 0 1 .083-.15l.066-.066.067-.083.067-.034h.083c.02.003.04.008.058.017a.187.187 0 0 0 .058.017l.034.05c0 .012.006.024.016.033.001.013.007.025.017.033 0 .012.003.023.008.033a.08.08 0 0 1 .009.034.066.066 0 0 0 .016.05v.15a.7.7 0 0 1-.05.166.719.719 0 0 0-.05.166l-.05.3a.375.375 0 0 1-.033.091.366.366 0 0 0-.033.092.792.792 0 0 0-.042.116.298.298 0 0 1-.041.1 1.724 1.724 0 0 1-.034.2 1.416 1.416 0 0 0-.033.216.71.71 0 0 1-.05.166 2.502 2.502 0 0 1-.066.166 1.507 1.507 0 0 1-.025.175 1.63 1.63 0 0 1-.042.191.935.935 0 0 1-.008.084 1.123 1.123 0 0 0-.009.141.93.93 0 0 1-.008.133.66.66 0 0 0-.008.075.138.138 0 0 1-.05.083c0 .011-.017.034-.05.067l-.05.05-.033.016a.047.047 0 0 1-.034.017 1.267 1.267 0 0 0-.14.017c-.053.009-.106.014-.16.016-.044 0-.132.006-.265.017-.133.01-.222.017-.266.017h-.15a.132.132 0 0 1-.083-.017.186.186 0 0 1-.059-.008.134.134 0 0 0-.041-.009h-.732a.108.108 0 0 0-.067-.05.28.28 0 0 0-.083-.016.592.592 0 0 0-.108.033.559.559 0 0 1-.108.033c-.011 0-.062.006-.15.017a1.87 1.87 0 0 1-.216.017h-.034a.586.586 0 0 1-.108-.017.652.652 0 0 0-.091-.017h-.067a.368.368 0 0 0-.075.017l-.037.01-.037.007h-.217a.613.613 0 0 0-.15.041.638.638 0 0 1-.15.042h-.25a.133.133 0 0 1-.082-.017.096.096 0 0 1-.067-.017 1.071 1.071 0 0 0-.174-.033 1.655 1.655 0 0 0-.158-.016h-.3a.097.097 0 0 1-.067-.017.068.068 0 0 1-.05-.017.453.453 0 0 1-.1-.016.537.537 0 0 0-.083-.017h-.25a2.748 2.748 0 0 0-.274.033 2.924 2.924 0 0 1-.257.034h-.033a.068.068 0 0 1-.05-.017.069.069 0 0 1-.05-.017h-.017a.284.284 0 0 1-.083-.033.258.258 0 0 0-.1-.033h-.034l-.033-.017-.05.017h-.033a.095.095 0 0 1-.067.016.067.067 0 0 1-.05.017h-.033a6.165 6.165 0 0 1-.318.06l-.048.007h-.183l-.066-.034c-.045 0-.136-.005-.275-.016a4.458 4.458 0 0 0-.29-.017h-.034a.518.518 0 0 0-.083.017.46.46 0 0 1-.1.016.373.373 0 0 0-.075.017l-.037.01-.038.007a1.254 1.254 0 0 0-.25.05 1.544 1.544 0 0 0-.174.016c-.083.01-.136.017-.158.017h-.084a8.929 8.929 0 0 0-.1-.034h-.016c0-.01-.011-.02-.033-.025-.023-.005-.034-.013-.034-.024a.129.129 0 0 1-.058-.034.131.131 0 0 0-.058-.033.047.047 0 0 1-.033-.017l-.033-.016-.084-.083v-.15l.033-.033a.757.757 0 0 0 .092-.059c.039-.027.058-.047.058-.058a.068.068 0 0 0 .05-.016.047.047 0 0 0 .033-.017h.45l.066.033.092.083c.05.045.08.067.091.067h.117a.307.307 0 0 0 .091-.05.787.787 0 0 0 .092-.067.05.05 0 0 0 .033-.016.049.049 0 0 0 .033-.017c.023 0 .064-.003.125-.008a.223.223 0 0 0 .108-.025c.011 0 .03-.014.058-.042a.115.115 0 0 0 .042-.075.139.139 0 0 0 .058-.066.193.193 0 0 0 .025-.067.467.467 0 0 1 .017-.1.54.54 0 0 0 .017-.083c0-.023.006-.046.016-.066a.13.13 0 0 0 .017-.05.136.136 0 0 1 .05-.083.246.246 0 0 1 .05-.084.2.2 0 0 0 .05-.1l.016-.016a.05.05 0 0 1 .017-.033.068.068 0 0 0 .016-.05c0-.022-.002-.064-.008-.125a1.888 1.888 0 0 1-.008-.175.27.27 0 0 1 .008-.066.24.24 0 0 0 .008-.05.068.068 0 0 0 .017-.05.096.096 0 0 1 .017-.067l.033-.066.017-.05.016-.017a.405.405 0 0 0 .025-.125l.009-.108a.398.398 0 0 0 .05-.1.389.389 0 0 0 .033-.116 2.554 2.554 0 0 1 .033-.3 3.043 3.043 0 0 0 .033-.299l.117-.4a.97.97 0 0 1 .033-.166c.012-.056.029-.112.05-.166a.493.493 0 0 1 .025-.117.294.294 0 0 1 .042-.1c0-.01.002-.04.008-.09.005-.05.01-.103.017-.159a1.58 1.58 0 0 1 .025-.166.497.497 0 0 1 .033-.117.603.603 0 0 1 .025-.1.488.488 0 0 0 .025-.116.561.561 0 0 0 .083-.141c.025-.052.047-.105.066-.159a.887.887 0 0 0 .067-.083.199.199 0 0 0 .05-.1v-.016l.016-.033a.07.07 0 0 1 .017-.05c0-.028.003-.056.008-.084a.894.894 0 0 0 0-.25.51.51 0 0 1-.008-.082.325.325 0 0 0 .083-.117l.034-.066v-.366a.226.226 0 0 1 .033-.075.412.412 0 0 1 .05-.075l.05-.167a.7.7 0 0 0 .05-.166.79.79 0 0 0 .025-.208.758.758 0 0 1 .025-.208c0-.01.002-.041.008-.091.005-.05.014-.075.025-.075a.92.92 0 0 1 .058-.191.653.653 0 0 1 .092-.192.096.096 0 0 1 .016-.066.11.11 0 0 1 .009-.05.076.076 0 0 0 .008-.034.348.348 0 0 1 .008-.058c.005-.027.014-.041.025-.041l.15-.383a.116.116 0 0 0 .025-.058.34.34 0 0 0 .008-.059v-.05a.073.073 0 0 0-.008-.033.114.114 0 0 1-.008-.05.095.095 0 0 1-.017-.066v-.083l.083-.267a.148.148 0 0 1 .025-.058c.016-.027.03-.041.042-.041l.05-.117a.289.289 0 0 0 .05-.116v-.183c0-.011-.009-.061-.025-.15a51.98 51.98 0 0 0-.042-.216c-.011-.011-.017-.05-.017-.117a.049.049 0 0 0-.016-.033.575.575 0 0 0-.075-.1 3.075 3.075 0 0 0-.075-.083.117.117 0 0 0-.058-.025.348.348 0 0 0-.059-.009.47.47 0 0 0-.1.034.378.378 0 0 1-.116.033l-.017.017h-.033a.377.377 0 0 1-.075-.009.364.364 0 0 0-.058-.008.782.782 0 0 1-.208.025c-.07 0-.14.008-.208.025h-.15a.437.437 0 0 0-.133-.025.252.252 0 0 1-.116-.025c-.045 0-.067-.01-.067-.033a.297.297 0 0 1-.075-.058c-.027-.028-.041-.047-.041-.059a.135.135 0 0 1-.033-.1.337.337 0 0 1 .008-.058.114.114 0 0 1 .025-.058l.066-.067.084-.05a.19.19 0 0 0 .058-.016.198.198 0 0 1 .058-.017h.35a.564.564 0 0 0 .107-.016.679.679 0 0 1 .092-.017zm36.769.067c.038.01.074.023.108.041l.053.024.055.018h.6a.538.538 0 0 1 .066.008.488.488 0 0 0 .083.008l.083.05.067.034.016.016h.05a.068.068 0 0 0 .05.017c.008.01.02.016.033.017a.269.269 0 0 0 .067-.009.236.236 0 0 1 .05-.008c.03.021.064.038.1.05a.459.459 0 0 0 .1.033h.382c.02.003.04.008.058.017a.189.189 0 0 0 .059.016h.183l.216-.116h.432a1.54 1.54 0 0 0 .175-.017 1.71 1.71 0 0 1 .158-.016.21.21 0 0 0 .075-.042l.036-.025.039-.017h.25c.076.014.151.033.224.059l.111.033.114.025a.411.411 0 0 0 .133.025c.04-.001.08.007.117.025a.13.13 0 0 1 .058.033c.023.018.043.04.058.067 0 .044.016.066.05.066v.083a.273.273 0 0 0-.042.067.198.198 0 0 0-.025.083c-.011 0-.028.011-.05.033-.022.023-.039.034-.05.034a.049.049 0 0 1-.033.016l-.033.017a.544.544 0 0 1-.133.033 1.023 1.023 0 0 1-.133.017h-.516c-.022 0-.092.006-.208.016a3.055 3.055 0 0 1-.225.017.695.695 0 0 0-.091.009c-.04.005-.059.014-.059.025a.172.172 0 0 0-.066.033c-.033.022-.05.044-.05.066a.294.294 0 0 1-.05.092c-.024.035-.046.07-.066.108l-.034.066a.716.716 0 0 1-.016.117.532.532 0 0 1-.033.116.56.56 0 0 1-.009.084.507.507 0 0 0-.008.066.68.68 0 0 0-.067.142.617.617 0 0 0-.05.158c-.018.079-.029.16-.033.24a3.821 3.821 0 0 0-.017.242l-.066.067a.095.095 0 0 0-.033.066.294.294 0 0 0-.042.1.499.499 0 0 0-.025.133 1.5 1.5 0 0 0-.058.167.814.814 0 0 0-.05.25.478.478 0 0 0-.008.066.317.317 0 0 0-.034.124c-.01.073-.016.114-.016.125a1.178 1.178 0 0 1-.042.217c-.02.084-.045.168-.075.25a.195.195 0 0 1-.016.057c-.012.028-.023.042-.034.042a.245.245 0 0 1-.025.091.258.258 0 0 1-.041.075.069.069 0 0 0-.017.05.134.134 0 0 0-.017.083.23.23 0 0 0-.016.1.133.133 0 0 1-.017.084c-.003.05-.008.1-.017.15-.008.049-.013.099-.016.149 0 .022-.003.058-.008.108a1.316 1.316 0 0 0-.009.158l-.002.08-.006.078c-.006.05-.008.08-.008.092a.692.692 0 0 1-.009.075.667.667 0 0 0-.008.091l-.066.15-.034.1a.342.342 0 0 1-.05.125.436.436 0 0 0-.05.108.31.31 0 0 0-.025.133l-.004.068c-.003.04-.004.067-.004.081a.072.072 0 0 1-.008.034.115.115 0 0 0-.008.05.095.095 0 0 0-.017.066.612.612 0 0 0-.033.15c-.009.05-.014.1-.017.15l-.117.382c0 .012-.01.073-.033.183-.022.111-.033.172-.033.183a.871.871 0 0 1-.033.158c-.013.054-.03.107-.05.159-.009.05-.02.1-.034.15a1.11 1.11 0 0 1-.05.165.895.895 0 0 1-.024.117.771.771 0 0 1-.042.133.383.383 0 0 1-.017.075.373.373 0 0 0-.016.075c-.011.022-.025.056-.042.1a.36.36 0 0 0-.025.083l-.033.066a.067.067 0 0 0-.017.05.368.368 0 0 0-.025.117 1.306 1.306 0 0 0-.008.116.469.469 0 0 1-.017.1.523.523 0 0 0-.016.083c-.012 0-.02.017-.025.05a.13.13 0 0 1-.025.067.927.927 0 0 1-.059.191l-.026.071-.038.096-.01.024-.033.05a.067.067 0 0 0-.017.05v.15l.05.1a.059.059 0 0 0 .066.066.177.177 0 0 0 .075.067c.027.014.052.03.075.05h.45a.277.277 0 0 1 .074.025c.024.012.049.02.075.025h.15a.329.329 0 0 0 .116-.042.404.404 0 0 1 .1-.041h.05a.11.11 0 0 0 .05-.009.076.076 0 0 1 .033-.008c.012 0 .023.003.033.008.016.007.033.01.05.009h.05l.05.05c.022.01.033.022.033.033l.034.016a.478.478 0 0 0 .008.067.501.501 0 0 1 .008.066v.1l-.016.05v.034a.533.533 0 0 1-.05.041.101.101 0 0 1-.05.025.364.364 0 0 1-.125.042c-.072.016-.125.03-.158.041h-.033a1.08 1.08 0 0 1-.108-.016 1.004 1.004 0 0 0-.109-.017h-.532l-.358-.042a.892.892 0 0 1-.24-.041l-.184-.117h-.516a.278.278 0 0 0-.066-.041.194.194 0 0 0-.084-.025h-.016l-.033-.017-.067.017-.016.016-.1.067-.034.016-.016.017-.05.017a.047.047 0 0 1-.033.016.097.097 0 0 1-.067.017.188.188 0 0 0-.083.017l-.45.083c-.022 0-.066.002-.133.008a2.542 2.542 0 0 1-.208.008c-.072 0-.14.003-.208.009a2.671 2.671 0 0 1-.116.008c-.022 0-.078.005-.167.017-.088.01-.144.016-.166.016h-.116a.281.281 0 0 1-.067-.016.267.267 0 0 0-.083-.017l-.15-.083-.033-.033v-.134a.495.495 0 0 1 .025-.116.795.795 0 0 1 .042-.116l.016-.05c.001-.013.007-.025.017-.034a.113.113 0 0 1 .083-.033h1.215c.01 0 .033-.017.066-.05l.1-.1a1.14 1.14 0 0 1 .083-.124l.044-.062.04-.063c.032-.034.05-.056.05-.067.03-.085.066-.169.107-.25a.997.997 0 0 0 .075-.166.684.684 0 0 1 .033-.116l.05-.15c.001-.03.004-.061.009-.091.005-.04.014-.059.025-.059.01-.055.027-.127.05-.216a.986.986 0 0 0 .033-.166l.008-.183c0-.062.008-.124.025-.183a.733.733 0 0 1 .067-.183c.022-.058.05-.114.083-.167v-.016a.068.068 0 0 0 .017-.05.067.067 0 0 1 .016-.05.794.794 0 0 1 .017-.1.86.86 0 0 0 .016-.1.501.501 0 0 0 .05-.141.859.859 0 0 0 .034-.158v-.333c0-.01.013-.075.041-.191.028-.117.047-.203.058-.258a.114.114 0 0 1 .009-.05.072.072 0 0 0 .008-.033c.001-.013.007-.025.017-.034a.224.224 0 0 0 .075-.083.629.629 0 0 1 .058-.083v-.033l.017-.05v-.416a1.623 1.623 0 0 1 .091-.3 1.82 1.82 0 0 0 .067-.183.486.486 0 0 0 .025-.116.289.289 0 0 0 .033-.117c.008-.044.014-.088.017-.133a.335.335 0 0 1 .008-.058.341.341 0 0 0 .008-.058l.017-.017a.096.096 0 0 1 .016-.067.097.097 0 0 0 .017-.066c.003-.047.008-.095.017-.142.008-.046.014-.093.016-.14a.383.383 0 0 1 .033-.117 1.73 1.73 0 0 1 .05-.117.967.967 0 0 1 .017-.108l.01-.054.007-.054a.048.048 0 0 0 .016-.033c.001-.013.007-.025.017-.034.027-.031.052-.065.075-.1.027-.037.052-.076.075-.116a.143.143 0 0 0 .05-.1v-.565a.095.095 0 0 1 .016-.067l.05-.116c0-.045.017-.067.05-.067a.104.104 0 0 1 .025-.05.445.445 0 0 1 .042-.05.113.113 0 0 0 .033-.083.082.082 0 0 0 .017-.058.08.08 0 0 1 .016-.058v-.057a7.506 7.506 0 0 0-.008-.193 7.074 7.074 0 0 1-.008-.358c0-.127-.003-.246-.009-.358a5.152 5.152 0 0 1-.008-.232.097.097 0 0 0-.033-.067 1.633 1.633 0 0 1-.084-.091c-.033-.04-.055-.059-.066-.059-.011-.022-.047-.044-.108-.066a1.247 1.247 0 0 1-.125-.05.232.232 0 0 0-.116-.05.71.71 0 0 0-.117-.017.096.096 0 0 1-.066.017.068.068 0 0 1-.05.017h-.566a.112.112 0 0 1-.083-.034.03.03 0 0 0-.034-.033c-.066-.066-.1-.116-.1-.15-.01 0-.022-.016-.033-.05a.069.069 0 0 1-.016-.05.097.097 0 0 1-.017-.066v-.116a.069.069 0 0 1 .017-.05l.083-.084h.033l.1-.05a.13.13 0 0 1 .05-.016 3.1 3.1 0 0 0 .2-.017c.11-.01.188-.016.233-.016zm-20.581.432h-.699a.528.528 0 0 0-.083.009 4.329 4.329 0 0 0-.133.025l-.085.024-.156.042a1.012 1.012 0 0 0-.242.083l-.15.083a2.11 2.11 0 0 1-.333.216.513.513 0 0 1-.082.067.527.527 0 0 0-.067.05l-.549.533a.267.267 0 0 1-.058.116.974.974 0 0 1-.092.116.083.083 0 0 1-.016.042.079.079 0 0 0-.017.042.067.067 0 0 0-.016.05v.05a.14.14 0 0 0-.025.074.144.144 0 0 1-.025.075l-.017.034c-.011 0-.023.01-.033.033l-.034.066-.15.383a1.633 1.633 0 0 1-.124.225 5.125 5.125 0 0 1-.208.324l-.033.05a.047.047 0 0 0-.017.033v.017a.214.214 0 0 0-.05.108.228.228 0 0 1-.033.092.412.412 0 0 0-.025.133 2.488 2.488 0 0 0-.008.116.13.13 0 0 0-.017.083.098.098 0 0 1-.017.067 3.478 3.478 0 0 1-.15.25.902.902 0 0 1-.024.116.915.915 0 0 0-.025.116.194.194 0 0 1-.017.059.184.184 0 0 0-.017.058.678.678 0 0 0-.066.1.296.296 0 0 0-.05.116v.183a.094.094 0 0 0 .017.067v.05l.016.016v.117c0 .01-.011.028-.033.05l-.033.05c-.027.065-.058.129-.092.19a.58.58 0 0 0-.058.126l-.008.166a.672.672 0 0 1-.025.183.068.068 0 0 0-.017.05l-.003.027-.014.023v.016a1.597 1.597 0 0 0-.058.159.968.968 0 0 0-.042.14l-.05.1v.516c0 .023-.002.073-.008.15a.501.501 0 0 1-.041.192.079.079 0 0 0-.017.041l-.117.4v.1c.021.035.035.075.042.116l.016.06.026.056v.067a.077.077 0 0 1-.008.033.114.114 0 0 0-.009.05.098.098 0 0 0-.017.067.067.067 0 0 0-.016.05v.133c0 .013.007.025.016.033.001.02.004.039.009.058.005.028.014.042.025.042 0 .055.022.083.066.083a.528.528 0 0 1 .067.008.46.46 0 0 0 .067.009h.066a.067.067 0 0 0 .05-.017.048.048 0 0 1 .033-.017c.022 0 .033-.005.033-.016l.05-.05a.856.856 0 0 0 .075-.117.485.485 0 0 0 .058-.116.19.19 0 0 1 .067-.067.51.51 0 0 0 .067-.05.367.367 0 0 1 .108-.066 3.27 3.27 0 0 0 .108-.05c.02.002.04.008.058.016.024.01.05.016.075.017v.083a.94.94 0 0 1-.1.3l-.067.133a.211.211 0 0 0-.05.1.497.497 0 0 0-.016.083v.582a.05.05 0 0 1 .017.034.13.13 0 0 0 .016.083c.011.033.033.089.067.166a.52.52 0 0 0 .083.15l.05.066c.01.045.027.067.05.067 0 .011.01.028.033.05l.067.1a.134.134 0 0 1 .05.016c.02.011.043.017.066.017a.282.282 0 0 1 .067.016c.026.01.054.016.083.017l.333.117h.25a.464.464 0 0 1 .099.016.5.5 0 0 0 .083.017h.183a.127.127 0 0 0 .05-.017.15.15 0 0 1 .067-.016c.044-.022.116-.061.216-.117.065-.032.126-.071.183-.116h.017a.048.048 0 0 0 .033-.017l.033-.033v-.15a.522.522 0 0 0-.016-.083.47.47 0 0 1-.017-.083.987.987 0 0 1-.025-.217c0-.072-.01-.145-.025-.216v-.482a.113.113 0 0 0-.033-.084 6.655 6.655 0 0 0-.125-.116.725.725 0 0 1-.125-.133.366.366 0 0 1-.025-.15 3.705 3.705 0 0 1-.008-.166.133.133 0 0 0-.017-.05l-.033-.067c0-.02-.006-.04-.017-.058a.537.537 0 0 1-.033-.058l-.033-.067c0-.044-.04-.072-.117-.083a.095.095 0 0 1-.066-.017.11.11 0 0 1-.05-.008.077.077 0 0 0-.034-.008l-.016-.017h-.067a.16.16 0 0 1-.116.05.675.675 0 0 0-.092.017.623.623 0 0 1-.09.016.144.144 0 0 1-.076.025.146.146 0 0 0-.075.025l-.125.009c-.072.005-.12.008-.14.008l-.034.017h-.033a.097.097 0 0 1-.067.016h-.033l-.017-.033a.129.129 0 0 0 .025-.067.292.292 0 0 1 .025-.083.048.048 0 0 0 .016-.033.133.133 0 0 1 .017-.083.199.199 0 0 1 .034-.083.048.048 0 0 0 .033-.017l.033-.017a.306.306 0 0 1 .083-.025.149.149 0 0 0 .084-.041l.1-.05c.036-.004.072-.01.107-.017a.914.914 0 0 1 .158-.017h.033c.045 0 .136.006.275.017.139.011.23.017.275.017l.083.05a.261.261 0 0 0 .067.016l.182.084a.39.39 0 0 1 .075.016.36.36 0 0 0 .075.017l.083.05a.267.267 0 0 0 .067.016c.021.046.05.088.083.125.056.072.094.125.117.158a1.927 1.927 0 0 1 .166.25.05.05 0 0 1 .016.033c.001.013.007.025.017.033v.217c0 .01.011.025.034.041a.523.523 0 0 1 .05.042c.014.025.02.054.016.083 0 .056.005.083.017.083a.17.17 0 0 0 .033.067l.083.066c0 .023.006.034.017.034l.033.05.067.083.05.05h.216l.033-.034a.228.228 0 0 1 .008-.05.265.265 0 0 0 .009-.066.13.13 0 0 1 .016-.083.19.19 0 0 0 .034-.05.252.252 0 0 1 .05-.067.211.211 0 0 0 .066-.058.817.817 0 0 1 .05-.058.38.38 0 0 0 .075-.017l.037-.01.038-.007a.78.78 0 0 0 .041-.124.587.587 0 0 0 .025-.125.294.294 0 0 1 .034-.083.254.254 0 0 0 .033-.1v-.383a.068.068 0 0 1 .017-.05l.033-.05c.01-.022.03-.058.058-.108a.267.267 0 0 0 .041-.108l.034-.033c.022-.022.039-.034.05-.034a.825.825 0 0 0 .1-.016.716.716 0 0 1 .116-.017l.017-.016a.189.189 0 0 0 .05-.034v-.2a.067.067 0 0 1-.017-.05.066.066 0 0 1-.016-.05.095.095 0 0 1-.017-.066v-.116c0-.034.003-.067.008-.1.005-.044.009-.072.009-.083a.048.048 0 0 0 .016-.034c0-.012.007-.024.017-.033l.066-.075c.033-.038.05-.063.05-.075a.5.5 0 0 0 .075-.108.33.33 0 0 0 .042-.091c.022-.067.05-.175.083-.325.033-.15.055-.246.067-.29 0-.012-.004-.042-.009-.092a1.403 1.403 0 0 1-.008-.158c0-.023.002-.045.008-.067a.248.248 0 0 0 .009-.05 2.168 2.168 0 0 1 .066-.3.377.377 0 0 1 .05-.099.686.686 0 0 1 .066-.1.125.125 0 0 1 .017-.05.149.149 0 0 0 .017-.066c.01-.076.028-.151.05-.225.022-.074.038-.149.05-.224l.05-.067v-.782a.443.443 0 0 1 .008-.067.551.551 0 0 0 .008-.066c.003-.045.008-.09.017-.133.008-.044.014-.089.016-.133a.576.576 0 0 0 .05-.167.775.775 0 0 0 .042-.141.835.835 0 0 0 .025-.142v-.399a.334.334 0 0 0-.042-.091.527.527 0 0 0-.075-.109c0-.022-.025-.06-.075-.116a.671.671 0 0 1-.09-.117l-.034-.066a.095.095 0 0 1-.017-.067l-.017-.016a.3.3 0 0 1-.041-.059c-.017-.027-.03-.041-.042-.041 0-.022-.02-.05-.058-.083a.52.52 0 0 0-.091-.067.698.698 0 0 0-.134-.133 2.964 2.964 0 0 1-.15-.133c-.022 0-.052-.02-.09-.058-.04-.039-.059-.064-.059-.075a.375.375 0 0 1-.15-.083.1.1 0 0 1-.05-.025.46.46 0 0 0-.067-.042.367.367 0 0 0-.083-.091.191.191 0 0 0-.1-.059l-.033-.016-.033-.033a.325.325 0 0 0-.1-.025 1.006 1.006 0 0 0-.083-.009zm46.564 2.382-.014.015h-.034l-.106.106a.558.558 0 0 0-.093.108l-.007.01-.067.065-.046.063-.07.07a.236.236 0 0 0-.043.058l-.01.019h-.02c.002 0-.013.007-.061.05a3.772 3.772 0 0 0-.082.073 1.123 1.123 0 0 1-.112.094.42.42 0 0 0-.061.055v.004l-.006.008a3.764 3.764 0 0 1-.237.305.676.676 0 0 0-.092.18c-.045.105-.073.17-.085.194l-.007.009c-.01.01-.038.04-.08.09a.356.356 0 0 0-.06.075v.012c-.052.06-.114.15-.187.266a2.041 2.041 0 0 1-.15.218 3.275 3.275 0 0 0-.064.143.607.607 0 0 1-.084.153.488.488 0 0 1-.089.115l-.014.016-.086.093-.004.004a.103.103 0 0 1-.02.05v.138c0 .01.002.018.007.026l.01.01v.014a.022.022 0 0 0 .006.01l.01.014a.419.419 0 0 0 .074.046 2.41 2.41 0 0 1 .159.096h.166a.288.288 0 0 0 .062-.022.256.256 0 0 0 .065-.035l.014-.009.218-.062a.066.066 0 0 1 .057-.022c.032.003.064 0 .095-.009l.01-.01.011.002h.048l.01.01a.967.967 0 0 0 .16.023h-.001.2a.239.239 0 0 0 .055-.014l.073-.045.389-.405a.076.076 0 0 1 .016-.032.08.08 0 0 1 .015-.032c0-.026.003-.072.008-.139a.576.576 0 0 1 .025-.154v-.026c0-.022.005-.044.017-.063a.13.13 0 0 1 .016-.065v-.321a.18.18 0 0 1 .02-.099l.032-.126c.004-.058.012-.116.024-.172a.88.88 0 0 1 .041-.178.539.539 0 0 1 .018-.083.433.433 0 0 0 .015-.091v-.014l.01-.01.007-.01c0-.067.007-.104.026-.123a.14.14 0 0 0 .007-.06v-.577l-.033-.017v-.021a.042.042 0 0 0-.007-.027l-.024-.023a.11.11 0 0 1-.034-.011l-.006-.003zm-87.762-29.213.47.004c.981.027 1.954.183 2.894.465a6.368 6.368 0 0 1 3.286 2.397c.284.39.484.833.59 1.303.166.765.197 1.552.092 2.327a1.528 1.528 0 0 1-1.453 1.359c-.398.03-.8.028-1.2.03-.64.005-1.28.009-1.92-.004a4.685 4.685 0 0 1-.771-.089 1.063 1.063 0 0 1-.38-.167.57.57 0 0 1-.201-.74c.064-.124.14-.241.227-.35.284-.387.577-.767.858-1.157.244-.322.368-.719.352-1.123-.015-.338.004-.68-.035-1.016a1.58 1.58 0 0 0-.808-1.196 4.206 4.206 0 0 0-2.356-.57c-.44.01-.877.07-1.303.178a3.193 3.193 0 0 0-2.535 2.852 7.833 7.833 0 0 0-.081 1.136c-.01 1.42-.004 2.842-.004 4.262l-.002 4.383c-.008.54.059 1.08.198 1.602a3.91 3.91 0 0 0 2.084 2.568c.674.353 1.422.54 2.183.548l1.078.016.539-.01c.318-.02.633-.076.94-.165a1.966 1.966 0 0 0 1.415-1.49.606.606 0 0 0-.087-.514c-.181-.287-.373-.568-.55-.86-.185-.307-.37-.617-.531-.937a.496.496 0 0 1 .268-.737c.164-.073.341-.113.521-.115.8.014 1.6.03 2.397.085a.71.71 0 0 1 .759.815c0 .4-.042.8-.126 1.19a6.36 6.36 0 0 1-2.866 4.125 4.846 4.846 0 0 1-1.787.664 9.963 9.963 0 0 1-5.881-.542 9.644 9.644 0 0 1-3.701-2.983 11.121 11.121 0 0 1-2.312-5.77 13.401 13.401 0 0 1 .38-4.995 9.346 9.346 0 0 1 1.266-2.77 8.533 8.533 0 0 1 5.76-3.766 12.314 12.314 0 0 1 2.804-.239zm78.257 1.978c3.692-.657 6.751.51 8.983 3.592a11.16 11.16 0 0 1 1.54 9.388 8.971 8.971 0 0 1-6.753 6.165 4.585 4.585 0 0 1-.647.117c-.338.02-.68.005-1.019.005-.96.04-1.92-.076-2.843-.343a8.05 8.05 0 0 1-4.238-2.887 10.661 10.661 0 0 1-2.2-7.941c.08-.958.31-1.898.68-2.786 1.264-2.865 3.393-4.757 6.497-5.31zm-58.301.313a.52.52 0 0 1 .604.45c.03.116.078.227.116.341 1.438 4.282 2.876 8.564 4.316 12.845.102.303.213.603.33.9.28.71.712 1.35 1.266 1.875.347.332.684.674 1.027 1.01.212.19.323.468.301.752.001.19-.142.349-.331.367a3.111 3.111 0 0 1-.478.031c-2.22.005-4.441.004-6.662-.002-.22 0-.437-.031-.648-.092a.451.451 0 0 1-.336-.559 1.52 1.52 0 0 1 .19-.497c.144-.24.315-.463.479-.69.306-.43.414-.97.296-1.485-.076-.413-.177-.502-.595-.527a14.73 14.73 0 0 0-.84-.021c-1.72-.003-3.44-.003-5.161-.003-.157 0-.314.015-.512.025a4.451 4.451 0 0 0-.351 1.444c-.014.241.06.48.208.67.13.151.247.314.35.485.112.188.198.39.257.601a.475.475 0 0 1-.408.616 2.162 2.162 0 0 1-.418.033c-1.1.002-2.2.002-3.3 0-.12.003-.24-.004-.36-.021a.434.434 0 0 1-.397-.602c.046-.172.127-.333.24-.472.199-.25.417-.485.653-.702a5.762 5.762 0 0 0 1.651-2.668c.835-2.733 1.672-5.466 2.51-8.198.322-1.051.648-2.1.972-3.151.041-.134.085-.267.114-.404a1.302 1.302 0 0 0-.275-1.18 3.31 3.31 0 0 1-.383-.533.33.33 0 0 1 .243-.539c.253-.058.511-.09.77-.095 1.481-.01 2.962-.005 4.442-.005.04 0 .08.005.12.001zm74.752-.022c.361-.015.712.124.964.383 1.172 1.09 2.358 2.167 3.543 3.244 2.193 1.992 4.387 3.982 6.582 5.971.115.105.242.198.353.287.174-.084.13-.22.13-.33.006-.881.004-1.762.006-2.643.003-1.061.013-2.122.01-3.183a3.896 3.896 0 0 0-.078-.65 1.034 1.034 0 0 0-.409-.642c-.376-.299-.744-.608-1.113-.915a5.72 5.72 0 0 1-.404-.359.766.766 0 0 1-.218-.543c-.006-.415.151-.595.564-.61.4-.014.8-.004 1.201-.004h3.063c.12 0 .24-.004.36.003a.476.476 0 0 1 .47.652 1.659 1.659 0 0 1-.268.462 42.84 42.84 0 0 1-.934 1.175c-.235.275-.358.63-.344.991.02 1.041.016 2.082.018 3.123a82069.739 82069.739 0 0 1 .013 8.889c-.06.445.113.889.456 1.178.257.252.493.526.744.784.226.234.33.562.278.883a.402.402 0 0 1-.367.41c-.158.027-.317.04-.477.037-1.061.003-2.122.005-3.183-.003-.2 0-.397-.027-.589-.082a.42.42 0 0 1-.274-.576c.064-.168.15-.327.256-.472.188-.259.396-.502.596-.753a.962.962 0 0 0-.076-1.437c-.256-.253-.53-.487-.798-.729l-8.631-7.823c-.059-.053-.124-.1-.277-.221-.015.233-.03.366-.032.499-.032 2.822-.057 5.645-.1 8.467-.033.36.098.715.355.968.287.278.544.588.817.88.21.222.306.529.257.83a.432.432 0 0 1-.372.413 2.1 2.1 0 0 1-.417.036 381.19 381.19 0 0 1-3.302.001 1.938 1.938 0 0 1-.53-.079.395.395 0 0 1-.295-.512c.036-.155.099-.302.186-.435.144-.217.31-.418.474-.62.151-.186.315-.363.466-.549.21-.245.338-.55.364-.872.017-.24.036-.48.038-.72.019-3.663.026-7.326.061-10.99a1.76 1.76 0 0 0-.782-1.583c-.423-.3-.819-.642-1.224-.968a.804.804 0 0 1-.32-.738.505.505 0 0 1 .487-.51c.1-.01.2-.012.3-.008.801 0 1.602.017 2.402-.007zm-30.582-.016 4.143.002c.08 0 .16-.002.24.004a.431.431 0 0 1 .46.499.78.78 0 0 1-.19.493c-.263.328-.527.655-.787.985-.124.157-.242.319-.365.477-.16.207-.242.464-.231.726.01.82.003 1.64.004 2.461.007 3.203.022 6.405.015 9.607-.028.443.14.876.457 1.185.274.264.523.553.782.83.212.22.315.523.282.827a.431.431 0 0 1-.406.44c-.159.019-.319.028-.479.026-1.04.002-2.081.003-3.122-.002-.2.002-.4-.016-.596-.053a.404.404 0 0 1-.32-.443c.014-.201.09-.392.217-.548.216-.313.444-.618.637-.944a.912.912 0 0 0-.124-1.3 5.784 5.784 0 0 0-.495-.521c-2.92-2.649-5.84-5.297-8.762-7.944-.101-.092-.21-.176-.414-.345-.013.238-.025.352-.026.466-.02 2.882-.037 5.764-.065 8.646a.971.971 0 0 0 .27.76c.295.297.564.622.854.926.216.216.323.517.292.82a.44.44 0 0 1-.45.463c-.14.013-.28.02-.42.018-1.08.003-2.161.003-3.242 0-.16.002-.32-.014-.476-.047a.433.433 0 0 1-.32-.6 2.21 2.21 0 0 1 .287-.522c.2-.274.417-.537.647-.788.388-.41.595-.96.574-1.525-.006-2.302.012-4.604.028-6.905.01-1.421.034-2.842.05-4.263.008-.18.003-.36-.017-.539a1.501 1.501 0 0 0-.59-1.008 77.43 77.43 0 0 1-1.136-.888 3.384 3.384 0 0 1-.4-.36.742.742 0 0 1-.193-.666.483.483 0 0 1 .49-.438c.28-.017.56-.01.84-.01.66-.001 1.321.01 1.981-.002a1.01 1.01 0 0 1 .754.293c.848.792 1.709 1.571 2.568 2.352 2.577 2.341 5.155 4.682 7.734 7.02.083.076.179.137.259.197.16-.105.119-.235.12-.345.004-1.14 0-2.281.003-3.422.002-.76.011-1.521.015-2.282.001-.16.004-.32-.01-.48a1.226 1.226 0 0 0-.478-.927c-.381-.292-.746-.606-1.115-.913a4.836 4.836 0 0 1-.4-.362.83.83 0 0 1-.152-.844.337.337 0 0 1 .3-.259c.159-.018.319-.027.478-.028zm-31.511-.002c.34-.015.671.114.912.355 1.532 1.408 3.068 2.812 4.607 4.212 1.852 1.68 3.704 3.361 5.557 5.04.1.091.21.173.3.246.118-.039.139-.109.142-.179v-.08c.013-.54.02-1.081.023-1.621l.013-3.842c0-.2.01-.4 0-.6a1.447 1.447 0 0 0-.583-1.19c-.372-.27-.716-.578-1.07-.873a3.353 3.353 0 0 1-.393-.367.783.783 0 0 1-.151-.735.401.401 0 0 1 .366-.344c.139-.012.279-.02.419-.02l4.142.002c.1 0 .2-.003.3.006a.407.407 0 0 1 .418.419.777.777 0 0 1-.178.557c-.223.282-.45.562-.674.844-.149.189-.292.382-.443.568-.191.235-.29.53-.28.833.011.9.008 1.801.011 2.701l.039 9.245c.001.04 0 .08-.002.12-.055.424.102.848.42 1.134.275.262.522.553.785.827.241.25.341.604.267.943a.356.356 0 0 1-.31.323 3.483 3.483 0 0 1-.477.04c-1.1.002-2.201.002-3.302-.002-.16.001-.319-.014-.475-.048a.429.429 0 0 1-.33-.549c.034-.135.091-.263.169-.38.145-.214.315-.413.467-.623.14-.194.28-.39.403-.595a.74.74 0 0 0-.086-.893 4.916 4.916 0 0 0-.543-.558c-1.57-1.427-3.14-2.853-4.71-4.277l-4.229-3.826c-.099-.089-.202-.172-.395-.336-.016.27-.03.408-.032.546l-.08 8.404c.003.04.002.08-.001.12a.955.955 0 0 0 .325.855c.27.267.524.552.77.841.122.13.217.284.279.451.043.173.048.353.014.528a.361.361 0 0 1-.326.308 3.27 3.27 0 0 1-.419.027c-1.12.005-2.24.007-3.361.006-.14 0-.28-.012-.417-.04a.428.428 0 0 1-.357-.578c.041-.153.11-.298.202-.428.192-.281.405-.547.637-.796a2.35 2.35 0 0 0 .67-1.793c-.019-1.6.012-3.201.023-4.802l.047-6.183c0-.1-.001-.2.002-.3a1.503 1.503 0 0 0-.627-1.296c-.349-.269-.697-.538-1.042-.812a4.944 4.944 0 0 1-.45-.395.748.748 0 0 1-.196-.72.449.449 0 0 1 .449-.406c.1-.009.2-.012.3-.01.82 0 1.64.013 2.46-.004zm49.064 1.518h-.171c-.6.01-1.2.03-1.8.044-.38.009-.76-.005-1.14.023a2.182 2.182 0 0 0-2.078 1.833 4.406 4.406 0 0 0-.074.833c-.006 1.7-.003 3.401-.003 5.101 0 1.62 0 3.241.003 4.861 0 .26.004.521.026.78.047.567.33 1.088.78 1.435.414.356.938.555 1.483.563.58.004 1.16.025 1.74.036.42.007.84.016 1.26.016a2.012 2.012 0 0 0 1.941-1.256c.263-.564.394-1.18.383-1.803-.002-3.12-.006-6.241-.01-9.362a4.64 4.64 0 0 0-.211-1.418c-.415-1.295-1.138-1.704-2.3-1.686zm-64.702 2.06h-.06a.253.253 0 0 0-.19.135 2.157 2.157 0 0 0-.155.387c-.9 2.942-1.8 5.885-2.698 8.829-.028.091-.04.188-.072.342.1.02.201.035.303.043 1.74.005 3.481.008 5.222.012.06 0 .12-.001.18-.006.357-.035.466-.166.39-.511-.09-.41-.203-.815-.302-1.223-.56-2.293-1.174-4.57-1.932-6.806a10.5 10.5 0 0 0-.29-.787 1.138 1.138 0 0 0-.238-.339.253.253 0 0 0-.219-.075zm96.896-3.53a.125.125 0 0 1 .125.085l.523 1.247c.038.09.109.09.147 0l.523-1.247a.125.125 0 0 1 .124-.084h.12a.097.097 0 0 1 .108.108v1.681a.097.097 0 0 1-.108.108h-.087a.097.097 0 0 1-.108-.108v-.71c0-.109-.085-.125-.125-.025l-.32.76a.125.125 0 0 1-.125.083h-.152a.125.125 0 0 1-.124-.084l-.32-.759c-.04-.1-.125-.084-.125.025v.71a.097.097 0 0 1-.108.108h-.087a.097.097 0 0 1-.109-.108v-1.68a.098.098 0 0 1 .109-.11zm-.743 0a.097.097 0 0 1 .108.11v.094a.097.097 0 0 1-.108.109h-.304a.097.097 0 0 0-.108.108v1.37a.097.097 0 0 1-.109.107h-.095a.097.097 0 0 1-.108-.108v-1.369a.097.097 0 0 0-.108-.108h-.307a.097.097 0 0 1-.108-.109v-.095a.097.097 0 0 1 .108-.108zM659.892 52.265l3.182.004c.2 0 .398.026.591.075.205.05.34.244.315.453a1.04 1.04 0 0 1-.283.647c-.254.31-.503.625-.778.914a2.612 2.612 0 0 0-.705 1.914c.008 3.362-.008 6.725-.013 10.087 0 .32.012.64.036.96.04.548.326 1.049.78 1.36.492.386 1.1.595 1.725.594.68-.008 1.361 0 2.042-.005a2.972 2.972 0 0 0 1.377-.364c.398-.201.699-.552.837-.976.13-.38.197-.777.2-1.178l.063-5.704c.041-1.8.06-3.602.136-5.402a1.726 1.726 0 0 0-.625-1.534c-.061-.05-.108-.12-.172-.168a1.269 1.269 0 0 1-.409-1.303.31.31 0 0 1 .313-.301c.06-.007.12-.007.18-.007 1.14-.018 2.281-.038 3.422-.052.18-.005.36.009.536.04a.423.423 0 0 1 .365.526 1.66 1.66 0 0 1-.232.544c-.154.21-.318.411-.492.605-.215.263-.432.525-.643.792a1.709 1.709 0 0 0-.378 1.112c.007.68.003 1.361.001 2.042-.004 2.242.01 4.483-.023 6.725-.015.82-.086 1.638-.211 2.448a4.741 4.741 0 0 1-1.357 2.751 4.659 4.659 0 0 1-1.947 1.146 9.064 9.064 0 0 1-7.362-.737 4.982 4.982 0 0 1-2.53-3.671 11.185 11.185 0 0 1-.136-1.974v-8.586a1.862 1.862 0 0 0-.491-1.317c-.323-.355-.65-.706-.992-1.043a1.08 1.08 0 0 1-.35-.973c.036-.255.126-.364.368-.405.158-.026.317-.037.477-.035 2.122-.005 4.243-.005 6.365 0zm82.18.017a8.76 8.76 0 0 1 2.374.285 6.937 6.937 0 0 1 2.817 1.54 5.606 5.606 0 0 1-.77 8.886c-.32.202-.658.376-1.07.61.084.085.173.165.267.24.533.361.962.856 1.244 1.434.328.619.634 1.25.982 1.856.237.415.529.8.796 1.197.267.41.72.66 1.21.67.528.035.59.153.403.638-.218.543-.606 1-1.107 1.303a3.803 3.803 0 0 1-4.584-.605 6.194 6.194 0 0 1-1.282-2.012c-.134-.334-.245-.676-.36-1.017a10.459 10.459 0 0 0-1.28-2.57 3.184 3.184 0 0 0-1.526-1.213c-.42-.159-.587-.126-.582.391.01 1.12.006 2.242-.001 3.362-.01.567.194 1.116.571 1.538.276.317.56.628.824.954.14.168.26.354.353.552a.463.463 0 0 1-.311.663c-.154.042-.313.06-.472.056l-6.063-.006-.6.012a.563.563 0 0 1-.561-.272.721.721 0 0 1 .022-.794c.116-.162.258-.305.388-.458.297-.35.59-.705.891-1.053.301-.353.457-.807.435-1.27-.014-2.321-.006-4.643-.006-6.964 0-1.34-.015-2.682.007-4.022a2.073 2.073 0 0 0-.575-1.524 19.352 19.352 0 0 1-.349-.386l-.682-.786a.863.863 0 0 1-.206-.782.441.441 0 0 1 .4-.387c.179-.016.359-.022.539-.018 1.68-.007 3.361-.015 5.042-.025.94-.006 1.88-.025 2.821-.023zm-15.217-.004c.18-.006.36.002.54.021.442.016.8.365.825.807.088.654.15 1.312.217 1.969.067.656.099 1.318.197 1.97.102.674-.3.785-.764.742a.939.939 0 0 1-.66-.377c-.36-.454-.717-.912-1.071-1.371a1.04 1.04 0 0 1-.208-.675c.005-.3.003-.6 0-.9.002-.12-.006-.24-.025-.358a.42.42 0 0 0-.377-.332c-.1-.008-.2-.01-.3-.008-1.36 0-2.722-.003-4.083 0-.646.002-.72.081-.749.718a66.448 66.448 0 0 0 .002 5.463c.002.06 0 .12.005.18a.713.713 0 0 0 .664.728 2.582 2.582 0 0 0 2.366-.738c.374-.39.732-.795 1.09-1.2a1.21 1.21 0 0 1 1.015-.412.5.5 0 0 1 .514.544c.01.14.005.28.005.42l-.004 4.444v.12c-.008.258.04.556-.234.7a.967.967 0 0 1-.974-.045 1.94 1.94 0 0 1-.405-.352 49.76 49.76 0 0 1-.969-1.066 2.497 2.497 0 0 0-2.148-.85c-.623.04-.917.322-.92.945-.01 1.86-.004 3.722-.004 5.584 0 .08.005.16.014.24.011.187.15.342.334.375.137.03.276.045.415.044l4.864.002c.25.017.5-.045.711-.18.097-.297.118-.614.06-.922a1.585 1.585 0 0 1 .355-1.173c.222-.283.407-.594.622-.883.156-.208.322-.408.498-.599a.995.995 0 0 1 .932-.297c.231.014.413.202.42.434.004.1 0 .2-.012.299-.114 1.175-.23 2.35-.349 3.524-.017.159-.042.317-.076.474a.805.805 0 0 1-.755.731 4.402 4.402 0 0 1-.66.03l-5.043.002h-7.565c-.2.01-.4 0-.599-.027a.647.647 0 0 1-.443-1.015c.076-.117.163-.227.26-.327.278-.316.55-.637.84-.941.436-.451.668-1.061.641-1.688-.019-1.681-.012-3.363-.012-5.044 0-1.842.008-3.683.007-5.524.007-.26-.01-.52-.051-.777a2.28 2.28 0 0 0-.574-1.106c-.31-.34-.616-.684-.928-1.022a.908.908 0 0 1-.261-.823.466.466 0 0 1 .442-.415c.179-.016.36-.01.54-.01 2.662-.009 5.324-.018 7.986-.029 1.28-.005 2.562-.018 3.842-.024zm50.641.001c.2-.003.4.017.594.06a.417.417 0 0 1 .332.545c-.053.191-.143.37-.263.529a27.8 27.8 0 0 1-.958 1.155c-.306.347-.5.78-.558 1.239-.015.16-.02.32-.016.48v1.05l.001 1.05c.003 3.102.005 6.204.01 9.306 0 .4.002.8.013 1.2.016.55.166.694.73.718h2.25l2.192-.004c.179-.003.357-.028.53-.074a.407.407 0 0 0 .374-.464c.017-.4.025-.8.014-1.2-.016-.282.07-.56.244-.783.309-.393.622-.782.94-1.167a1.065 1.065 0 0 1 1.084-.354c.188.019.334.17.348.357.014.16.012.32-.004.48a517.188 517.188 0 0 1-.363 3.46c-.019.2-.054.398-.106.591a.657.657 0 0 1-.527.517 4.22 4.22 0 0 1-.712.074c-2.061.006-4.122.004-6.183.004v.002h-6.124c-.16.005-.32.003-.48-.008a.642.642 0 0 1-.53-.922c.086-.157.192-.303.316-.432.337-.396.682-.786 1.023-1.179.316-.368.482-.842.462-1.328-.006-.78-.004-1.56-.004-2.341l.006-8.045c0-.16-.007-.32.001-.48a2.303 2.303 0 0 0-.665-1.743c-.3-.322-.589-.655-.885-.98a.961.961 0 0 1-.303-.635c-.005-.387.162-.632.554-.624.06.001.12-.002.18-.003 2.161-.02 4.322-.037 6.483-.05zm-11.676 0c.22-.005.44.007.658.034.4.012.728.319.767.717.052.254.078.514.104.773.112 1.074.198 2.152.336 3.223.087.668-.269.82-.81.753a.777.777 0 0 1-.556-.318c-.473-.645-.945-1.291-1.415-1.939-.137-.2-.2-.441-.18-.683.014-.22.016-.44.004-.66a.395.395 0 0 0-.427-.407c-.26-.014-.52-.009-.78-.009-1.241 0-2.482 0-3.723.002a3.03 3.03 0 0 0-.42.018.44.44 0 0 0-.395.391 2.55 2.55 0 0 0-.025.419 14861.383 14861.383 0 0 0 .01 5.825c.025.704.286.986.982 1.015.752.06 1.489-.231 1.997-.787.366-.398.734-.794 1.095-1.196.265-.311.671-.466 1.076-.409a.449.449 0 0 1 .472.444c.01.12.014.24.01.36v4.684c.003.12 0 .24-.01.36a.46.46 0 0 1-.448.474 1.016 1.016 0 0 1-.983-.314l-.937-1.015a30.21 30.21 0 0 0-.37-.394 2.336 2.336 0 0 0-2.203-.655.75.75 0 0 0-.671.73c-.01.12-.013.24-.009.36 0 1.061.014 2.122-.006 3.183-.02.566.183 1.117.565 1.535.278.315.552.634.817.96.13.151.244.317.336.494a.516.516 0 0 1-.425.791 3.89 3.89 0 0 1-.48.012h-6.125c-.16.005-.32.002-.48-.01a.624.624 0 0 1-.498-.931 2 2 0 0 1 .287-.381c.29-.332.579-.664.877-.988a2.191 2.191 0 0 0 .597-1.646c-.004-.08 0-.16 0-.24v-10.27c0-.04-.003-.08 0-.12a2.41 2.41 0 0 0-.752-2.008c-.314-.307-.589-.654-.878-.986a.756.756 0 0 1-.176-.726.488.488 0 0 1 .463-.4c.12-.011.24-.016.36-.014 4.123-.019 8.246-.036 12.369-.052zm-56.055-.013c.777 0 1.151.234 1.236 1.127.085.896.178 1.791.268 2.686.028.279.061.557.088.836.02.138.026.278.02.418a.457.457 0 0 1-.478.438.702.702 0 0 1-.55-.186c-.425-.424-.847-.85-1.274-1.272a1.47 1.47 0 0 1-.445-1.138c.007-.28.004-.56-.013-.84a.506.506 0 0 0-.505-.558 1.444 1.444 0 0 0-.24-.014c-.72 0-1.44.001-2.16.004-.08 0-.16.005-.239.017a.366.366 0 0 0-.333.3 3.88 3.88 0 0 0-.058.655l.003 9.303c0 .94.008 1.881-.014 2.821a3.05 3.05 0 0 0 .822 2.247c.244.263.468.547.694.827.146.167.233.378.249.6a.399.399 0 0 1-.305.454 1.896 1.896 0 0 1-.473.057c-2.201.005-4.402.006-6.602.001-.611-.001-.808-.25-.651-.83.058-.19.155-.365.285-.515.294-.354.606-.693.922-1.027.335-.35.514-.82.496-1.305.007-4.221.03-8.443.044-12.664 0-.2-.016-.398-.052-.595a.393.393 0 0 0-.371-.336c-.08-.009-.16-.014-.24-.014l-2.16.003c-.04-.001-.08 0-.12.003a.568.568 0 0 0-.58.567 6.645 6.645 0 0 0-.03.958 1.29 1.29 0 0 1-.404 1.024c-.407.413-.804.838-1.215 1.246a.702.702 0 0 1-.813.217.487.487 0 0 1-.337-.45c-.008-.14-.004-.28.01-.419.123-1.173.25-2.346.38-3.519.019-.179.053-.356.102-.53a.686.686 0 0 1 .583-.535c.257-.037.516-.056.776-.058 2.14.002 4.28.004 6.421.008h.3v-.012zm91.97 0c.501-.002 1.002-.009 1.501.011.238.015.473.055.703.119a.533.533 0 0 1 .145.955.738.738 0 0 1-.315.165c-.269.08-.514.225-.714.422-.395.339-.792.674-1.192 1.006a3.972 3.972 0 0 0-.712.804 32.101 32.101 0 0 0-2.201 4.122c-.52 1.037-1.01 2.089-1.538 3.12a2.966 2.966 0 0 0-.32 1.444c.014.88.019 1.761-.01 2.64a2.55 2.55 0 0 0 .757 2.01c.269.27.523.552.762.848.113.137.198.297.247.468.096.354-.07.573-.44.632-.08.01-.16.015-.24.012-2.14.003-4.28.004-6.42.005-.16.007-.32 0-.479-.022a.595.595 0 0 1-.425-.952c.103-.148.22-.285.35-.41l.91-.956c.334-.353.51-.827.489-1.312-.009-.84-.012-1.68 0-2.52.001-.382-.1-.756-.292-1.085-.58-1.05-1.152-2.105-1.726-3.158-.785-1.44-1.578-2.875-2.35-4.322a6.49 6.49 0 0 0-1.357-1.741c-.31-.284-.613-.575-.926-.855a.958.958 0 0 1-.32-.861c.034-.358.156-.488.527-.518.14-.01.28-.007.42-.007h6.242c.14-.005.28-.002.42.009a.502.502 0 0 1 .393.852c-.187.26-.398.502-.592.756-.086.11-.164.226-.23.348a.685.685 0 0 0-.006.688c.077.14.15.283.226.423 1.03 1.899 2.062 3.795 3.098 5.69.091.168.133.387.391.456.067-.09.129-.185.184-.284.82-1.646 1.635-3.295 2.447-4.946.094-.198.17-.404.227-.616.14-.408.034-.86-.273-1.163-.264-.271-.498-.572-.746-.86-.039-.045-.08-.089-.118-.136a.705.705 0 0 1 .388-1.198 2.8 2.8 0 0 1 .656-.066c.82-.012 1.64-.015 2.46-.018zm-114.64 0 3.452.002c.14 0 .28.008.42.023a.852.852 0 0 1 .79.707c.028.116.049.234.06.354.119 1.134.236 2.268.347 3.403.029.218.034.439.015.658a.537.537 0 0 1-.82.39.995.995 0 0 1-.19-.144c-.42-.4-.842-.798-1.254-1.206a1.315 1.315 0 0 1-.406-1.086c.024-.299.004-.6.022-.9a.607.607 0 0 0-.643-.695c-.24-.015-.48-.013-.72-.013-.52 0-1.041 0-1.561.008-.548.009-.646.105-.69.672-.021.28-.038.56-.037.84.014 3.903.037 7.805.042 11.708a1.98 1.98 0 0 0 .47 1.319c.355.432.676.893 1.008 1.344.185.24.291.53.305.833a.468.468 0 0 1-.439.541c-.159.02-.319.028-.479.024-2.161.003-4.323.003-6.485 0-.62 0-.868-.34-.659-.929.087-.223.206-.431.354-.62.274-.368.563-.728.863-1.075.34-.402.519-.914.504-1.44.006-.72.013-1.44.014-2.161.008-3.183.014-6.365.018-9.547 0-.32-.002-.642-.025-.96-.029-.396-.171-.54-.565-.546a82.62 82.62 0 0 0-2.342.001c-.393.006-.53.148-.557.549-.02.299-.028.6-.024.9.012.385-.123.76-.377 1.049-.407.468-.829.922-1.248 1.38a1.257 1.257 0 0 1-.229.192.614.614 0 0 1-.97-.399.968.968 0 0 1-.01-.298c.135-1.273.271-2.546.409-3.819.007-.12.024-.238.05-.356a.786.786 0 0 1 .692-.654c.238-.029.478-.044.718-.045 2.161.001 4.323.004 6.484.007h.24v-.01h6.905zm-50.204-2.087c3.043.003 6.086-.01 9.128.016a7.26 7.26 0 0 1 4.766 1.691 4.335 4.335 0 0 1 1.468 4.595 3.823 3.823 0 0 1-1.869 2.47c-.274.163-.564.302-.843.458-.092.061-.18.128-.264.2l.497.168c.303.103.612.189.907.311a5.037 5.037 0 0 1 3.163 3.936c.142.728.16 1.475.055 2.21a4.471 4.471 0 0 1-1.93 3.121 8.666 8.666 0 0 1-3.12 1.346 13.57 13.57 0 0 1-3.037.336c-2.902.012-5.805.005-8.708.002-.2.004-.399-.01-.596-.044a.512.512 0 0 1-.425-.448.89.89 0 0 1 .208-.836c.292-.301.573-.615.854-.927.148-.163.287-.333.429-.502.375-.45.573-1.021.554-1.607a2658.08 2658.08 0 0 1 0-12.071 2.805 2.805 0 0 0-.75-1.967c-.349-.386-.692-.778-1.05-1.156a.944.944 0 0 1-.258-.825.47.47 0 0 1 .461-.463c.12-.013.24-.017.36-.014zm9.328 10.552a7.3 7.3 0 0 0-2.803.552c-.814.307-.944.497-.936 1.382.02 2.019.041 4.037.066 6.056.002.155.03.31.05.505.148.018.226.035.304.035 1.599.002 3.198 0 4.797.003a1.309 1.309 0 0 0 1.289-.892c.132-.335.195-.694.185-1.054.006-1.36.018-2.719.017-4.078a4.628 4.628 0 0 0-.08-.773 1.666 1.666 0 0 0-1.036-1.3 4.886 4.886 0 0 0-1.853-.436zm96.54-6.703c-.858-.016-1.717-.01-2.575-.006-.57.003-.613.05-.622.612-.002.12.004.24.004.36v2.815h.051v3.056c0 .14.006.28.013.419.007.123.087.23.204.27.093.036.188.065.285.088.825.24 1.618.579 2.36 1.01.173.1.352.187.537.262a.905.905 0 0 0 1.307-.547c.103-.26.148-.54.133-.82v-5.992c0-.1-.004-.2-.01-.3a1.158 1.158 0 0 0-.863-1.101 2.894 2.894 0 0 0-.823-.126zm-98.631-2.424-1.12.001c-.13.006-.26.02-.389.04-.133.214-.182.47-.137.718.019 2.299.04 4.598.064 6.897.001.158.022.315.035.474.099.02.12.03.137.026.077-.02.153-.045.227-.075a8.385 8.385 0 0 1 3.029-.646c.279-.01.557-.049.835-.086.407-.05.753-.321.898-.705.144-.353.212-.732.2-1.113.002-1.28.007-2.559.006-3.838.002-.2-.012-.4-.044-.597a1.171 1.171 0 0 0-.8-.964 2.276 2.276 0 0 0-.702-.122c-1.12-.014-2.24-.01-3.359-.009zm78.124-15.246c.06-.001.12.001.18.007a.28.28 0 0 1 .234.434 1.539 1.539 0 0 1-.264.397 2.202 2.202 0 0 0-.579 1.648c.015 1.64.016 3.28.002 4.92a2.041 2.041 0 0 0 .566 1.527c.12.133.219.283.291.447a.254.254 0 0 1-.194.366c-.137.03-.276.045-.416.046-.92.009-1.84.012-2.76.01a2.28 2.28 0 0 1-.533-.059.32.32 0 0 1-.189-.517.712.712 0 0 1 .464-.351.465.465 0 0 0 .395-.518c-.002-.76.007-1.52-.002-2.28-.005-.376-.118-.5-.51-.513-.719-.027-1.439-.032-2.159-.031-.3 0-.413.116-.482.426a1.043 1.043 0 0 0-.04.236c.01.74.023 1.479.04 2.218.005.208.14.39.338.455.223.092.41.255.53.465a.262.262 0 0 1-.176.415c-.156.03-.315.046-.474.046-.84.015-1.68.032-2.52.031-.259 0-.517-.03-.77-.088a.3.3 0 0 1-.19-.471c.103-.171.227-.329.37-.47.378-.364.575-.878.54-1.403-.023-1.66-.023-3.32 0-4.98a1.862 1.862 0 0 0-.566-1.457c-.15-.16-.27-.343-.358-.543a.284.284 0 0 1 .237-.397c.08-.01.16-.014.24-.012 1.1-.003 2.2-.004 3.3-.003.097 0 .195.017.326.03a.632.632 0 0 1-.25.78.818.818 0 0 1-.268.13.417.417 0 0 0-.301.458c-.004.42-.02.84-.02 1.26 0 .4.006.8.023 1.2.013.305.095.382.406.388.22.005.44-.02.66-.021.42-.002.84.006 1.26.006.16 0 .32-.007.479-.02a.344.344 0 0 0 .32-.307c.02-.118.028-.237.025-.357 0-.6-.01-1.2-.002-1.8a.815.815 0 0 0-.505-.864.894.894 0 0 1-.345-.313.343.343 0 0 1 .228-.55c.079-.013.159-.018.239-.015l3.18-.006zm-11.637-.003.18.007a.451.451 0 0 1 .48.435c.092.552.169 1.106.25 1.66.047.315.099.631.129.949a.342.342 0 0 1-.09.262.257.257 0 0 1-.33-.042 24.16 24.16 0 0 1-.591-.507l-.436-.413a.766.766 0 0 1-.284-.571l-.01-.1a1.289 1.289 0 0 0-.044-.195c-.052-.198-.134-.283-.328-.288-.3-.009-.6-.007-.899.014a.38.38 0 0 0-.359.345 2.706 2.706 0 0 0-.023.419c.004 1.9.013 3.8.013 5.699-.004.383.13.755.377 1.047.146.165.282.337.408.517.189.294.086.51-.248.554-.1.01-.2.014-.3.012-.94.007-1.879.017-2.819.017-.178 0-.355-.024-.527-.072a.277.277 0 0 1-.174-.386c.084-.157.182-.306.295-.444.121-.157.272-.294.383-.458.15-.238.225-.516.214-.798.015-1.92.03-3.84.047-5.76l-.001-.12c-.022-.525-.08-.586-.59-.6a6.573 6.573 0 0 0-.539.002c-.283.016-.386.116-.42.403-.012.099-.003.2-.006.3a.891.891 0 0 1-.268.648c-.32.301-.643.6-.974.889-.118.103-.255.211-.43.113-.17-.096-.17-.256-.14-.42.095-.552.19-1.103.29-1.654.066-.373.139-.746.217-1.117.035-.111.077-.22.128-.324.224-.008.402-.021.58-.021h6.658l.18-.002zm20.566.003c.662 0 .76.087.841.737.06.477.106.955.15 1.433.016.16.016.32 0 .479a.311.311 0 0 1-.525.225c-.263-.215-.51-.45-.76-.68a.897.897 0 0 1-.259-.59c-.04-.333-.108-.404-.398-.41-.62-.016-1.24-.018-1.86-.007-.292.005-.434.105-.44.386-.017.859 0 1.718.021 2.577a.337.337 0 0 0 .325.304c.378.086.775-.018 1.062-.279l.596-.592c.11-.115.236-.215.372-.298a.365.365 0 0 1 .54.283c.01.059.014.119.013.179l.001 2.282-.002.06c-.007.165-.026.329-.208.395a.486.486 0 0 1-.508-.084c-.136-.117-.257-.25-.383-.38-.14-.143-.27-.296-.416-.432-.27-.25-.64-.36-1.001-.297a.43.43 0 0 0-.405.377 1.681 1.681 0 0 0-.027.299c-.008.7-.007 1.401-.022 2.101-.01.493.186.624.543.64.777.035 1.557-.003 2.335-.024a.298.298 0 0 0 .289-.328c.005-.366.19-.707.493-.912.2-.194.415-.372.643-.533a.34.34 0 0 1 .534.324c-.016.419-.07.837-.111 1.255-.018.179-.047.357-.067.536-.064.565-.19.701-.744.717-.2.006-.4.009-.6.01l-1.201-.002h-1.562c-.96 0-1.921.002-2.882-.001a6.36 6.36 0 0 1-.66-.03.303.303 0 0 1-.263-.435.98.98 0 0 1 .235-.34 2.114 2.114 0 0 0 .673-1.778c-.034-1.52-.01-3.043-.01-4.564 0-.16.003-.32-.002-.48a1.458 1.458 0 0 0-.386-.984 5.085 5.085 0 0 1-.391-.455.809.809 0 0 1-.136-.322.303.303 0 0 1 .258-.345c.1-.01.2-.014.3-.011 2.001-.005 4.003-.007 6.005-.006z" fill="#000"/>
    </g>
</svg>
