<svg width="56" height="56" viewBox="0 0 56 56" xmlns="http://www.w3.org/2000/svg">
    <defs>
        <linearGradient x1="50%" y1="0%" x2="50%" y2="100%" id="5nnrh5aoab">
            <stop stop-color="#FFF" offset="0%"/>
            <stop stop-color="#FFF" offset="100%"/>
        </linearGradient>
        <filter x="-45.5%" y="-45.5%" width="191.1%" height="191.1%" filterUnits="objectBoundingBox" id="995gniimna">
            <feOffset in="SourceAlpha" result="shadowOffsetOuter1"/>
            <feGaussianBlur stdDeviation="6.5" in="shadowOffsetOuter1" result="shadowBlurOuter1"/>
            <feColorMatrix values="0 0 0 0 0.6 0 0 0 0 0.317647059 0 0 0 0 0.956862745 0 0 0 0.15 0" in="shadowBlurOuter1" result="shadowMatrixOuter1"/>
            <feMerge>
                <feMergeNode in="shadowMatrixOuter1"/>
                <feMergeNode in="SourceGraphic"/>
            </feMerge>
        </filter>
    </defs>
    <g filter="url(#995gniimna)" transform="translate(0 0)" fill="none" fill-rule="evenodd">
        <circle fill="url(#5nnrh5aoab)" cx="28" cy="28" r="28"/>
        <path d="M20.862 13.697c-.265.059-.467.362-.61.556l-.338.403a7.069 7.069 0 0 0-.687 1.624c-.384 1.173-.14 2.913.23 3.89.29.773.845 1.32 1.318 1.908.635.788 1.536 1.495 2.343 2.115l1.679 1.362c.497.37 1.015.722 1.515 1.079.188.109.364.237.524.383-.06.009-.12.013-.181.015a1.815 1.815 0 0 0-.54.23c-.096.068-.114.141-.25.186-.12-.085-.473-.248-.61-.055l-.077.186a.267.267 0 0 0-.316.152c-.172.057-.69-.319-.828-.414a3.737 3.737 0 0 1-.894-.741 8.797 8.797 0 0 0-.73-.948c-.139-.139-.546-.473-.817-.415l-.044.022c.069.109.168.081.283.142.172.093.327.214.458.36.314.358.542.788.84 1.166.317.405.94.724 1.482.894-.133.147-.463.165-.633.272a3.81 3.81 0 0 0-.795.654c-.527.584-.704 1.51-1.472 1.853l-.01.043v.011c.28.157.774-.51.904-.675.514-.652 1.204-1.976 2.245-2.028l.175.131h.174c.072.056.025.222.175.294.219.104.427-.13.48-.272.191.022.212.151.337.229.21.116.447.176.687.174a2.278 2.278 0 0 1-.567.436c-.5.357-1.018.709-1.515 1.08-.56.453-1.12.907-1.679 1.362-.807.62-1.708 1.326-2.343 2.114-.473.588-1.028 1.136-1.319 1.907-.369.979-.613 2.719-.229 3.891.16.568.391 1.114.687 1.624l.338.404c.143.193.345.496.61.555.299.067.524-.186.698-.272.642-.319 1.1-.77 1.667-1.144 1.015-.67 2.207-.997 3.52-1.385.503-.148.986-.373 1.527-.501.29-.069.528-.053.839-.109.828-.15 1.496-.261 2.06-.665-.04-.428-.3-.674-.49-.98-.299-.482-.604-.934-.894-1.418a6.118 6.118 0 0 1-.295-.665 15.71 15.71 0 0 1-.98-2.713l-.12-.709v-.076h.043c.086.45.352.864.512 1.264a12.748 12.748 0 0 0 1.886 3.194c.294.333.607.65.937.948a7.11 7.11 0 0 0 1.395 1.079c.097.082.208.144.327.185l.687-.152a6.93 6.93 0 0 0 1.787-.665c.49-.293.996-.59 1.341-1.025.684-.862 1.109-1.882 1.537-3.008.173-.408.309-.831.403-1.264.127-.684.074-1.38.065-2.071-.117-.168-.865-.484-1.1-.589a7.82 7.82 0 0 0-1.679-.566c-.957-.19-2.024-.006-2.888.152l-1.21.076-.556-.021c-.48-.075-.912-.037-1.34-.131l-1.112-.25-.01-.055v-.011a4.024 4.024 0 0 1 1.558-.022 6.425 6.425 0 0 0 1.885-.022c.172-.052.34-.117.502-.196.195-.053.376-.146.534-.272.294-.405-.496-.57-.742-.622-1.169-.248-2.591.161-3.781.055.002-.03.009-.06.02-.09.093-.005.186-.01.28-.017l.866-.195c.428-.093.86-.056 1.34-.13l.556-.022 1.21.076c.864.158 1.931.343 2.888.153a7.82 7.82 0 0 0 1.679-.567c.235-.105.983-.421 1.1-.589.009-.691.062-1.387-.065-2.07a7.086 7.086 0 0 0-.403-1.265c-.428-1.126-.853-2.146-1.537-3.008-.345-.435-.851-.732-1.34-1.025a6.93 6.93 0 0 0-1.788-.664l-.687-.153c-.12.04-.23.104-.327.185a7.11 7.11 0 0 0-1.395 1.08c-.33.298-.643.614-.937.948a12.748 12.748 0 0 0-1.886 3.193c-.16.4-.426.814-.512 1.264h-.043v-.076l.12-.708a15.71 15.71 0 0 1 .98-2.714c.085-.228.183-.45.295-.665.29-.484.595-.936.893-1.417.19-.307.451-.553.49-.981-.563-.403-1.231-.516-2.06-.665-.31-.056-.549-.04-.838-.109-.541-.128-1.024-.353-1.526-.501-1.314-.388-2.506-.714-3.52-1.384-.567-.374-1.026-.826-1.668-1.145-.174-.086-.399-.339-.698-.272z" fill="#1D1D1B"/>
        <path d="M21.266 30.837c-.22-.389-1.222-.299-1.243.197.058.064.134.11.218.13a5.338 5.338 0 0 0 1.014-.272l.01-.055zM20.514 24.778l-.426.13-.01.087.098.099.261.021.589.23c.097.008.196-.01.283-.055.061-.258-.448-.592-.795-.512z" fill="#1D1D1B"/>
    </g>
</svg>
