<svg width="21" height="21" viewBox="0 0 21 21" xmlns="http://www.w3.org/2000/svg">
    <defs>
        <filter color-interpolation-filters="auto" id="a">
            <feColorMatrix in="SourceGraphic" values="0 0 0 0 1.000000 0 0 0 0 1.000000 0 0 0 0 1.000000 0 0 0 1.000000 0"/>
        </filter>
        <filter color-interpolation-filters="auto" id="b">
            <feColorMatrix in="SourceGraphic" values="0 0 0 0 1.000000 0 0 0 0 1.000000 0 0 0 0 1.000000 0 0 0 1.000000 0"/>
        </filter>
    </defs>
    <g transform="translate(-766 -216)" filter="url(#a)" fill="none" fill-rule="evenodd">
        <g transform="translate(486 78.278)" filter="url(#b)">
            <path d="M300.756 141.403a8.218 8.218 0 0 1-2.446.7 4.427 4.427 0 0 0 1.872-2.457 8.364 8.364 0 0 1-2.703 1.078 4.175 4.175 0 0 0-3.11-1.403c-2.35 0-4.257 1.988-4.257 4.442 0 .347.038.687.11 1.011-3.538-.185-6.675-1.953-8.776-4.64a4.577 4.577 0 0 0-.576 2.234c0 1.54.751 2.9 1.892 3.696a4.106 4.106 0 0 1-1.929-.556v.056c0 2.152 1.467 3.948 3.416 4.355a4.074 4.074 0 0 1-1.924.076c.542 1.765 2.115 3.049 3.978 3.084a8.317 8.317 0 0 1-6.303 1.84 11.686 11.686 0 0 0 6.527 1.995c7.831 0 12.113-6.769 12.113-12.636 0-.192-.004-.384-.013-.575a8.804 8.804 0 0 0 2.129-2.3" fill="#48378E"/>
        </g>
    </g>
</svg>
